<?xml version="1.0" encoding="UTF-8"?>
<svg id="Layer_2" data-name="Layer 2" xmlns="http://www.w3.org/2000/svg" width="1451.52" height="1460.16" viewBox="0 0 1451.52 1460.16">
  <defs>
    <style>
      .cls-1 {
        fill: #fff;
      }
    </style>
  </defs>
  <g>
    <path class="cls-1" d="m154.9,1314.28v-157.68h86.75c31.92,0,57.77,23.55,57.77,52.53,0,9.66-12.88,17.57-28.89,17.57v8.74c16.01,0,28.89,11.78,28.89,26.31v52.53h-43.33v-39.47c0-7.18-6.44-13.06-14.44-13.06h-43.42v52.53h-43.33Zm86.75-92c8,0,14.44-5.89,14.44-13.16s-6.44-13.06-14.44-13.16h-43.42v26.31h43.42Z"/>
    <path class="cls-1" d="m371.74,1314.28c-31.92,0-57.87-23.55-57.87-52.53v-52.62c0-28.98,25.94-52.53,57.87-52.53h28.89c31.92,0,57.77,23.55,57.77,52.53v52.62c0,28.98-25.85,52.53-57.77,52.53h-28.89Zm28.89-39.47c8,0,14.44-5.89,14.44-13.06v-52.62c0-7.27-6.44-13.06-14.44-13.16h-28.89c-8,.09-14.44,5.89-14.54,13.16v52.62c.09,7.18,6.53,13.06,14.54,13.06h28.89Z"/>
    <path class="cls-1" d="m472.85,1314.28v-157.68h86.75c31.92,0,57.77,23.55,57.77,52.53,0,9.75-11.59,18.21-28.89,22.81v6.99c17.3,4.6,28.89,13.06,28.89,22.81,0,28.98-25.85,52.53-57.77,52.53h-86.75Zm86.75-92c8,0,14.44-5.89,14.44-13.16s-6.44-13.16-14.44-13.16h-43.42v26.31h43.42Zm0,52.53c8,0,14.44-5.89,14.44-13.06s-6.44-13.16-14.44-13.16h-43.42v26.22h43.42Z"/>
    <path class="cls-1" d="m689.69,1314.28c-31.92,0-57.87-23.55-57.87-52.53v-52.62c0-28.98,25.94-52.53,57.87-52.53h28.89c31.92,0,57.77,23.55,57.77,52.53v52.62c0,28.98-25.85,52.53-57.77,52.53h-28.89Zm28.89-39.47c8,0,14.44-5.89,14.44-13.06v-52.62c0-7.27-6.44-13.06-14.44-13.16h-28.89c-8,.09-14.44,5.89-14.54,13.16v52.62c.09,7.18,6.53,13.06,14.54,13.06h28.89Z"/>
    <path class="cls-1" d="m790.8,1314.28v-157.68h57.87l57.77,105.15v-105.15h43.42v157.68h-57.87l-57.86-105.15v105.15h-43.33Z"/>
    <path class="cls-1" d="m978.67,1314.28v-39.47h72.31c8,0,14.44-5.89,14.44-13.06v-26.31h-9.66c0,14.54-8.65,26.31-19.23,26.31h-14.44c-31.92,0-57.87-23.55-57.87-52.62v-52.53h43.33v52.53c.09,7.27,6.53,13.16,14.54,13.16h14.44c16.01,0,28.89-5.89,28.89-13.16v-52.53h43.33v105.15c0,28.98-25.85,52.53-57.77,52.53h-72.31Z"/>
    <path class="cls-1" d="m1123.2,1314.28v-52.53c0-14.54,12.88-26.31,28.89-26.31v-8.74c-15.92,0-28.89-7.91-28.89-17.57v-52.53h43.33v52.53c0,7.27,6.53,13.16,14.54,13.16h43.33c8,0,14.44-5.89,14.44-13.16v-52.53h43.42v52.53c0,9.66-12.97,17.57-28.98,17.57v8.74c16.01,0,28.98,11.78,28.98,26.31v52.53h-43.42v-39.47c0-7.18-6.44-13.06-14.44-13.06h-43.33c-8,0-14.54,5.89-14.54,13.06v39.47h-43.33Z"/>
  </g>
  <g>
    <polygon class="cls-1" points="134.94 635.04 211.98 466.56 191.82 466.56 170.22 453.6 127.74 583.2 134.94 635.04"/>
    <path d="m782.19,332.59c-9.83,3.64-19.35,7.16-28.86,10.7-99.81,37.12-199.63,74.25-299.46,111.33-2.31.86-3.8,2.08-4.99,4.35-8.85,16.82-22.04,29.11-39.39,36.87-2,.89-3.06,1.83-3.37,4.25-2.76,21.54-5.76,43.05-8.54,64.59-.24,1.83.19,4.04,1.05,5.69,12.2,23.43-4.28,50.81-30.67,50.94-1.97,0-4.19.65-5.86,1.69-27.69,17.29-55.34,34.63-82.91,52.11-4.85,3.07-10.28,3.06-15.52,3.92-27.7,4.5-55.43,8.81-83.15,13.18-1.03.16-2.07.26-3.39-.11,3.58-2.72,7.1-5.54,10.76-8.16,35.48-25.47,70.98-50.91,106.49-76.34,12.5-8.95,25.09-17.77,37.54-26.77,1.4-1.02,2.33-2.8,3.24-4.36.74-1.26.87-2.91,1.71-4.08,3.09-4.31,3.32-8.93,2.88-14.08-1.8-21.12-3.23-42.27-4.74-63.41-.17-2.39-.99-3.97-3.16-5.34-10.84-6.88-19.5-15.95-25.92-27.07-1.3-2.25-2.78-2.92-5.29-2.97-24.59-.43-49.18-.99-73.76-1.5-.61-.01-1.57-.18-1.79.13-2.83,3.93-7.81,5.67-9.92,10.45-27.46,62.07-55.03,124.1-82.58,186.13-.38.86-.81,1.69-1.63,3.37-.71-7.19-1.4-13.52-1.94-19.86-1.62-19.21-3.19-38.43-4.74-57.66-.08-1.02.1-2.11.4-3.1,12.97-42.52,25.92-85.04,39.07-127.51,1.12-3.62.38-6.87.07-10.3-2.46-26.82,24.42-45.95,48.89-34.61,3.05,1.41,5.72,1.48,8.79.97,25.06-4.24,50.12-8.45,75.2-12.6,2-.33,3.03-1.2,3.86-3.09,12.86-29.43,35.24-46.52,67.07-50.73,11.78-1.56,23.51-.22,34.8,3.74,2.11.74,3.75.56,5.69-.37,54.46-26.02,108.93-52,163.41-77.97,49.99-23.83,99.98-47.64,149.94-71.54,1.29-.62,2.52-1.91,3.19-3.2,16.56-31.7,42.25-51,77.8-55.87,54.95-7.53,105.31,30.39,113.55,85.04,2.69,17.84.73,35.26-5.69,52.18-.52,1.37-.5,3.34.09,4.67,23.5,53.86,47.07,107.69,70.74,161.47.67,1.52,2.26,3.05,3.79,3.73,32,14.21,49.98,38.5,52.94,73.53,1.13,13.34-1.41,26.17-6.7,38.43-28.86,66.88-57.77,133.74-86.57,200.65-.63,1.46-.72,3.55-.2,5.04,8.92,25.7,12.74,52.23,10.38,79.2-6.6,75.13-43.49,130.87-109.79,166.72-28.57,15.45-59.57,22.47-92.03,22.25-10.56-.07-21.1-1.57-31.67-2.29-1.05-.07-2.62.36-3.16,1.11-3.44,4.83-6.65,9.81-10.33,15.34,4.81.82,9.19,1.73,13.61,2.31,43,5.64,84.55.2,123.6-18.76,67.33-32.69,108.77-86.11,123.76-159.51,2.59-12.69,2.83-25.87,3.89-38.84.2-2.42.86-3.67,2.97-4.86,55.77-31.61,94.13-77.72,114.59-138.52,9.7-28.85,13.54-58.62,11.77-88.96-3.49-59.83-25.77-111.75-66.7-155.59-14.78-15.83-31.53-29.24-49.89-40.7-1.33-.83-2.58-2.23-3.21-3.66-17.4-39.54-34.73-79.11-51.99-118.71-.57-1.3-.76-3.12-.34-4.45,16.34-52.29-3.54-107.56-49.52-137.39-.53-.34-1.06-.69-1.97-1.27,3.36,0,6.32-.24,9.24.04,12.34,1.18,24.66,2.54,37,3.75,2.02.2,2.84,1.16,3.37,3.06,2.22,7.95,4.7,15.83,6.88,23.79.63,2.3,1.81,3.18,4.06,3.59,36.86,6.7,72.3,17.93,106.19,33.88,4.32,2.04,7.16,2.06,10.81-1.18,5.46-4.84,11.53-8.99,17.27-13.53,1.45-1.14,2.58-1.22,4.23-.35,41.92,22.12,79.84,49.7,113.59,83.01,1.83,1.8,2,3.2,1.14,5.49-2.92,7.72-5.56,15.55-8.38,23.31-.59,1.63-.61,2.74.73,4.18,26.5,28.33,48.95,59.59,67.3,93.77.85,1.58,1.83,1.97,3.52,1.91,8.47-.3,16.96-.39,25.43-.73,2.16-.09,3.15.69,4.07,2.57,18.37,37.84,31.52,77.4,39.35,118.72,1.06,5.62,1.87,11.28,2.97,16.89.36,1.86-.13,2.87-1.68,3.91-7.22,4.84-14.33,9.84-21.55,14.68-1.5,1.01-1.97,1.98-1.77,3.86,2.89,26.18,3.83,52.43,1.8,78.71-.84,10.88-2.08,21.72-3.25,32.57-.2,1.88.43,2.86,1.93,3.86,6.96,4.66,13.8,9.49,20.77,14.12,1.78,1.18,2.23,2.39,1.86,4.45-8.61,47.54-23.92,92.78-46.19,135.67-1.29,2.49-2.65,3.54-5.56,3.38-8.25-.46-16.52-.55-24.79-.86-1.78-.07-2.84.48-3.78,2.1-17.72,30.59-38.68,58.77-63.15,84.31-1.6,1.67-1.83,3.08-1,5.28,2.96,7.82,5.62,15.75,8.49,23.6.58,1.59.46,2.63-.83,3.88-35.76,34.46-75.73,62.96-120.23,85.08-2.03,1.01-3.33.88-5.08-.52-6.63-5.29-13.43-10.36-20.11-15.59-1.37-1.07-2.47-1.46-4.24-.66-31.16,13.94-63.52,24.03-97.03,30.53-1.07.21-2.36,1.66-2.72,2.8-2.52,7.97-4.92,15.98-7.11,24.05-.64,2.34-1.78,3.3-4.06,3.51-17.09,1.54-34.15,3.79-51.27,4.59-60.06,2.81-118.52-5.96-175.34-25.59-2.28-.79-3.37-.32-4.59,1.61-3.35,5.28-6.86,10.46-10.41,15.6-.47.68-1.77,1.5-2.33,1.29-6.62-2.45-13.16-5.09-20.15-7.84,24.05-35.11,47.81-69.81,71.98-105.1-29.01-3.73-53.99-15.34-74.85-35.17-20.9-19.87-33.96-44.14-39.06-73.19-43.23,30.74-86.11,61.23-129.14,91.83-34.43-38.06-63.17-79.6-85.05-126.11,9.78-3.5,19.34-6.92,28.9-10.33,39.98-14.27,79.94-28.55,119.95-42.73,2.37-.84,3.17-2.38,3.89-4.46,21.47-61.76,62.84-104.24,123.9-127.51,14.4-5.49,29.39-8.78,44.7-10.62,1.5-.18,3.13-1.22,4.24-2.33,28.48-28.38,56.9-56.82,85.33-85.24,11.63-11.63,23.22-23.28,34.91-34.84,1.42-1.41,1.73-2.49.91-4.35-23.72-53.99-47.39-108.01-71.07-162.02-.29-.67-.62-1.32-1.11-2.37Zm501.3,189.37c-1.1.07-2.27-.1-3.27.24-23.4,8.08-46.8,16.17-70.15,24.41-1.44.51-2.99,1.99-3.59,3.4-7.16,17.08-14.19,34.22-21.13,51.39-.9,2.23-2.05,2.95-4.43,2.93-13.89-.12-27.77-.06-41.66-.06-1.24,0-2.49,0-3.89,0v4.85c1.21.07,2.25.17,3.28.17,15.27.01,30.53-.04,45.8.06,2.36.02,3.47-.69,4.38-2.95,7-17.37,14.21-34.66,21.26-52.01.82-2.03,1.92-3.2,4.05-3.92,17.12-5.83,34.2-11.8,51.3-17.73,6.27-2.18,12.53-4.38,18.84-6.58-.34-1.65-.62-2.98-.89-4.31.53.62,1.1,1.21,1.59,1.87,4.21,5.74,11.52,7.65,17.8,4.63,6.03-2.89,9.17-9.63,7.54-16.17-1.69-6.78-7.44-10.99-14.55-10.67-6.85.31-12.33,5.24-13.09,12.33-.29,2.64.51,5.4.81,8.1Zm-710.78,339.82c.52-.25.83-.36,1.08-.53,15-10.18,30-20.35,44.94-30.6.78-.53,1.37-1.8,1.47-2.78.56-5.05.65-10.16,1.41-15.18,3.91-26.12,14.72-48.93,33.24-67.92,2.19-2.25,4.6-4.28,6.91-6.41-46.43,59.58-33.31,133.49,6.38,173.7,21.09,21.37,46.71,33.97,76.47,37.25,37.73,4.16,71.31-6.7,101.2-29.96-3,3.69-6.12,7.21-9.54,10.41-20.55,19.2-45.03,29.74-72.89,32.58-2.22.23-3.34,1.19-4.46,2.87-8.65,13.09-17.38,26.12-26.08,39.18-.57.85-1.05,1.76-1.62,2.71,58.64,8.78,139.35-16.38,182.26-92.42,41.71-73.92,26.63-167.7-35.43-224.75-63.08-57.98-156.41-65.72-227.3-18.26-73.71,49.35-91.28,132.21-78.05,190.11Zm186.38-239.32c62.88,2.58,113.64,29.18,153.59,77.61.94-1.21,1.55-1.91,2.06-2.68,10.16-15.02,20.33-30.04,30.47-45.07,17.86-26.46,35.71-52.93,53.56-79.39,5.08-7.53,10.08-15.03,13.78-23.46,5.24-11.94,8.04-24.16,6.64-37.08-4.64-43.02-50.66-69.93-90.7-53.2-10.09,4.21-18.08,11.11-25.7,18.81-28.88,29.17-58.01,58.1-87.08,87.08-.89.89-2.08,1.48-3.39,2.39,3.55,3.52,6.34,6.4,9.29,9.1.66.6,1.92.75,2.91.76,6.36.05,12.73-.03,19.09.02,1.71.02,2.82-.35,3.86-1.97,1.91-2.96,5.81-3.26,8.33-1,2.4,2.15,2.54,5.94.29,8.25-2.37,2.45-6.18,2.46-8.36-.38-1.18-1.54-2.4-1.72-4.03-1.71-6.89.03-13.79.08-20.68-.11-1.4-.04-3.04-.77-4.09-1.71-2.89-2.6-5.54-5.49-7.87-7.85-4.75,4.73-9.21,9.17-13.85,13.79,4.46,5.31,9.12,10.94,13.89,16.47.59.68,1.8,1.1,2.75,1.15,9.31.44,18.63.82,27.95,1.06,1.02.03,2.31-.71,3.05-1.49,2.57-2.71,6.26-3.1,8.72-.7,2.27,2.22,2.27,6.07-.02,8.29-2.55,2.47-6.14,2.07-8.72-.69-.87-.93-2.33-1.75-3.57-1.82-8.89-.5-17.79-.86-26.68-1.12-2.93-.09-5.09-.88-6.99-3.38-4.15-5.44-8.69-10.58-12.89-15.62-11.99,11.99-23.74,23.74-35.64,35.64Zm56.65-305.29c43.02.67,82.34-34.09,82.84-82.21.47-45.5-36.62-82.51-81.3-83.18-44.46-.67-83.81,34.7-84.27,81.54-.47,46.82,36.42,83.85,82.74,83.85Zm-203.92-51.01c-55.9,26.7-111.22,53.13-166.82,79.69,8.18,8.44,15.96,16.55,23.89,24.49.66.66,2.56.7,3.58.28,6.28-2.55,12.47-5.32,18.7-8.02,24.8-10.73,49.62-21.44,74.39-32.25,2.29-1,3.91-.71,5.74.86,2.97,2.56,6.22,4.8,9.13,7.43,2.02,1.82,3.69,1.94,6.2.84,41.84-18.32,83.74-36.52,125.62-54.76,3.95-1.72,7.87-3.5,12.09-5.37-9.69-20-11.77-40.77-8.25-62.91-18.02,8.59-35.36,16.85-53.06,25.29,2.4,5.87,4.74,11.52,7.03,17.19.8,1.99,1.58,3.6,4.1,4.26,3.02.8,4.28,4.41,3.14,7.31-1.21,3.08-4.44,4.55-7.53,3.42-2.94-1.08-5.13-4.66-3.44-7.12,2.25-3.29.69-5.79-.34-8.54-1.88-4.99-3.88-9.93-5.92-15.11-7.96,3.81-15.48,7.41-23.72,11.35,1.82.24,2.72.36,3.76.49,1.56,12.12,3.02,24.1,4.7,36.05.33,2.33-.48,3.2-2.44,3.96-7.31,2.83-14.59,5.75-21.83,8.76-1.28.53-2.52,1.51-3.4,2.58-2.21,2.7-5.74,3.62-8.44,1.96-2.45-1.51-3.42-4.9-2.16-7.57,1.41-3,4.65-4.07,8.09-2.91,1.08.36,2.5.51,3.52.12,6.14-2.31,12.2-4.85,18.32-7.22,1.69-.65,2.2-1.55,1.9-3.37-.51-3.02-.69-6.1-1.03-9.15-.82-7.53-1.66-15.05-2.53-22.98-6.41,3.05-12.44,5.86-18.38,8.84-.69.35-1.2,1.63-1.29,2.53-.38,3.9-.68,7.82-.81,11.73-.07,2.2-.95,3.36-3.02,4.18-6.3,2.5-12.49,5.25-18.76,7.82-2.08.85-3.79,1.78-4.99,3.95-1.52,2.76-5.24,3.21-7.82,1.43-2.54-1.75-3.2-5.29-1.48-7.89,1.72-2.61,5.17-3.33,7.84-1.57.85.56,1.57,1.32,2.35,1.99,6.87-2.9,13.62-5.71,20.31-8.63.83-.36,1.86-1.28,1.97-2.06.51-3.54.72-7.12,1.11-11.39Zm-172.22,154.76c1.02-34.08-27.05-62.51-62.6-63.41-33.78-.85-63.05,27.17-64.04,61.32-1.02,35.04,26.54,64.51,61.54,65.38,36.47.91,65.31-28.21,65.11-63.29Zm520.52,14.91c-20.79-47.46-41.36-94.41-62.03-141.6-2.97,3.46-5.48,6.75-8.4,9.63-2.06,2.03-2.29,3.72-1.2,6.38,8.81,21.45,17.44,42.98,26.2,64.45.8,1.97.76,3.5-.39,5.29-2.01,3.12-3.67,6.46-5.7,9.56-1.25,1.91-1.25,3.6-.4,5.64,1.96,4.69,3.76,9.44,5.57,14.19.7,1.82,1.41,3.25,3.67,3.87,2.91.81,4.19,4,3.38,7-.76,2.83-3.7,4.62-6.67,4.06-2.93-.55-4.8-3.16-4.84-6.2-.03-2.04-.29-4.16-.91-6.1-1.06-3.32-2.09-6.76-3.82-9.74-4.28-7.38-3.82-14.04,1.94-20.35.56-.61.82-1.5,1.36-2.14,1.56-1.85,1.46-3.68.57-5.87-8.08-19.81-16.06-39.65-24.08-59.48-.45-1.12-.97-2.21-1.54-3.52-1.04.86-1.77,1.46-2.49,2.07-12.01,10.2-25.7,17.11-41.01,20.79-3.38.81-3.43,1.19-2.24,4.55,2.1,5.93,5.64,11.16,7.76,17.14,2.68,7.56,6.65,14.66,9.8,22.08.93,2.2,2.3,3.15,4.42,3.44,3.46.47,6.91,1.13,10.38,1.26,2.64.1,3.96,1.19,4.98,3.51,6.95,15.7,14.01,31.35,21.04,47.02,2.76,6.14,5.55,12.28,8.42,18.63,16.91-11.92,35.46-16.59,56.21-15.55Zm-534.65-80.63c12.65,9.62,21.86,21.15,27.63,35.37.37.91,2.04,1.76,3.14,1.82,4.13.21,8.29.35,12.4,0,3.74-.31,7.61-.73,11.09-2.01,21.09-7.73,42.1-15.68,63.1-23.65,2.35-.89,4.33-.91,6.66.15,1.3.59,3.24.51,4.63.01,3.69-1.31,7.21-3.09,10.84-4.56,20.93-8.48,41.87-16.94,62.8-25.39,21.43-8.65,42.86-17.31,64.3-25.94,12.59-5.07,25.19-10.09,37.79-15.13,3.1-1.24,3.23-1.68,1.39-4.55-1.14-1.79-2.38-3.53-3.34-5.41-1.08-2.09-2.21-2.56-4.52-1.53-13.55,6.05-27.17,11.92-40.78,17.84-32.45,14.13-64.9,28.25-97.33,42.43-1.9.83-3.3.76-4.91-.61-3.14-2.69-6.53-5.08-9.62-7.83-2.05-1.83-3.82-1.86-6.3-.78-30.31,13.21-60.68,26.27-90.97,39.51-3.16,1.38-5.37,1.64-7.56-1.43-1.47-2.05-3.47-3.71-5.21-5.57-6.35-6.81-12.69-13.63-19.09-20.5-5.34,2.55-10.47,5.01-16.15,7.73Zm75.82,554.93c.36-.04.49-.02.56-.07,17.62-11.93,35.25-23.86,52.82-35.87.61-.42,1.01-1.76.88-2.57-1.11-6.78-2.27-13.56-3.69-20.28-.27-1.27-1.47-2.83-2.65-3.35-6-2.66-12.08-5.15-18.23-7.42-1.73-.64-3.97-.87-5.7-.36-16.04,4.7-32.01,9.6-48,14.47-1.39.42-2.73.99-4.44,1.62,7.73,19.13,17.21,37,28.44,53.83Zm-251.48-259.72c5.69,6.67,11.09,13.03,16.56,19.34.4.46,1.34.88,1.87.74,2.72-.72,5.72-1.1,8.03-2.55,21.27-13.32,42.43-26.84,63.61-40.3,4.53-2.88,9.05-5.76,14.06-8.95-12.69-6.44-19.03-16.68-20.5-30.7-28.03,20.92-55.66,41.54-83.64,62.41Zm-78.1-191.58c-12.29,40.28-24.45,80.12-36.71,120.28,1.35.31,2.44.62,3.56.81,4.17.7,8.38,1.18,12.5,2.09,2.91.65,4.46.23,5.77-2.84,12.81-30.08,25.81-60.09,38.74-90.12,2.57-5.97,5.11-11.95,7.8-18.26-12.74,1.41-22.84-3.02-31.66-11.97Zm378.89,354.89c-1.46.45-2.16.63-2.85.88-7.57,2.71-15.16,5.36-22.69,8.18-2.01.75-3.4.7-5.03-.91-3.01-2.97-6.23-5.76-9.54-8.4-.86-.69-2.53-1.03-3.58-.72-5.27,1.56-10.44,3.5-15.71,5.08-2.02.61-2.62,1.7-2.7,3.63-.14,3.28-.64,6.54-.71,9.82-.06,2.75-1.22,4.02-3.89,4.79-5.55,1.6-10.98,3.62-16.68,5.55,1.58,4.21,3.02,8.04,4.52,12.06,1.26-.3,2.28-.48,3.27-.78,16.61-5.02,33.23-10.02,49.81-15.15,2.51-.78,4.64-.63,7.01.41,5.43,2.38,10.95,4.55,16.45,6.77.8.33,1.67.5,2.32.69v-31.9Zm-162.71-255.61c2.64-19.44,5.2-38.23,7.79-57.28-1.26.2-2,.27-2.71.44-9.7,2.28-19.49,2.43-29.32,1.1-4.15-.56-4.33-.5-4.33,3.67-.02,14.41-.01,28.81,0,43.22,0,1.02.15,2.04.27,3.48,10.15-2.25,19.36-.52,28.3,5.37Zm-162.19-121.8c0-15.44-12.23-27.7-27.61-27.68-15.18.02-27.5,12.23-27.66,27.43-.16,15.22,12.27,27.78,27.57,27.84,15.39.06,27.71-12.2,27.7-27.59Zm170.07,150.61c.07-15.34-12.16-27.7-27.55-27.85-15.07-.14-27.51,12.22-27.57,27.43-.07,15.48,11.86,27.77,26.99,27.83,15.86.06,28.06-11.83,28.13-27.41Zm875.58-125.12c2.87-.27,5.26-.17,7.46-.75,6.24-1.65,10.27-7.25,10.2-13.71-.06-6.41-4.31-11.86-10.52-13.51-6-1.59-12.44.99-15.7,6.29-3.35,5.45-2.63,12.63,1.97,17.28,1.24,1.25,1.91,2.27,1.47,4.08-3.11,12.74-6.09,25.52-9.27,38.24-.33,1.33-1.47,2.84-2.66,3.51-15.4,8.7-30.86,17.28-46.33,25.85-1.19.66-2.46,1.27-3.76,1.66-23.41,7.01-46.83,13.99-70.25,20.98q-4.39,1.31-2.73,5.98c1.19-.3,2.41-.55,3.6-.9,19.36-5.78,38.73-11.54,58.08-17.37,5.66-1.71,11.67-2.85,16.82-5.56,16.57-8.74,32.84-18.07,49.16-27.29,1.11-.62,2.11-2.05,2.46-3.29,1.38-4.99,2.49-10.06,3.7-15.1,2.12-8.84,4.23-17.68,6.31-26.39Zm-244.22-207.3c.74-.27.93-.41,1.13-.41,8.38-.03,16.76.05,25.14-.15,1.59-.04,3.51-.81,4.66-1.9,5.46-5.18,10.79-10.51,16-15.95,1.8-1.88,3.28-2.52,5.99-1.69,7.75,2.37,15.91-2.97,17.44-11.02,1.49-7.86-4.28-15.82-12.01-16.55-8.96-.85-16.09,5.05-15.85,13.62.09,3.33,1.43,6.63,2.35,10.57-5.21,5.21-11.01,11.09-16.94,16.86-.71.69-2.06,1.01-3.11,1.03-6.15.09-12.3.05-18.46.05-3.67,0-7.34,0-11.35,0,0,1.67,0,2.92,0,4.17,0,20.26.04,40.52-.08,60.78-.01,1.71-.76,3.75-1.85,5.08-7.85,9.6-15.89,19.06-23.85,28.57-3.51,4.19-7,8.41-10.68,12.85,1.74.94,3.11,1.67,4.5,2.43.71-.79,1.28-1.41,1.82-2.05,11.1-13.24,22.25-26.46,33.24-39.79,1.09-1.32,1.83-3.36,1.84-5.07.13-19.2.08-38.4.08-57.6v-3.8Zm123.45,653.07c-1.16-10.49-2.2-20.58-3.47-30.64-.15-1.17-1.28-2.68-2.36-3.19-17.96-8.58-35.97-17.04-54.01-25.44-1.12-.52-2.64-.6-3.89-.39-12.28,2.12-24.68,3.77-36.75,6.76-7.12,1.76-10.99-.02-14.53-6.09-3.6-6.17-8.25-11.73-12.57-17.75-1.33,1.03-2.37,1.84-3.57,2.76,6.35,8.88,12.46,17.53,18.73,26.05.53.72,2.18,1.11,3.18.94,15.08-2.64,30.14-5.41,45.22-8.08,1.06-.19,2.36-.05,3.33.4,17.07,7.97,34.12,16,51.13,24.1.87.42,1.83,1.6,1.94,2.52.99,8.18,1.64,16.41,2.73,24.57.38,2.81-.52,3.74-3.01,4.71-6.93,2.72-10.26,10.7-7.74,17.65,2.56,7.07,10.02,10.92,17.19,8.89,7.34-2.08,11.62-9.33,9.91-16.81-1.41-6.18-5.7-9.4-11.45-10.99Zm41.02-518.59c.77.92,1.39,1.76,2.11,2.51,3.92,4.15,8.76,5.49,14.2,4.1,5.24-1.34,8.68-4.84,9.98-10.09,2.02-8.15-3.1-16.11-11.05-17.48-8.4-1.44-15.65,4.19-16.88,12.89-.21,1.5-.99,3.18-2.05,4.25-4.83,4.91-9.9,9.58-14.74,14.48-.91.92-1.62,2.49-1.65,3.78-.52,22.77-.97,45.54-1.29,68.32-.03,2.43-.77,3.79-2.82,5.06-15.59,9.63-31.1,19.39-46.64,29.1q-4.14,2.59-1.45,6.97c18.14-11.34,36.29-22.65,54.36-34.1.89-.57,1.46-2.28,1.49-3.48.28-9,.37-18.01.54-27.01.26-14.3.52-28.6.84-42.9.02-.98.28-2.24.92-2.88,4.59-4.54,9.3-8.95,14.12-13.54Zm-150.99,9.13c4.15-4.35,8.03-8.4,11.9-12.47,26-27.33,52.02-54.64,77.94-82.05,1.14-1.21,1.86-3.29,1.9-4.99.21-7.31.08-14.63.1-21.94,0-1.09.14-2.19.21-3.29,8.81.82,15.17-2.98,17.09-9.93,1.88-6.81-1.25-13.86-7.48-16.82-6.24-2.97-14.13-1.08-17.67,4.83-1.54,2.58-2.43,5.93-2.47,8.94-.07,5.2,3.07,8.99,6.68,11.31-.59,1.54-1.32,2.6-1.34,3.66-.1,7-.12,13.99-.02,20.99.03,2.15-.53,3.74-2.07,5.35-25.19,26.35-50.31,52.76-75.44,79.17-4.36,4.58-8.7,9.18-13.16,13.89,1.38,1.21,2.48,2.18,3.82,3.36Zm-813.98,17.38c1.94,4.59,3.97,8.78,5.45,13.15.84,2.48,1.96,3.01,4.4,2.7,5.56-.71,11.16-1.14,16.75-1.62,12.86-1.1,25.73-2.12,38.58-3.34.87-.08,2.18-1.59,2.29-2.55.71-6.5,1.16-13.02,1.73-19.98-23.05,3.88-46.24,7.78-69.2,11.64Zm907.43,216.88c.64.15.94.27,1.24.28,20.22.86,40.44,1.7,60.65,2.6,1.86.08,2.79-.59,3.63-2.23,8.09-15.85,16.23-31.67,24.49-47.43.69-1.31,2.2-2.59,3.6-3.04,8.15-2.64,16.4-4.99,24.58-7.55,1.84-.57,2.93-.46,4.23,1.25,4.26,5.59,11.83,6.98,18,3.58,5.79-3.19,8.52-10.2,6.49-16.67-1.97-6.3-8.34-10.56-14.66-9.82-7.39.87-12.49,6.07-12.79,13.43-.09,2.16-.97,2.9-2.79,3.44-8.73,2.57-17.42,5.29-26.17,7.79-2.24.64-3.52,1.83-4.56,3.88-7.76,15.3-15.68,30.52-23.43,45.83-1.01,1.99-2.27,2.41-4.27,2.32-18.31-.83-36.62-1.59-54.93-2.36-.9-.04-1.81.1-2.77.15-.2,1.64-.36,3-.55,4.56Zm-667.92,205.98c5.76-1.92,11.19-3.65,16.53-5.61.79-.29,1.57-1.62,1.7-2.55.49-3.78.8-7.59,1.02-11.39.1-1.81.66-2.85,2.53-3.43,6.57-2.06,13.04-4.4,19.63-6.37,1.2-.36,3.1.12,4.11.92,3.4,2.7,6.47,5.8,9.83,8.55.78.64,2.35,1.01,3.28.69,8.1-2.78,16.16-5.72,24.19-8.7.75-.28,1.76-1.07,1.85-1.73.82-6.25,1.46-12.52,2.2-19.2-30.76,10.99-61.2,21.86-91.85,32.81,1.73,5.54,3.32,10.65,4.99,16.01Zm641.5-110.31c11.52,6.05,22.7,11.83,33.78,17.8,2.3,1.24,4.02,1.32,6.34-.09,8.78-5.33,17.68-10.47,26.64-15.5,1.29-.72,3.26-1,4.67-.61,16.62,4.59,33.19,9.39,49.8,14.01,2.74.76,4.3,1.89,5.18,4.89,2.1,7.17,10.06,10.95,17.4,8.79,7.15-2.1,11.42-9.74,9.56-17.1-1.82-7.19-9.02-11.71-16.31-10.34-5.64,1.07-9.03,4.7-11.21,9.75-.7-.18-1.21-.31-1.71-.45-17.61-4.98-35.24-9.91-52.82-14.99-2.28-.66-4-.37-5.96.8-8.75,5.19-17.58,10.22-26.33,15.4-1.55.92-2.77.95-4.35.08-4.73-2.61-9.53-5.07-14.32-7.57-5.97-3.12-11.94-6.21-18.13-9.43-.8,1.64-1.44,2.95-2.23,4.58Zm-67.24-437.27v3.81c0,12.72.07,25.44-.09,38.16-.02,1.66-.86,3.72-2.02,4.9-9.85,10.08-19.86,20.02-29.86,29.95-1.19,1.19-2.67,2.09-4.31,3.35,2.25,1.44,3.64,2.33,5.11,3.26,11.91-11.91,23.62-23.58,35.22-35.35.75-.76.98-2.29.98-3.46.07-11.87.04-23.74.04-35.62,0-1.23,0-2.46,0-3.98,3.76,0,7.04.09,10.3-.03,2.04-.08,3.13.39,3.92,2.59,2.3,6.41,8.99,10.09,15.47,8.92,7.01-1.27,11.8-7,11.79-14.09-.02-6.67-4.7-12.49-11.04-13.72-7.05-1.37-13.75,2.01-16.18,8.62-.85,2.31-2,2.77-4.15,2.72-4.95-.12-9.9-.04-15.19-.04Zm48.44,614c-1,.88-1.9,1.61-2.72,2.41-4.81,4.73-5.65,12.18-2.03,17.78,3.66,5.66,10.75,7.98,17.03,5.57,6.17-2.37,9.9-8.77,8.89-15.23-1.08-6.84-6.33-11.6-13.12-12.16-1.33-.11-2.85-.75-3.84-1.64-5.44-4.88-10.83-9.83-16.03-14.95-2-1.97-3.98-2.66-6.75-2.33-9.46,1.12-18.96,1.92-28.42,3.06-3.18.39-5.42-.38-7.26-3.04-1.5-2.17-3.36-4.09-5.08-6.11-5.35-6.28-10.7-12.55-16.19-18.99-1.34,1.2-2.49,2.22-3.84,3.41,8.5,9.98,16.78,19.75,25.14,29.44.49.56,1.68.82,2.5.74,10.96-1.06,21.9-2.24,32.87-3.28,1.13-.11,2.65.2,3.44.91,5.19,4.67,10.23,9.51,15.42,14.39Zm7.1-154.32c.77.5,1.34.95,1.98,1.27,15.58,7.92,31.19,15.79,46.74,23.76,1.78.91,3.07.66,4.65-.36,9.26-5.97,18.54-11.93,27.93-17.7,1.3-.8,3.44-1.07,4.9-.63,6.99,2.1,13.84,4.63,20.81,6.79,2.24.69,3.27,1.9,3.66,4.12,1.01,5.83,2.28,11.62,3.16,17.47.36,2.41,1.38,3.46,3.68,3.93,7.25,1.48,14.45,3.22,21.71,4.64,2.54.5,3.92,1.53,4.84,4.08,2.02,5.62,8.11,9.39,13.71,9.03,7.01-.45,13.06-5.96,13.67-12.44.75-7.93-3.48-14.16-10.88-16.03-6.91-1.75-14,1.87-16.67,8.82-.83,2.16-1.82,2.72-3.95,2.22-6.38-1.51-12.77-2.98-19.18-4.31-1.91-.39-2.56-1.31-2.88-3.14-1.04-6.04-2.38-12.02-3.39-18.06-.35-2.08-1.27-3.06-3.21-3.68-8.56-2.76-17.11-5.57-25.6-8.54-2.06-.72-3.54-.4-5.29.74-8.99,5.82-18.08,11.47-27.06,17.3-1.81,1.17-3.25,1.35-5.23.33-13.37-6.9-26.8-13.67-40.22-20.47-1.85-.94-3.74-1.8-5.73-2.76-.8,1.35-1.43,2.41-2.14,3.62Zm-95.91-507.48c2.85-.86,5.42-1.26,7.63-2.37,5.88-2.95,8.58-9.21,7.18-15.81-1.25-5.88-6.69-10.42-12.98-10.84-6.07-.4-12.06,3.57-14.1,9.34-2.18,6.19-.11,12.93,5.38,16.51,1.77,1.16,2.31,2.38,2.29,4.37-.09,7.74.03,15.48-.09,23.21-.03,1.73-.43,3.59-1.17,5.15-6.25,13.32-12.62,26.58-18.95,39.87-3.26,6.85-6.52,13.7-9.88,20.77,1.5.72,2.68,1.29,3.97,1.91.61-1.15,1.08-1.96,1.48-2.81,7.92-16.63,15.48-33.44,23.89-49.82,4.07-7.92,6.05-15.81,5.41-24.61-.37-5.04-.07-10.12-.07-14.89Zm-23.64,735.74c-4.83-7.08-9.55-13.86-14.06-20.77-.57-.88-.42-2.63.04-3.71,4.36-10.34,8.87-20.62,13.32-30.93.87-2.02,1.68-4.06,2.6-6.27-1.61-.71-2.94-1.29-4.31-1.89-.38.53-.69.84-.85,1.21-5.64,13.02-11.32,26.02-16.83,39.09-.42.99-.06,2.7.57,3.66,4.48,6.82,9.05,13.58,13.76,20.25,1.38,1.95,1.59,3.38.45,5.63-3.36,6.58-.84,14.55,5.41,18.28,6.12,3.66,14.25,2.09,18.56-3.58,4.39-5.77,3.67-14.18-1.76-19.03-5.01-4.47-10.69-4.55-16.9-1.94Zm132.92-489.13c1.13-.72,2.03-1.27,2.9-1.85,7.76-5.16,15.56-10.28,23.23-15.57.85-.58,1.38-2.09,1.47-3.22.59-7.39.99-14.8,1.49-22.19.3-4.38.67-8.75,1.01-13.28,1.39.28,2.3.52,3.22.65,10.73,1.51,19.18-7.48,16.36-17.49-1.61-5.73-5.46-9.35-11.3-10.32-5.68-.94-10.53.95-13.88,5.75-3.4,4.88-3.39,10.03-.78,15.34.75,1.52,1.39,3.35,1.29,4.99-.64,10.68-1.7,21.33-2.15,32.01-.14,3.24-1.36,4.91-3.86,6.52-7.11,4.56-14.09,9.34-21.24,14.11.8,1.64,1.48,3.03,2.23,4.55Zm-52.17,310.89c8.12,7.63,15.95,15.05,23.89,22.35.7.64,2.16.75,3.22.64,4.42-.44,8.84-1,13.24-1.62,2.51-.35,4.64.1,6.88,1.49,25.43,15.86,50.93,31.61,76.42,47.39.95.59,1.95,1.1,3.02,1.71.94-1.53,1.69-2.76,2.58-4.2-1.36-.88-2.49-1.63-3.64-2.34-24.58-15.23-49.23-30.33-73.68-45.77-4.59-2.9-8.93-4.49-14.19-2.97-7.89,2.28-14.02.1-19.4-6.3-4.32-5.13-9.73-9.35-14.83-14.13-1.2,1.28-2.19,2.33-3.51,3.74Zm80.44-4.02c1.26,7.26,6.91,12.34,14,12.33,6.92,0,12.85-5.05,14.06-11.96,1.14-6.52-2.99-13.48-9.29-15.65-7.74-2.67-13.68.54-19.08,10.41-17.16-8.65-34.32-17.3-51.54-25.97-1.08,1.56-1.91,2.77-2.83,4.1.57.39.96.72,1.4.95,16.74,8.45,33.47,16.91,50.24,25.31.77.39,1.78.3,3.04.48Zm-5.5-144.5c.84.16,1.55.38,2.27.42,25.69,1.34,51.38,2.71,77.08,3.91,1.54.07,3.53-.76,4.65-1.84,7.54-7.29,14.97-14.71,22.27-22.24,1.85-1.91,3.31-2.38,5.98-1.51,5.24,1.7,10.31.81,14.42-3.19,4.09-3.99,5.17-8.96,3.73-14.32-2.17-8.07-10.81-12.37-18.64-9.53-7.94,2.88-11.86,11.93-8.06,19.53,1.29,2.57.74,3.84-1.07,5.59-5.79,5.6-11.78,11.06-17.01,17.15-4,4.66-8.42,5.56-14.18,5.18-22.5-1.48-45.03-2.57-67.54-3.76-4-.21-4.01-.1-3.91,4.61Zm-5.63,25c17.31,2.47,34.16,4.88,51.02,7.28,23.47,3.34,46.94,6.67,70.41,10.03,4.24.61,4.6.33,4.49-4.57-41.48-5.89-83.01-11.78-124.69-17.69-.44,1.79-.79,3.2-1.23,4.96Zm-.57-144.28c.84-.28,1.74-.5,2.57-.87,25-10.99,50.08-21.79,74.92-33.12,5.97-2.72,10.75-3.21,16.42.46,5.44,3.52,12.74,1.83,17.07-2.94,4.4-4.84,5.06-11.86,1.63-17.35-3.48-5.57-10.21-8.03-16.6-6.06-5.86,1.81-10.47,7.83-9.96,13.98.24,2.89-.85,3.79-3.12,4.78-27.06,11.82-54.09,23.72-81.12,35.6-3.68,1.62-3.68,1.63-1.83,5.51Zm-264.5-144.07c-2.16.11-.86,2.04-.15,3.64,6.56,14.82,13.12,29.63,19.72,44.43,3.19,7.16,6.42,14.3,9.74,21.4.43.93,1.45,2.19,2.25,2.23,2.29.13,4.87-4.58,3.9-6.75-9.02-20.09-18.15-40.14-26.95-60.32-1.58-3.62-3.96-4.51-8.5-4.63Zm-598.75,282.8c-5.54-6.72-10.55-12.79-15.63-18.95-12.02,9-23.76,17.81-35.51,26.61.1.2.21.39.31.59,16.72-2.71,33.45-5.42,50.83-8.24Zm725.95,263.92c.65.85,1.13,1.54,1.67,2.17,7.72,9.02,15.5,17.99,23.13,27.08,1.51,1.8,3.04,2.52,5.39,2.48,20.45-.35,40.91-.6,61.37-.86,3.87-.05,4.53-1.39,2.37-5.09-.38,0-.8,0-1.22,0-19.82.29-39.64.55-59.45.92-2.64.05-4.57-.49-6.23-2.76-2.24-3.08-4.9-5.85-7.38-8.74-5.24-6.1-10.48-12.19-15.89-18.49-1.35,1.19-2.51,2.21-3.76,3.3Zm-33.1-632.87c1.38-11.38,2.71-22.29,4.04-33.21,2.01-16.5,4.04-32.99,5.99-49.49.26-2.18.99-3.2,3.38-3.62,7.89-1.4,12.91-9.5,10.96-17.2-2.1-8.31-10.08-12.96-18.09-10.48-6,1.86-9.41,6.18-10.14,12.2-.71,5.83,1.77,10.57,6.79,13.73,1.57.98,2.55,1.76,2.28,3.9-2.94,23.31-5.79,46.64-8.65,69.96-.54,4.38-1,8.78-1.52,13.38,1.75.29,3.17.52,4.96.82Zm53.72,602.81c-6.6,8.01-7.28,14.95-2.23,21.11,4.3,5.25,12.16,6.68,18.13,3.3,6-3.4,8.7-10.6,6.47-17.24-2.39-7.11-8.96-10.49-17.86-9.27-.57-1.01-1.07-2.02-1.68-2.95-5.67-8.7-11.29-17.42-17.1-26.03-1.26-1.87-1.25-3.24-.21-5.14,3.06-5.56,5.74-11.35,8.96-16.82,1.82-3.09,1.53-5.42-1.03-7.92-1.24.72-2.49,1.45-2.98,1.73-.65,2.34-.86,4.04-1.58,5.48-2.99,5.96-6.05,11.89-9.28,17.73-1.12,2.02-1.06,3.47.23,5.4,6.78,10.12,13.41,20.33,20.17,30.64Zm88.36-438.06c2.73-2,5-3.93,7.53-5.42,2.54-1.49,3.18-3.61,3.36-6.31.45-6.54,1.13-13.06,1.7-19.6.44-5.17.85-10.34,1.32-16.09-10.59,7.49-20.63,14.59-30.82,21.79,1.16,1.59,2.01,2.76,3.01,4.13,7.16-5.03,14.12-9.92,21.42-15.05.11.89.23,1.28.2,1.65-.65,7.69-1.25,15.39-2.05,23.07-.1.96-1.1,1.98-1.93,2.67-2.01,1.67-4.17,3.17-6.36,4.81.9,1.49,1.65,2.75,2.61,4.35Zm-960.56,155.81c.26.04.51.08.77.12,5.23-12.15,10.46-24.31,15.85-36.81-6.51-1.25-12.53-2.4-18.88-3.62.78,13.87,1.52,27.09,2.26,40.31Zm1021.47,97.16c-2.28-5.6-4.73-10.78-6.47-16.19-1.35-4.19-3.46-6.28-8.01-6.84-7.41-.92-14.73-2.61-22.28-4.02-.54,1.72-1,3.19-1.44,4.58.3.23.38.33.47.35,5.6,1.09,11.17,2.75,16.82,3.1,6.72.41,10.14,3.51,11.76,9.81.98,3.8,2.93,7.36,4.5,11.16,1.69-.71,2.94-1.23,4.65-1.94Zm-121.35,99.03c6.63,7.23,12.96,14.15,19.44,21.22,1.33-1.2,2.47-2.23,3.81-3.44-6.58-7.18-12.95-14.14-19.37-21.16-1.44,1.25-2.54,2.21-3.88,3.37ZM476.07,398.26c-.03-.14-.06-.28-.1-.42h-20.35c.49,2.02,1.01,3.63,1.25,5.27.3,2.04,1.36,2.53,3.11,1.82,5.37-2.2,10.73-4.44,16.09-6.66Z"/>
    <path d="m772.53,356.22c2.66,6.08,5.16,11.78,7.8,17.79-2.28.82-4.33,1.55-6.38,2.3-32.78,12.02-61.9,29.93-86.98,54.27-39.48,38.33-63.59,84.71-72.29,139-4.23,26.37-3.79,52.79.65,79.13.3,1.76-.11,2.68-1.41,3.73-31.41,25.29-54.38,56.75-68.88,94.4-.46,1.18-1.68,2.53-2.84,2.92-40.87,13.6-81.78,27.08-122.68,40.58-.29.1-.62.08-1.31.16-1.58-3.94-3.22-7.91-4.78-11.93-13.07-33.71-22.1-68.48-27.12-104.26-1.54-11.01-2.29-22.12-3.5-33.18-.25-2.26.33-3.27,2.65-4.01,12.06-3.84,21.56-11.23,28.35-21.88,9.07-14.23,10.67-29.53,5.4-45.43-1.35-4.05-1.84-7.83-1.24-12.02,2.22-15.41,4.19-30.86,6.37-46.28.15-1.04,1.03-2.33,1.94-2.85,15.62-8.92,28.1-21.02,37.45-36.4.67-1.11,2.16-1.95,3.45-2.43,60.29-22.49,120.6-44.94,180.91-67.38,40.18-14.95,80.36-29.87,120.54-44.8,1.18-.44,2.36-.86,3.91-1.43Z"/>
    <path d="m732.2,148.56c-8.55,8.97-16.01,18.67-21.92,29.54-.45.84-1.45,1.52-2.35,1.95-48.13,22.98-96.28,45.92-144.42,68.87-11.84,5.65-23.68,11.31-35.52,16.96-.65.31-1.32.58-2.19.95,7.16-11.57,64.2-54.86,95.39-72.64,35.01-19.96,71.91-35.31,111.01-45.64Z"/>
    <path class="cls-1" d="m572.71,861.78c-13.23-57.9,4.35-140.76,78.05-190.11,70.88-47.46,164.22-39.71,227.3,18.26,62.06,57.04,77.14,150.83,35.43,224.75-42.92,76.05-123.62,101.2-182.26,92.42.57-.96,1.05-1.86,1.62-2.71,8.69-13.06,17.42-26.1,26.08-39.18,1.12-1.69,2.24-2.65,4.46-2.87,27.86-2.84,52.34-13.37,72.89-32.58,3.42-3.2,6.54-6.71,9.54-10.41-29.89,23.26-63.47,34.13-101.2,29.96-29.76-3.28-55.38-15.88-76.47-37.25-39.69-40.21-52.81-114.12-6.38-173.7-2.31,2.13-4.72,4.16-6.91,6.41-18.52,18.99-29.33,41.79-33.24,67.92-.75,5.02-.85,10.13-1.41,15.18-.11.99-.7,2.25-1.47,2.78-14.94,10.26-29.95,20.42-44.94,30.6-.26.17-.56.28-1.08.53Zm182.68,38.08c41.41-.7,74.26-36.92,72.36-79.09-1.79-39.75-37.23-72.47-77.34-70.84-41.81,1.7-73.54,35.72-72.55,76.54,1.03,42.31,36.07,75.08,77.53,73.4Z"/>
    <path class="cls-1" d="m759.09,622.46c11.9-11.89,23.64-23.64,35.64-35.64,4.19,5.03,8.74,10.17,12.89,15.62,1.9,2.5,4.06,3.29,6.99,3.38,8.9.26,17.8.62,26.68,1.12,1.24.07,2.7.89,3.57,1.82,2.58,2.75,6.17,3.16,8.72.69,2.28-2.22,2.29-6.07.02-8.29-2.46-2.4-6.15-2.01-8.72.7-.74.78-2.03,1.51-3.05,1.49-9.32-.24-18.64-.62-27.95-1.06-.95-.04-2.16-.47-2.75-1.15-4.78-5.52-9.44-11.15-13.89-16.47,4.63-4.61,9.1-9.06,13.85-13.79,2.34,2.36,4.98,5.25,7.87,7.85,1.05.94,2.7,1.67,4.09,1.71,6.89.19,13.79.13,20.68.11,1.63,0,2.85.17,4.03,1.71,2.18,2.84,5.99,2.83,8.36.38,2.24-2.31,2.11-6.11-.29-8.25-2.52-2.26-6.42-1.96-8.33,1-1.04,1.61-2.14,1.98-3.86,1.97-6.36-.06-12.73.03-19.09-.02-.99,0-2.25-.16-2.91-.76-2.95-2.7-5.74-5.58-9.29-9.1,1.31-.91,2.5-1.5,3.39-2.39,29.07-28.99,58.2-57.91,87.08-87.08,7.62-7.7,15.61-14.6,25.7-18.81,40.05-16.73,86.07,10.18,90.7,53.2,1.39,12.93-1.41,25.14-6.64,37.08-3.7,8.44-8.7,15.93-13.78,23.46-17.85,26.46-35.7,52.93-53.56,79.39-10.15,15.03-20.31,30.05-30.47,45.07-.52.77-1.13,1.47-2.06,2.68-39.94-48.43-90.71-75.03-153.59-77.61Zm194.69-55.18c26.52-.1,47.65-21.08,47.63-47.31-.02-26.09-21.42-47.86-46.96-47.78-26.8.09-48.46,21.56-48.32,47.9.14,26.49,21.14,47.28,47.65,47.19Z"/>
    <path class="cls-1" d="m815.74,317.17c-46.31,0-83.2-37.03-82.74-83.85.47-46.85,39.82-82.21,84.27-81.54,44.68.67,81.78,37.68,81.3,83.18-.5,48.13-39.82,82.89-82.84,82.21Zm38.28-81.81c.07-21.71-16.62-38.88-38.01-39.07-20.78-.19-38.4,17.1-38.47,37.74-.07,21.56,16.95,39.12,38.03,39.2,21.27.08,38.38-16.76,38.45-37.86Z"/>
    <path class="cls-1" d="m611.82,266.16c-.38,4.28-.6,7.86-1.11,11.39-.11.78-1.15,1.7-1.97,2.06-6.69,2.92-13.44,5.73-20.31,8.63-.78-.67-1.5-1.43-2.35-1.99-2.68-1.76-6.12-1.04-7.84,1.57-1.72,2.61-1.06,6.14,1.48,7.89,2.58,1.78,6.3,1.33,7.82-1.43,1.2-2.18,2.91-3.1,4.99-3.95,6.27-2.57,12.46-5.33,18.76-7.82,2.07-.82,2.95-1.98,3.02-4.18.13-3.92.43-7.83.81-11.73.09-.9.59-2.18,1.29-2.53,5.94-2.98,11.97-5.79,18.38-8.84.87,7.93,1.71,15.45,2.53,22.98.33,3.05.52,6.13,1.03,9.15.3,1.82-.21,2.71-1.9,3.37-6.12,2.37-12.18,4.91-18.32,7.22-1.02.39-2.44.24-3.52-.12-3.44-1.16-6.68-.09-8.09,2.91-1.26,2.67-.29,6.05,2.16,7.57,2.7,1.67,6.23.74,8.44-1.96.88-1.08,2.12-2.05,3.4-2.58,7.24-3.01,14.52-5.93,21.83-8.76,1.96-.76,2.77-1.62,2.44-3.96-1.68-11.95-3.14-23.93-4.7-36.05-1.04-.14-1.94-.25-3.76-.49,8.24-3.94,15.76-7.55,23.72-11.35,2.03,5.18,4.04,10.12,5.92,15.11,1.03,2.75,2.59,5.25.34,8.54-1.68,2.46.5,6.05,3.44,7.12,3.09,1.13,6.32-.34,7.53-3.42,1.14-2.9-.12-6.51-3.14-7.31-2.52-.67-3.3-2.27-4.1-4.26-2.29-5.67-4.62-11.32-7.03-17.19,17.69-8.43,35.04-16.7,53.06-25.29-3.52,22.14-1.44,42.91,8.25,62.91-4.21,1.87-8.14,3.65-12.09,5.37-41.88,18.24-83.78,36.44-125.62,54.76-2.51,1.1-4.18.98-6.2-.84-2.91-2.63-6.16-4.87-9.13-7.43-1.82-1.57-3.45-1.86-5.74-.86-24.77,10.81-49.58,21.51-74.39,32.25-6.22,2.69-12.42,5.46-18.7,8.02-1.02.42-2.92.38-3.58-.28-7.93-7.95-15.7-16.05-23.89-24.49,55.6-26.56,110.92-52.99,166.82-79.69Z"/>
    <path class="cls-1" d="m439.6,420.93c.2,35.08-28.63,64.2-65.11,63.29-35-.87-62.56-30.34-61.54-65.38,1-34.15,30.26-62.17,64.04-61.32,35.56.9,63.62,29.32,62.6,63.41Zm-63.24,29.92c18.49.71,30.15-15.51,30.07-29.86-.09-16.5-13.39-29.99-29.84-30.07-16.36-.08-29.98,13.29-30.02,29.45-.04,17.29,12.83,30.44,29.79,30.47Z"/>
    <path class="cls-1" d="m960.13,435.83c-20.75-1.03-39.3,3.63-56.21,15.55-2.87-6.35-5.66-12.49-8.42-18.63-7.03-15.66-14.09-31.32-21.04-47.02-1.03-2.32-2.35-3.41-4.98-3.51-3.47-.13-6.93-.8-10.38-1.26-2.12-.29-3.48-1.24-4.42-3.44-3.15-7.41-7.12-14.51-9.8-22.08-2.12-5.98-5.66-11.21-7.76-17.14-1.19-3.37-1.14-3.74,2.24-4.55,15.32-3.68,29-10.59,41.01-20.79.72-.61,1.45-1.21,2.49-2.07.57,1.31,1.09,2.4,1.54,3.52,8.02,19.83,16,39.68,24.08,59.48.89,2.19,1,4.02-.57,5.87-.54.64-.8,1.53-1.36,2.14-5.77,6.31-6.22,12.97-1.94,20.35,1.73,2.99,2.76,6.42,3.82,9.74.62,1.94.89,4.05.91,6.1.04,3.04,1.9,5.66,4.84,6.2,2.97.55,5.91-1.23,6.67-4.06.81-3-.47-6.19-3.38-7-2.25-.62-2.97-2.05-3.67-3.87-1.81-4.75-3.61-9.5-5.57-14.19-.85-2.04-.85-3.73.4-5.64,2.03-3.1,3.69-6.44,5.7-9.56,1.15-1.79,1.19-3.32.39-5.29-8.77-21.47-17.39-43-26.2-64.45-1.09-2.66-.86-4.34,1.2-6.38,2.92-2.88,5.42-6.18,8.4-9.63,20.68,47.19,41.24,94.14,62.03,141.6Z"/>
    <path class="cls-1" d="m425.48,355.2c5.69-2.72,10.81-5.18,16.15-7.73,6.4,6.87,12.74,13.69,19.09,20.5,1.74,1.86,3.74,3.52,5.21,5.57,2.19,3.06,4.41,2.81,7.56,1.43,30.29-13.24,60.67-26.3,90.97-39.51,2.47-1.08,4.24-1.05,6.3.78,3.08,2.75,6.48,5.14,9.62,7.83,1.6,1.37,3.01,1.44,4.91.61,32.43-14.18,64.88-28.3,97.33-42.43,13.6-5.93,27.23-11.8,40.78-17.84,2.31-1.03,3.44-.56,4.52,1.53.97,1.88,2.2,3.62,3.34,5.41,1.84,2.87,1.71,3.31-1.39,4.55-12.6,5.04-25.2,10.06-37.79,15.13-21.44,8.63-42.87,17.29-64.3,25.94-20.94,8.46-41.88,16.91-62.8,25.39-3.63,1.47-7.15,3.25-10.84,4.56-1.39.5-3.33.58-4.63-.01-2.33-1.06-4.31-1.04-6.66-.15-21,7.96-42.01,15.92-63.1,23.65-3.48,1.28-7.36,1.71-11.09,2.01-4.11.34-8.27.2-12.4,0-1.11-.06-2.77-.91-3.14-1.82-5.78-14.22-14.98-25.75-27.63-35.37Z"/>
    <path class="cls-1" d="m501.29,910.13c-11.23-16.83-20.71-34.69-28.44-53.83,1.71-.63,3.05-1.2,4.44-1.62,15.99-4.86,31.97-9.77,48-14.47,1.73-.51,3.97-.27,5.7.36,6.15,2.27,12.24,4.76,18.23,7.42,1.17.52,2.38,2.08,2.65,3.35,1.41,6.72,2.57,13.5,3.69,20.28.13.81-.27,2.15-.88,2.57-17.57,12.01-35.2,23.93-52.82,35.87-.07.05-.2.03-.56.07Z"/>
    <path class="cls-1" d="m249.81,650.41c27.98-20.88,55.61-41.5,83.64-62.41,1.47,14.02,7.81,24.25,20.5,30.7-5.01,3.19-9.53,6.07-14.06,8.95-21.19,13.46-42.34,26.98-63.61,40.3-2.31,1.45-5.31,1.83-8.03,2.55-.54.14-1.47-.28-1.87-.74-5.47-6.31-10.87-12.67-16.56-19.34Z"/>
    <path class="cls-1" d="m550.6,813.72v31.9c-.65-.19-1.51-.36-2.32-.69-5.5-2.23-11.02-4.39-16.45-6.77-2.37-1.04-4.5-1.18-7.01-.41-16.58,5.13-33.2,10.12-49.81,15.15-.99.3-2.02.49-3.27.78-1.51-4.02-2.94-7.85-4.52-12.06,5.7-1.92,11.13-3.95,16.68-5.55,2.67-.77,3.83-2.03,3.89-4.79.07-3.28.57-6.54.71-9.82.08-1.93.68-3.03,2.7-3.63,5.27-1.58,10.43-3.52,15.71-5.08,1.05-.31,2.72.03,3.58.72,3.31,2.64,6.53,5.42,9.54,8.4,1.63,1.61,3.03,1.66,5.03.91,7.53-2.82,15.12-5.47,22.69-8.18.68-.24,1.39-.43,2.85-.88Z"/>
    <path class="cls-1" d="m387.89,558.11c-8.94-5.89-18.15-7.62-28.3-5.37-.11-1.44-.27-2.46-.27-3.48-.02-14.41-.02-28.81,0-43.22,0-4.16.18-4.23,4.33-3.67,9.83,1.34,19.62,1.18,29.32-1.1.71-.17,1.44-.24,2.71-.44-2.59,19.05-5.15,37.84-7.79,57.28Z"/>
    <path class="cls-1" d="m225.71,436.3c0,15.38-12.32,27.65-27.7,27.59-15.3-.06-27.73-12.62-27.57-27.84.16-15.2,12.48-27.42,27.66-27.43,15.38-.02,27.6,12.24,27.61,27.68Zm-26.95-16.17c-8.96-.08-16.27,7.08-16.33,16-.06,8.94,7.14,16.21,16.08,16.26,8.82.05,16.27-7.37,16.24-16.18-.02-8.72-7.26-16-16-16.08Z"/>
    <path class="cls-1" d="m395.78,586.92c-.07,15.58-12.27,27.46-28.13,27.41-15.14-.05-27.06-12.35-26.99-27.83.07-15.2,12.5-27.57,27.57-27.43,15.39.15,27.61,12.51,27.55,27.85Zm-27.73,16.01c9.02.06,16.15-6.98,16.24-16.02.08-8.93-7.05-16.22-16-16.35-8.76-.13-16.2,7.2-16.34,16.1-.14,8.81,7.19,16.22,16.1,16.27Z"/>
    <path class="cls-1" d="m1271.35,461.8c-2.08,8.71-4.2,17.55-6.31,26.39-1.21,5.04-2.31,10.11-3.7,15.1-.35,1.25-1.35,2.67-2.46,3.29-16.32,9.21-32.59,18.54-49.16,27.29-5.15,2.72-11.16,3.86-16.82,5.56-19.35,5.83-38.71,11.59-58.08,17.37-1.19.36-2.41.61-3.6.9q-1.67-4.68,2.73-5.98c23.42-6.98,46.84-13.96,70.25-20.98,1.3-.39,2.57-.99,3.76-1.66,15.46-8.58,30.93-17.15,46.33-25.85,1.19-.67,2.33-2.18,2.66-3.51,3.18-12.72,6.17-25.5,9.27-38.24.44-1.81-.23-2.83-1.47-4.08-4.6-4.66-5.32-11.84-1.97-17.28,3.26-5.31,9.7-7.89,15.7-6.29,6.22,1.65,10.46,7.1,10.52,13.51.06,6.46-3.96,12.05-10.2,13.71-2.2.58-4.59.49-7.46.75Zm3.52-6.63c4.17.01,7.72-3.42,7.8-7.56.08-4.08-3.44-7.69-7.6-7.78-4.29-.09-8,3.51-7.95,7.73.05,4.11,3.59,7.59,7.75,7.61Z"/>
    <path class="cls-1" d="m1027.13,254.5v3.8c0,19.2.05,38.4-.08,57.6-.01,1.71-.75,3.75-1.84,5.07-11,13.33-22.14,26.55-33.24,39.79-.54.65-1.12,1.26-1.82,2.05-1.4-.75-2.76-1.49-4.5-2.43,3.68-4.43,7.17-8.65,10.68-12.85,7.97-9.51,16-18.97,23.85-28.57,1.09-1.33,1.84-3.37,1.85-5.08.13-20.26.08-40.52.08-60.78,0-1.25,0-2.5,0-4.17,4,0,7.68,0,11.35,0,6.15,0,12.31.05,18.46-.05,1.06-.02,2.4-.34,3.11-1.03,5.92-5.76,11.73-11.65,16.94-16.86-.92-3.94-2.26-7.24-2.35-10.57-.24-8.56,6.9-14.47,15.85-13.62,7.73.73,13.51,8.69,12.01,16.55-1.53,8.04-9.69,13.38-17.44,11.02-2.71-.83-4.19-.19-5.99,1.69-5.21,5.44-10.53,10.77-16,15.95-1.15,1.09-3.07,1.86-4.66,1.9-8.37.2-16.76.12-25.14.15-.2,0-.39.14-1.13.41Zm48.69-33.55c.08,4.19,3.66,7.65,7.84,7.57,4.1-.08,7.67-3.79,7.58-7.87-.09-4.17-3.69-7.6-7.89-7.53-4.22.07-7.61,3.6-7.53,7.84Z"/>
    <path class="cls-1" d="m1150.58,907.57c5.75,1.58,10.03,4.81,11.45,10.99,1.71,7.48-2.57,14.73-9.91,16.81-7.17,2.03-14.62-1.82-17.19-8.89-2.52-6.95.81-14.93,7.74-17.65,2.49-.98,3.39-1.9,3.01-4.71-1.09-8.17-1.74-16.39-2.73-24.57-.11-.92-1.07-2.1-1.94-2.52-17.01-8.11-34.06-16.13-51.13-24.1-.97-.45-2.27-.59-3.33-.4-15.08,2.67-30.14,5.44-45.22,8.08-1,.18-2.65-.21-3.18-.94-6.27-8.53-12.38-17.17-18.73-26.05,1.2-.93,2.24-1.73,3.57-2.76,4.32,6.02,8.97,11.58,12.57,17.75,3.54,6.07,7.41,7.85,14.53,6.09,12.07-2.99,24.47-4.64,36.75-6.76,1.25-.22,2.77-.14,3.89.39,18.04,8.4,36.05,16.86,54.01,25.44,1.08.51,2.21,2.02,2.36,3.19,1.27,10.06,2.31,20.15,3.47,30.64Zm-2.44,21.79c4.36.06,7.95-3.44,7.9-7.72-.05-4.07-3.65-7.61-7.77-7.62-4.09-.01-7.69,3.53-7.77,7.64-.08,4.08,3.46,7.64,7.64,7.69Z"/>
    <path class="cls-1" d="m1191.6,388.98c-4.82,4.59-9.53,9-14.12,13.54-.64.63-.89,1.9-.92,2.88-.32,14.3-.58,28.6-.84,42.9-.17,9-.26,18.01-.54,27.01-.04,1.2-.6,2.91-1.49,3.48-18.07,11.45-36.22,22.76-54.36,34.1q-2.7-4.38,1.45-6.97c15.54-9.71,31.05-19.47,46.64-29.1,2.06-1.27,2.79-2.63,2.82-5.06.32-22.77.77-45.55,1.29-68.32.03-1.29.74-2.86,1.65-3.78,4.84-4.9,9.91-9.57,14.74-14.48,1.05-1.07,1.84-2.75,2.05-4.25,1.23-8.71,8.48-14.34,16.88-12.89,7.95,1.37,13.07,9.33,11.05,17.48-1.31,5.25-4.74,8.75-9.98,10.09-5.44,1.39-10.28.05-14.2-4.1-.71-.76-1.34-1.6-2.11-2.51Zm12.74.63c4.2-.05,7.73-3.63,7.66-7.76-.08-4.12-3.75-7.64-7.9-7.57-4.15.06-7.71,3.7-7.64,7.81.07,4.11,3.69,7.57,7.88,7.53Z"/>
    <path class="cls-1" d="m1040.61,398.12c-1.35-1.18-2.44-2.15-3.82-3.36,4.46-4.71,8.8-9.31,13.16-13.89,25.13-26.4,50.25-52.82,75.44-79.17,1.54-1.61,2.1-3.2,2.07-5.35-.1-7-.09-13.99.02-20.99.02-1.06.75-2.11,1.34-3.66-3.61-2.31-6.75-6.11-6.68-11.31.04-3.01.93-6.36,2.47-8.94,3.54-5.92,11.42-7.8,17.67-4.83,6.23,2.97,9.36,10.01,7.48,16.82-1.92,6.95-8.28,10.75-17.09,9.93-.07,1.1-.21,2.19-.21,3.29-.02,7.32.11,14.63-.1,21.94-.05,1.7-.76,3.78-1.9,4.99-25.92,27.41-51.94,54.72-77.94,82.05-3.87,4.06-7.75,8.12-11.9,12.47Zm95.67-146.47c-3.98-.1-7.7,3.45-7.91,7.56-.19,3.92,3.42,7.77,7.48,7.98,4.08.21,8.04-3.58,8.07-7.71.03-4.02-3.59-7.73-7.64-7.83Z"/>
    <path class="cls-1" d="m226.63,415.5c22.96-3.86,46.15-7.76,69.2-11.64-.57,6.95-1.01,13.48-1.73,19.98-.11.96-1.42,2.46-2.29,2.55-12.85,1.23-25.72,2.24-38.58,3.34-5.59.48-11.18.92-16.75,1.62-2.44.31-3.56-.22-4.4-2.7-1.48-4.37-3.51-8.56-5.45-13.15Z"/>
    <path class="cls-1" d="m1134.06,632.38c.19-1.57.35-2.92.55-4.56.96-.06,1.87-.19,2.77-.15,18.31.76,36.62,1.53,54.93,2.36,2,.09,3.26-.33,4.27-2.32,7.75-15.31,15.67-30.53,23.43-45.83,1.04-2.05,2.32-3.24,4.56-3.88,8.75-2.5,17.44-5.22,26.17-7.79,1.82-.54,2.7-1.28,2.79-3.44.3-7.37,5.41-12.56,12.79-13.43,6.32-.75,12.69,3.52,14.66,9.82,2.03,6.48-.7,13.49-6.49,16.67-6.17,3.39-13.74,2.01-18-3.58-1.3-1.71-2.4-1.82-4.23-1.25-8.18,2.56-16.43,4.91-24.58,7.55-1.4.45-2.91,1.74-3.6,3.04-8.26,15.76-16.4,31.58-24.49,47.43-.84,1.65-1.77,2.32-3.63,2.23-20.22-.9-40.44-1.74-60.65-2.6-.31-.01-.61-.13-1.24-.28Zm141.19-64.83c.04-4.12-3.42-7.7-7.56-7.84-4.04-.13-7.7,3.42-7.77,7.55-.08,4.33,3.46,8.04,7.64,8,4.11-.04,7.66-3.59,7.69-7.71Z"/>
    <path class="cls-1" d="m466.14,838.36c-1.67-5.36-3.26-10.47-4.99-16.01,30.65-10.95,61.09-21.82,91.85-32.81-.74,6.67-1.38,12.95-2.2,19.2-.09.66-1.1,1.45-1.85,1.73-8.04,2.98-16.09,5.92-24.19,8.7-.93.32-2.5-.04-3.28-.69-3.36-2.75-6.43-5.86-9.83-8.55-1.01-.8-2.91-1.28-4.11-.92-6.59,1.97-13.07,4.31-19.63,6.37-1.87.59-2.43,1.62-2.53,3.43-.21,3.81-.53,7.61-1.02,11.39-.12.93-.9,2.26-1.7,2.55-5.34,1.96-10.76,3.69-16.53,5.61Z"/>
    <path class="cls-1" d="m1107.64,728.05c.79-1.63,1.43-2.94,2.23-4.58,6.19,3.22,12.16,6.31,18.13,9.43,4.79,2.5,9.59,4.96,14.32,7.57,1.58.87,2.8.84,4.35-.08,8.75-5.18,17.59-10.21,26.33-15.4,1.96-1.16,3.68-1.45,5.96-.8,17.58,5.09,35.21,10.02,52.82,14.99.5.14,1.01.27,1.71.45,2.18-5.05,5.56-8.69,11.21-9.75,7.28-1.37,14.49,3.14,16.31,10.34,1.86,7.36-2.41,15-9.56,17.1-7.33,2.15-15.29-1.63-17.4-8.79-.88-3.01-2.44-4.13-5.18-4.89-16.61-4.62-33.18-9.42-49.8-14.01-1.41-.39-3.38-.11-4.67.61-8.96,5.03-17.86,10.17-26.64,15.5-2.32,1.41-4.03,1.33-6.34.09-11.09-5.96-22.26-11.75-33.78-17.8Zm147.25,15.7c-.02-4.18-3.59-7.79-7.67-7.73-4.15.06-7.68,3.66-7.66,7.82.02,4.13,3.64,7.74,7.75,7.74,4.09,0,7.59-3.62,7.58-7.82Z"/>
    <path class="cls-1" d="m1040.39,290.78c5.3,0,10.25-.08,15.19.04,2.14.05,3.3-.41,4.15-2.72,2.43-6.62,9.12-9.99,16.18-8.62,6.34,1.23,11.02,7.05,11.04,13.72.02,7.09-4.78,12.82-11.79,14.09-6.48,1.17-13.17-2.51-15.47-8.92-.79-2.2-1.88-2.66-3.92-2.59-3.27.12-6.54.03-10.3.03,0,1.52,0,2.75,0,3.98,0,11.87.03,23.74-.04,35.62,0,1.17-.24,2.7-.98,3.46-11.61,11.77-23.31,23.44-35.22,35.35-1.47-.94-2.85-1.82-5.11-3.26,1.64-1.26,3.11-2.16,4.31-3.35,10-9.93,20.01-19.87,29.86-29.95,1.16-1.19,2-3.24,2.02-4.9.17-12.72.09-25.44.09-38.16v-3.81Zm40.1,2.49c0-4.28-3.41-7.66-7.68-7.63-4.3.03-7.68,3.43-7.65,7.68.02,4.16,3.61,7.76,7.72,7.74,4.12-.02,7.62-3.6,7.62-7.8Z"/>
    <path class="cls-1" d="m1283.39,521.86c.28,1.33.55,2.67.89,4.32-6.31,2.21-12.58,4.41-18.84,6.58-17.09,5.93-34.17,11.9-51.3,17.73-2.13.73-3.23,1.9-4.05,3.92-7.05,17.35-14.25,34.64-21.26,52.01-.91,2.26-2.02,2.97-4.38,2.95-15.26-.1-30.53-.05-45.8-.06-1.03,0-2.07-.11-3.28-.17v-4.85c1.4,0,2.65,0,3.89,0,13.89,0,27.78-.06,41.66.06,2.38.02,3.53-.7,4.43-2.93,6.94-17.17,13.97-34.31,21.13-51.39.59-1.41,2.15-2.9,3.59-3.4,23.35-8.24,46.74-16.34,70.15-24.41,1-.35,2.18-.17,3.27-.24l-.1-.11Z"/>
    <path class="cls-1" d="m1088.83,904.78c-5.19-4.88-10.23-9.72-15.42-14.39-.8-.72-2.31-1.02-3.44-.91-10.96,1.03-21.91,2.22-32.87,3.28-.82.08-2.02-.18-2.5-.74-8.36-9.69-16.64-19.46-25.14-29.44,1.34-1.19,2.49-2.22,3.84-3.41,5.49,6.44,10.84,12.71,16.19,18.99,1.72,2.02,3.58,3.94,5.08,6.11,1.84,2.66,4.09,3.42,7.26,3.04,9.46-1.15,18.96-1.94,28.42-3.06,2.77-.33,4.75.36,6.75,2.33,5.21,5.12,10.6,10.07,16.03,14.95.99.89,2.51,1.53,3.84,1.64,6.79.56,12.05,5.32,13.12,12.16,1.02,6.46-2.72,12.85-8.89,15.23-6.28,2.41-13.37.1-17.03-5.57-3.62-5.6-2.78-13.05,2.03-17.78.82-.81,1.72-1.53,2.72-2.41Zm7.23,20.19c4.14-.03,7.76-3.6,7.74-7.63-.02-4.11-3.57-7.68-7.68-7.72-4.3-.04-7.97,3.6-7.87,7.82.09,4.17,3.61,7.56,7.8,7.54Z"/>
    <path class="cls-1" d="m1095.93,750.47c.71-1.21,1.34-2.28,2.14-3.62,1.99.96,3.88,1.82,5.73,2.76,13.42,6.8,26.85,13.58,40.22,20.47,1.98,1.02,3.42.84,5.23-.33,8.98-5.82,18.07-11.48,27.06-17.3,1.75-1.13,3.23-1.45,5.29-.74,8.49,2.97,17.04,5.78,25.6,8.54,1.95.63,2.87,1.61,3.21,3.68,1.01,6.04,2.35,12.03,3.39,18.06.32,1.83.97,2.74,2.88,3.14,6.42,1.32,12.81,2.8,19.18,4.31,2.12.5,3.12-.06,3.95-2.22,2.66-6.95,9.76-10.57,16.67-8.82,7.4,1.87,11.63,8.1,10.88,16.03-.61,6.48-6.66,11.98-13.67,12.44-5.6.36-11.69-3.41-13.71-9.03-.92-2.55-2.3-3.58-4.84-4.08-7.26-1.42-14.46-3.16-21.71-4.64-2.31-.47-3.33-1.52-3.68-3.93-.87-5.85-2.15-11.64-3.16-17.47-.38-2.22-1.42-3.42-3.66-4.12-6.97-2.16-13.82-4.69-20.81-6.79-1.46-.44-3.6-.17-4.9.63-9.39,5.77-18.67,11.73-27.93,17.7-1.58,1.02-2.87,1.27-4.65.36-15.56-7.97-31.16-15.84-46.74-23.76-.64-.32-1.21-.77-1.98-1.27Zm157.3,55.31c7.17,0,13.29-6.1,13.43-13.42.15-7.21-5.93-13.19-13.43-13.23-7.58-.03-13.64,5.97-13.56,13.44.08,7.3,6.14,13.21,13.56,13.21Z"/>
    <path class="cls-1" d="m1000.02,242.99c0,4.77-.3,9.85.07,14.89.64,8.8-1.34,16.68-5.41,24.61-8.41,16.38-15.97,33.19-23.89,49.82-.4.85-.88,1.67-1.48,2.81-1.29-.62-2.47-1.19-3.97-1.91,3.36-7.07,6.61-13.92,9.88-20.77,6.33-13.28,12.7-26.55,18.95-39.87.73-1.56,1.14-3.42,1.17-5.15.12-7.74,0-15.47.09-23.21.02-1.99-.52-3.22-2.29-4.37-5.49-3.58-7.56-10.33-5.38-16.51,2.04-5.78,8.03-9.75,14.1-9.34,6.3.42,11.73,4.96,12.98,10.84,1.41,6.61-1.3,12.87-7.18,15.81-2.21,1.11-4.78,1.51-7.63,2.37Zm8.7-14.7c.07-4.22-3.32-7.76-7.53-7.86-4.07-.1-7.8,3.47-7.9,7.57-.1,4.12,3.4,7.71,7.62,7.8,4.27.1,7.74-3.25,7.81-7.51Z"/>
    <path class="cls-1" d="m976.39,978.73c6.21-2.61,11.89-2.53,16.9,1.94,5.43,4.85,6.15,13.26,1.76,19.03-4.31,5.67-12.44,7.23-18.56,3.58-6.25-3.74-8.76-11.7-5.41-18.28,1.15-2.25.93-3.68-.45-5.63-4.71-6.66-9.28-13.43-13.76-20.25-.63-.96-.99-2.68-.57-3.66,5.51-13.07,11.18-26.08,16.83-39.09.16-.37.47-.68.85-1.21,1.37.6,2.69,1.18,4.31,1.89-.92,2.22-1.73,4.26-2.6,6.27-4.45,10.31-8.95,20.59-13.32,30.93-.46,1.08-.61,2.83-.04,3.71,4.51,6.92,9.23,13.7,14.06,20.77Zm7.24,20.01c4.37.06,7.7-3.16,7.75-7.5.05-4.28-3.28-7.75-7.51-7.84-4.15-.09-7.76,3.41-7.82,7.59-.07,4.22,3.34,7.69,7.58,7.75Z"/>
    <path class="cls-1" d="m1109.31,489.6c-.75-1.53-1.42-2.91-2.23-4.55,7.15-4.77,14.13-9.55,21.24-14.11,2.51-1.61,3.72-3.28,3.86-6.52.45-10.68,1.51-21.34,2.15-32.01.1-1.64-.54-3.47-1.29-4.99-2.61-5.31-2.62-10.46.78-15.34,3.35-4.81,8.21-6.69,13.88-5.75,5.85.97,9.69,4.58,11.3,10.32,2.82,10.02-5.63,19.01-16.36,17.49-.92-.13-1.83-.36-3.22-.65-.35,4.53-.72,8.91-1.01,13.28-.5,7.4-.91,14.8-1.49,22.19-.09,1.13-.63,2.64-1.47,3.22-7.68,5.29-15.47,10.41-23.23,15.57-.88.58-1.77,1.13-2.9,1.85Zm43.74-69.38c-.01-4.16-3.57-7.7-7.73-7.69-4.18,0-7.62,3.52-7.61,7.75.02,4.3,3.4,7.69,7.67,7.66,4.22-.03,7.68-3.52,7.67-7.72Z"/>
    <path class="cls-1" d="m1057.13,800.49c1.32-1.4,2.31-2.46,3.51-3.74,5.1,4.78,10.51,8.99,14.83,14.13,5.38,6.39,11.51,8.57,19.4,6.3,5.26-1.52,9.59.07,14.19,2.97,24.44,15.44,49.1,30.55,73.68,45.77,1.15.71,2.28,1.47,3.64,2.34-.89,1.44-1.64,2.67-2.58,4.2-1.08-.61-2.07-1.12-3.02-1.71-25.49-15.77-50.99-31.53-76.42-47.39-2.24-1.4-4.37-1.84-6.88-1.49-4.4.61-8.82,1.18-13.24,1.62-1.06.11-2.52,0-3.22-.64-7.95-7.3-15.78-14.73-23.89-22.35Z"/>
    <path class="cls-1" d="m1137.57,796.47c-1.26-.19-2.27-.1-3.04-.48-16.76-8.4-33.5-16.86-50.24-25.31-.45-.23-.84-.56-1.4-.95.92-1.33,1.75-2.54,2.83-4.1,17.21,8.67,34.38,17.32,51.54,25.97,5.4-9.87,11.34-13.08,19.08-10.41,6.3,2.17,10.43,9.13,9.29,15.65-1.21,6.91-7.13,11.95-14.06,11.96-7.09,0-12.73-5.07-14-12.33Zm13.96,5.75c4.18.04,7.79-3.45,7.81-7.59.03-4.11-3.55-7.76-7.67-7.83-4.07-.07-7.7,3.53-7.75,7.7-.06,4.25,3.32,7.68,7.61,7.73Z"/>
    <path class="cls-1" d="m1132.08,651.97c-.1-4.71-.09-4.82,3.91-4.61,22.52,1.19,45.04,2.27,67.54,3.76,5.77.38,10.18-.52,14.18-5.18,5.23-6.09,11.22-11.55,17.01-17.15,1.81-1.75,2.36-3.02,1.07-5.59-3.8-7.6.11-16.65,8.06-19.53,7.83-2.84,16.46,1.46,18.64,9.53,1.44,5.36.36,10.33-3.73,14.32-4.11,4-9.18,4.89-14.42,3.19-2.67-.87-4.13-.4-5.98,1.51-7.31,7.53-14.74,14.94-22.27,22.24-1.12,1.09-3.11,1.91-4.65,1.84-25.7-1.2-51.39-2.57-77.08-3.91-.72-.04-1.43-.26-2.27-.42Zm116.65-21.26c7.01.03,13.61-6.5,13.55-13.4-.06-7.09-6.37-13.55-13.36-13.68-7.1-.14-13.75,6.48-13.69,13.6.06,7.01,6.51,13.46,13.5,13.49Z"/>
    <path class="cls-1" d="m1126.45,676.97c.43-1.76.78-3.16,1.23-4.96,41.68,5.92,83.22,11.81,124.69,17.69.12,4.91-.24,5.18-4.49,4.57-23.47-3.36-46.94-6.69-70.41-10.03-16.86-2.4-33.71-4.81-51.02-7.28Z"/>
    <path class="cls-1" d="m1125.88,532.69c-1.85-3.88-1.85-3.89,1.83-5.51,27.03-11.88,54.06-23.79,81.12-35.6,2.27-.99,3.36-1.89,3.12-4.78-.51-6.16,4.1-12.18,9.96-13.98,6.39-1.97,13.12.49,16.6,6.06,3.43,5.49,2.77,12.51-1.63,17.35-4.33,4.77-11.63,6.47-17.07,2.94-5.67-3.67-10.46-3.19-16.42-.46-24.84,11.34-49.92,22.14-74.92,33.12-.84.37-1.74.59-2.57.87Zm96.04-38.66l-.1-.08c-.08,1.02-.38,2.08-.17,3.04.2.91.89,2.4,1.42,2.42,2.61.12,5.41.38,7.82-.39,6.69-2.15,10.14-9.27,8.25-16.12-1.82-6.61-8.57-10.91-15.14-9.66-6.9,1.32-11.79,7.64-10.99,14.51.14,1.19.96,2.72,1.94,3.3,2.16,1.27,4.62,2.02,6.96,2.98Z"/>
    <path class="cls-1" d="m861.38,388.62c4.54.11,6.92,1.01,8.5,4.63,8.8,20.19,17.94,40.23,26.95,60.32.97,2.17-1.61,6.88-3.9,6.75-.81-.05-1.82-1.3-2.25-2.23-3.31-7.1-6.54-14.24-9.74-21.4-6.6-14.8-13.16-29.61-19.72-44.43-.71-1.6-2.02-3.53.15-3.64Z"/>
    <path class="cls-1" d="m262.64,671.42c-17.38,2.82-34.1,5.53-50.83,8.24-.1-.2-.21-.39-.31-.59,11.75-8.8,23.49-17.6,35.51-26.61,5.08,6.16,10.09,12.23,15.63,18.95Z"/>
    <path class="cls-1" d="m988.59,935.34c1.24-1.09,2.41-2.11,3.76-3.3,5.41,6.3,10.65,12.39,15.89,18.49,2.49,2.9,5.14,5.67,7.38,8.74,1.66,2.28,3.59,2.81,6.23,2.76,19.82-.37,39.64-.63,59.45-.92.42,0,.84,0,1.22,0,2.16,3.7,1.5,5.04-2.37,5.09-20.46.26-40.91.51-61.37.86-2.35.04-3.88-.68-5.39-2.48-7.63-9.09-15.41-18.06-23.13-27.08-.54-.64-1.03-1.33-1.67-2.17Z"/>
    <path class="cls-1" d="m955.48,302.47c-1.79-.3-3.22-.53-4.96-.82.52-4.6.99-8.99,1.52-13.38,2.86-23.32,5.7-46.65,8.65-69.96.27-2.15-.72-2.92-2.28-3.9-5.02-3.16-7.5-7.9-6.79-13.73.73-6.02,4.14-10.35,10.14-12.2,8.01-2.48,15.99,2.17,18.09,10.48,1.95,7.7-3.07,15.8-10.96,17.2-2.38.42-3.12,1.44-3.38,3.62-1.95,16.5-3.98,33-5.99,49.49-1.33,10.91-2.65,21.83-4.04,33.21Zm23.71-100.16c.03-6.37-3.94-11.61-9.9-13.08-6.05-1.49-12.44,1.25-15.13,6.49-3.01,5.85-1.8,12.59,3.12,16.71,1.08.91,1.95,2.21,4.01.69,1-.74,3.52.52,5.34.95,1.03.24,2.13,1.09,3.01.88,5.78-1.42,9.54-6.52,9.57-12.64Z"/>
    <path class="cls-1" d="m1009.2,905.28c-6.76-10.31-13.39-20.52-20.17-30.64-1.3-1.93-1.35-3.39-.23-5.4,3.23-5.83,6.29-11.77,9.28-17.73.72-1.44.93-3.14,1.58-5.48.49-.28,1.74-1.01,2.98-1.73,2.56,2.5,2.85,4.83,1.03,7.92-3.22,5.47-5.89,11.25-8.96,16.82-1.05,1.9-1.05,3.27.21,5.14,5.8,8.61,11.42,17.34,17.1,26.03.61.94,1.11,1.94,1.68,2.95,8.9-1.22,15.47,2.17,17.86,9.27,2.23,6.64-.48,13.85-6.47,17.24-5.97,3.38-13.83,1.95-18.13-3.3-5.04-6.16-4.37-13.09,2.23-21.11Zm8.94-1.4c-7.89-.03-13.42,5.48-13.42,13.34,0,7.44,5.86,13.3,13.3,13.31,7.46,0,13.34-5.85,13.35-13.28.01-7.46-5.81-13.34-13.24-13.37Z"/>
    <path class="cls-1" d="m1283.49,521.96c-.3-2.7-1.09-5.46-.81-8.1.77-7.09,6.25-12.02,13.09-12.33,7.11-.33,12.86,3.89,14.55,10.67,1.63,6.54-1.51,13.27-7.54,16.17-6.28,3.01-13.59,1.1-17.8-4.63-.48-.66-1.06-1.25-1.59-1.87,0,0,.1.11.1.11Zm13.27,1.31c4.16-.07,7.68-3.7,7.58-7.82-.1-4.22-3.61-7.58-7.86-7.52-4.27.07-7.62,3.53-7.54,7.79.07,4.22,3.59,7.61,7.82,7.54Z"/>
    <path class="cls-1" d="m1097.57,467.22c-.97-1.61-1.72-2.86-2.61-4.35,2.19-1.64,4.35-3.13,6.36-4.81.83-.69,1.83-1.71,1.93-2.67.8-7.68,1.4-15.38,2.05-23.07.03-.37-.09-.76-.2-1.65-7.3,5.13-14.26,10.02-21.42,15.05-1-1.37-1.85-2.54-3.01-4.13,10.19-7.2,20.23-14.31,30.82-21.79-.47,5.75-.88,10.92-1.32,16.09-.56,6.53-1.24,13.06-1.7,19.6-.19,2.7-.82,4.82-3.36,6.31-2.53,1.49-4.8,3.42-7.53,5.42Z"/>
    <path class="cls-1" d="m1158.48,720.19c-1.71.71-2.96,1.24-4.65,1.94-1.57-3.81-3.52-7.36-4.5-11.16-1.63-6.3-5.04-9.4-11.76-9.81-5.65-.34-11.22-2.01-16.82-3.1-.09-.02-.17-.12-.47-.35.44-1.39.9-2.87,1.44-4.58,7.56,1.4,14.87,3.1,22.28,4.02,4.55.56,6.66,2.65,8.01,6.84,1.74,5.41,4.19,10.59,6.47,16.19Z"/>
    <path class="cls-1" d="m1037.13,819.22c1.34-1.17,2.44-2.12,3.88-3.37,6.42,7.02,12.79,13.97,19.37,21.16-1.34,1.21-2.48,2.24-3.81,3.44-6.48-7.07-12.82-13.99-19.44-21.22Z"/>
    <path class="cls-1" d="m476.07,398.26c-5.36,2.23-10.72,4.47-16.09,6.66-1.75.71-2.81.22-3.11-1.82-.24-1.64-.76-3.25-1.25-5.27h20.35c.03.14.06.28.1.42Z"/>
    <path d="m755.4,899.86c-41.47,1.69-76.5-31.08-77.53-73.4-.99-40.82,30.74-74.84,72.55-76.54,40.11-1.63,75.55,31.09,77.34,70.84,1.9,42.18-30.94,78.39-72.36,79.09Zm-57.66-72.85c.35,27.94,24.49,54.71,57.8,53.02,29.66-1.51,54.49-25.2,52.86-61.33-1.44-31.94-32.72-50.58-59.21-48.91-26.02,1.64-55.44,23.85-51.45,57.23Z"/>
    <path d="m953.77,567.29c-26.51.1-47.51-20.7-47.65-47.19-.14-26.34,21.52-47.82,48.32-47.9,25.54-.08,46.94,21.69,46.96,47.78.02,26.23-21.11,47.22-47.63,47.31Zm33.22-48.84c.85-18.64-17.03-31.62-33.02-31.57-17.68.06-32.92,14.01-33.28,30.21-.5,22.26,15.81,35.77,33.13,35.87,18.7.11,33.11-14.93,33.18-34.51Z"/>
    <path d="m854.02,235.36c-.07,21.1-17.18,37.94-38.45,37.86-21.07-.08-38.1-17.63-38.03-39.2.07-20.64,17.7-37.93,38.47-37.74,21.38.2,38.08,17.36,38.01,39.07Zm-38.36,23.77c13.74.04,24.86-10.9,24.86-24.45,0-13.42-11.03-24.55-24.42-24.62-13.58-.08-24.93,10.78-25.06,23.97-.14,13.79,10.93,25.07,24.62,25.1Z"/>
    <path d="m376.37,450.85c-16.97-.03-29.83-13.19-29.79-30.47.04-16.17,13.66-29.53,30.02-29.45,16.45.08,29.75,13.57,29.84,30.07.08,14.34-11.58,30.57-30.07,29.86Zm0-48.79c-10.48.01-19.04,8.41-18.99,18.62.05,10.78,8.48,19.24,19.13,19.23,10.5-.02,19-8.54,18.96-19.04-.03-10.51-8.47-18.82-19.11-18.81Z"/>
    <path d="m368.05,602.93c-8.91-.06-16.23-7.46-16.1-16.27.14-8.91,7.57-16.23,16.34-16.1,8.95.13,16.08,7.42,16,16.35-.09,9.04-7.22,16.08-16.24,16.02Zm.1-5.66c5.99.01,10.79-4.76,10.7-10.63-.08-5.58-5.07-10.52-10.65-10.55-5.74-.03-10.71,5.02-10.63,10.82.07,5.84,4.67,10.34,10.58,10.35Z"/>
    <path d="m1274.87,455.17c-4.16-.01-7.7-3.5-7.75-7.61-.05-4.22,3.66-7.82,7.95-7.73,4.16.09,7.68,3.7,7.6,7.78-.08,4.14-3.63,7.58-7.8,7.56Z"/>
    <path d="m1075.83,220.95c-.08-4.24,3.31-7.77,7.53-7.84,4.2-.07,7.8,3.36,7.89,7.53.09,4.09-3.48,7.79-7.58,7.87-4.18.08-7.76-3.38-7.84-7.57Z"/>
    <path d="m1148.14,929.36c-4.18-.06-7.72-3.62-7.64-7.69.08-4.11,3.68-7.65,7.77-7.64,4.12.01,7.72,3.55,7.77,7.62.05,4.28-3.53,7.78-7.9,7.72Z"/>
    <path d="m1204.35,389.61c-4.19.05-7.82-3.41-7.88-7.53-.07-4.11,3.49-7.75,7.64-7.81,4.15-.06,7.83,3.46,7.9,7.57.08,4.13-3.45,7.71-7.66,7.76Z"/>
    <path d="m1136.28,251.65c4.05.1,7.67,3.82,7.64,7.83-.03,4.13-4,7.92-8.07,7.71-4.06-.21-7.67-4.07-7.48-7.98.2-4.11,3.92-7.67,7.91-7.56Z"/>
    <path d="m1275.25,567.55c-.04,4.12-3.58,7.67-7.69,7.71-4.18.04-7.72-3.67-7.64-8,.07-4.12,3.74-7.68,7.77-7.55,4.13.14,7.59,3.72,7.56,7.84Z"/>
    <path d="m1254.89,743.74c.02,4.2-3.49,7.82-7.58,7.82-4.12,0-7.73-3.6-7.75-7.74-.02-4.15,3.51-7.76,7.66-7.82,4.08-.06,7.66,3.54,7.67,7.73Z"/>
    <path d="m1080.49,293.27c0,4.2-3.49,7.77-7.62,7.8-4.11.02-7.7-3.58-7.72-7.74-.02-4.26,3.36-7.65,7.65-7.68,4.27-.03,7.68,3.35,7.68,7.63Z"/>
    <path d="m1096.06,924.98c-4.19.03-7.71-3.37-7.8-7.54-.1-4.22,3.57-7.86,7.87-7.82,4.11.04,7.66,3.61,7.68,7.72.02,4.04-3.61,7.61-7.74,7.63Z"/>
    <path d="m1253.23,805.77c-7.42,0-13.48-5.91-13.56-13.21-.08-7.47,5.98-13.47,13.56-13.44,7.51.03,13.58,6.01,13.43,13.23-.15,7.32-6.26,13.43-13.43,13.42Zm-.1-21.64c-4.8-.02-8.52,3.67-8.45,8.39.06,4.28,4.12,8.23,8.48,8.26,4.48.03,8.3-3.74,8.37-8.25.07-4.78-3.53-8.38-8.4-8.41Z"/>
    <path d="m1008.72,228.29c-.07,4.27-3.54,7.61-7.81,7.51-4.22-.09-7.72-3.68-7.62-7.8.1-4.1,3.83-7.67,7.9-7.57,4.21.1,7.59,3.64,7.53,7.86Z"/>
    <path d="m983.63,998.74c-4.25-.05-7.65-3.53-7.58-7.75.06-4.17,3.67-7.67,7.82-7.59,4.24.09,7.56,3.55,7.51,7.84-.05,4.33-3.38,7.55-7.75,7.5Z"/>
    <path d="m1153.04,420.22c.02,4.2-3.45,7.69-7.67,7.72-4.26.03-7.65-3.35-7.67-7.66-.02-4.23,3.43-7.75,7.61-7.75,4.15,0,7.71,3.54,7.73,7.69Z"/>
    <path d="m1151.54,802.22c-4.29-.05-7.67-3.47-7.61-7.73.06-4.16,3.69-7.76,7.75-7.7,4.11.07,7.69,3.73,7.67,7.83-.03,4.14-3.63,7.63-7.81,7.59Z"/>
    <path class="cls-1" d="m1248.73,630.7c-6.99-.03-13.43-6.47-13.5-13.49-.06-7.12,6.59-13.74,13.69-13.6,6.99.14,13.29,6.59,13.36,13.68.06,6.91-6.54,13.44-13.55,13.4Zm8.47-13.54c0-4.66-3.83-8.46-8.57-8.48-4.31-.02-8.34,4.06-8.35,8.44,0,4.47,4.2,8.61,8.64,8.51,4.48-.1,8.27-3.98,8.28-8.47Z"/>
    <path class="cls-1" d="m1221.92,494.03c-2.34-.96-4.8-1.72-6.96-2.98-.98-.57-1.8-2.11-1.94-3.3-.8-6.87,4.09-13.19,10.99-14.51,6.57-1.25,13.32,3.05,15.14,9.66,1.88,6.84-1.57,13.97-8.25,16.12-2.42.78-5.22.52-7.82.39-.53-.03-1.23-1.52-1.42-2.42-.21-.96.09-2.02.17-3.04,1.56.25,3.11.7,4.67.7,5.39.02,8.55-3.77,8.05-9.46-.39-4.43-5.15-7.89-9.63-6.99-5.01,1-8.21,5.71-6.63,10.41.67,1.99,2.4,3.63,3.65,5.43Z"/>
    <path class="cls-1" d="m979.2,202.3c-.03,6.12-3.79,11.22-9.57,12.64-.88.21-1.98-.63-3.01-.88-1.82-.43-4.34-1.69-5.34-.95-2.05,1.52-2.93.22-4.01-.69-4.91-4.12-6.13-10.87-3.12-16.71,2.7-5.24,9.08-7.97,15.13-6.49,5.97,1.47,9.93,6.7,9.9,13.08Zm-4.97,0c.05-4.49-4.03-8.67-8.42-8.6-4.3.07-8.25,4.12-8.25,8.46,0,4.66,3.54,8.38,8.12,8.53,4.61.16,8.5-3.66,8.56-8.39Z"/>
    <path class="cls-1" d="m1018.14,903.88c7.42.03,13.25,5.91,13.24,13.37-.01,7.44-5.9,13.29-13.35,13.28-7.43,0-13.29-5.87-13.3-13.31,0-7.87,5.53-13.37,13.42-13.34Zm-8.41,13.23c-.04,4.77,3.64,8.49,8.37,8.45,4.57-.04,8.27-3.75,8.3-8.32.03-4.6-3.58-8.3-8.15-8.35-5.02-.05-8.48,3.28-8.52,8.22Z"/>
    <path d="m1296.76,523.27c-4.23.07-7.75-3.32-7.82-7.54-.07-4.26,3.28-7.72,7.54-7.79,4.24-.07,7.76,3.29,7.86,7.52.1,4.13-3.42,7.76-7.58,7.82Z"/>
    <path class="cls-1" d="m697.73,827.01c-4-33.37,25.43-55.59,51.45-57.23,26.49-1.67,57.77,16.97,59.21,48.91,1.63,36.13-23.2,59.83-52.86,61.33-33.32,1.69-57.45-25.08-57.8-53.02Z"/>
    <path class="cls-1" d="m987,518.44c-.06,19.58-14.48,34.62-33.18,34.51-17.31-.11-33.63-13.61-33.13-35.87.36-16.2,15.6-30.15,33.28-30.21,15.99-.05,33.87,12.93,33.02,31.57Z"/>
    <path class="cls-1" d="m815.66,259.13c-13.69-.03-24.75-11.32-24.62-25.1.13-13.2,11.48-24.05,25.06-23.97,13.4.08,24.43,11.2,24.42,24.62,0,13.56-11.12,24.49-24.86,24.45Z"/>
    <path class="cls-1" d="m376.38,402.05c10.64-.01,19.07,8.29,19.11,18.81.03,10.49-8.46,19.02-18.96,19.04-10.65.02-19.08-8.45-19.13-19.23-.05-10.21,8.51-18.6,18.99-18.62Z"/>
    <path class="cls-1" d="m368.14,597.27c-5.91-.01-10.5-4.51-10.58-10.35-.07-5.81,4.89-10.86,10.63-10.82,5.58.03,10.57,4.97,10.65,10.55.09,5.87-4.72,10.64-10.7,10.63Z"/>
    <path d="m198.13,452.21c-8.91-.06-16.23-7.46-16.1-16.27.14-8.91,7.57-16.23,16.34-16.1,8.95.13,16.08,7.42,16,16.35-.09,9.04-7.22,16.08-16.24,16.02Zm.1-5.66c5.99.01,10.79-4.76,10.7-10.63-.08-5.58-5.07-10.52-10.65-10.55-5.74-.03-10.71,5.02-10.63,10.82.07,5.84,4.67,10.34,10.58,10.35Z"/>
    <path class="cls-1" d="m198.22,446.55c-5.91-.01-10.5-4.51-10.58-10.35-.07-5.81,4.89-10.86,10.63-10.82,5.58.03,10.57,4.97,10.65,10.55.09,5.87-4.72,10.64-10.7,10.63Z"/>
    <path class="cls-1" d="m1253.14,784.13c4.87.02,8.47,3.63,8.4,8.41-.07,4.51-3.89,8.28-8.37,8.25-4.36-.03-8.42-3.98-8.48-8.26-.07-4.72,3.65-8.42,8.45-8.39Zm-.12,15.59c4.18.06,7.62-3.16,7.7-7.19.08-3.94-3.39-7.53-7.38-7.67-3.96-.14-7.51,3.29-7.6,7.34-.1,4.16,3.1,7.46,7.28,7.52Z"/>
    <path class="cls-1" d="m1257.19,617.17c0,4.49-3.8,8.37-8.28,8.47-4.44.1-8.65-4.04-8.64-8.51,0-4.38,4.04-8.46,8.35-8.44,4.74.02,8.57,3.82,8.57,8.48Zm-.92.28c.16-3.91-3.3-7.62-7.24-7.79-3.97-.16-7.58,3.21-7.74,7.23-.16,4.01,3.17,7.6,7.19,7.75,3.99.15,7.64-3.21,7.8-7.19Z"/>
    <path class="cls-1" d="m1221.92,494.03c-1.25-1.8-2.98-3.44-3.65-5.43-1.58-4.7,1.62-9.41,6.63-10.41,4.49-.89,9.24,2.56,9.63,6.99.5,5.7-2.65,9.48-8.05,9.46-1.56,0-3.12-.46-4.67-.7,0,0,.1.09.1.09Zm4.31-14.94c-4.17.02-7.29,3.25-7.25,7.51.04,4.13,3.46,7.57,7.44,7.48,3.93-.09,7.5-3.77,7.42-7.66-.09-4.09-3.47-7.35-7.6-7.33Z"/>
    <path class="cls-1" d="m974.22,202.3c-.06,4.73-3.95,8.55-8.56,8.39-4.58-.15-8.11-3.87-8.12-8.53,0-4.34,3.95-8.4,8.25-8.46,4.39-.07,8.48,4.11,8.42,8.6Zm-8.47,7.36c4.03.07,7.56-3.29,7.68-7.31.12-3.92-3.4-7.59-7.35-7.68-4.04-.09-7.53,3.29-7.59,7.36-.06,4.15,3.19,7.56,7.26,7.63Z"/>
    <path class="cls-1" d="m1009.73,917.11c.04-4.94,3.5-8.27,8.52-8.22,4.57.05,8.18,3.75,8.15,8.35-.03,4.57-3.73,8.28-8.3,8.32-4.73.04-8.41-3.68-8.37-8.45Zm8.11,7.36c4.37.04,7.45-2.97,7.47-7.29.02-4.14-3.37-7.62-7.37-7.55-3.95.06-7.51,3.69-7.47,7.62.04,3.93,3.37,7.19,7.37,7.22Z"/>
    <path d="m1253.02,799.72c-4.18-.06-7.38-3.36-7.28-7.52.09-4.05,3.65-7.48,7.6-7.34,4,.14,7.46,3.73,7.38,7.67-.08,4.03-3.53,7.25-7.7,7.19Z"/>
    <path d="m1256.27,617.45c-.16,3.98-3.81,7.34-7.8,7.19-4.02-.15-7.35-3.74-7.19-7.75.16-4.02,3.77-7.39,7.74-7.23,3.94.16,7.4,3.88,7.24,7.79Z"/>
    <path d="m1226.23,479.1c4.13-.02,7.52,3.25,7.6,7.33.08,3.88-3.49,7.57-7.42,7.66-3.98.09-7.4-3.35-7.44-7.48-.04-4.27,3.08-7.5,7.25-7.51Z"/>
    <path d="m965.75,209.66c-4.08-.07-7.33-3.49-7.26-7.63.06-4.07,3.55-7.45,7.59-7.36,3.96.09,7.47,3.76,7.35,7.68-.12,4.01-3.65,7.37-7.68,7.31Z"/>
    <path d="m1017.84,924.47c-4-.03-7.33-3.3-7.37-7.22-.04-3.93,3.52-7.56,7.47-7.62,4-.06,7.39,3.42,7.37,7.55-.02,4.32-3.1,7.33-7.47,7.29Z"/>
  </g>
</svg>