<?xml version="1.0" encoding="UTF-8"?>
<svg id="Layer_2" data-name="Layer 2" xmlns="http://www.w3.org/2000/svg" width="1749.6" height="466.56" viewBox="0 0 1749.6 466.56">
  <defs>
    <style>
      .cls-1 {
        fill: #fff;
      }
    </style>
  </defs>
  <g>
    <path class="cls-1" d="m563.78,311.12v-157.68h86.75c31.92,0,57.77,23.55,57.77,52.53,0,9.66-12.88,17.57-28.89,17.57v8.74c16.01,0,28.89,11.78,28.89,26.31v52.53h-43.33v-39.47c0-7.18-6.44-13.06-14.44-13.06h-43.42v52.53h-43.33Zm86.75-92c8,0,14.44-5.89,14.44-13.16s-6.44-13.06-14.44-13.16h-43.42v26.31h43.42Z"/>
    <path class="cls-1" d="m780.63,311.12c-31.92,0-57.87-23.55-57.87-52.53v-52.62c0-28.98,25.94-52.53,57.87-52.53h28.89c31.92,0,57.77,23.55,57.77,52.53v52.62c0,28.98-25.85,52.53-57.77,52.53h-28.89Zm28.89-39.47c8,0,14.44-5.89,14.44-13.06v-52.62c0-7.27-6.44-13.06-14.44-13.16h-28.89c-8,.09-14.44,5.89-14.54,13.16v52.62c.09,7.18,6.53,13.06,14.54,13.06h28.89Z"/>
    <path class="cls-1" d="m881.74,311.12v-157.68h86.75c31.92,0,57.77,23.55,57.77,52.53,0,9.75-11.59,18.21-28.89,22.81v6.99c17.3,4.6,28.89,13.06,28.89,22.81,0,28.98-25.85,52.53-57.77,52.53h-86.75Zm86.75-92c8,0,14.44-5.89,14.44-13.16s-6.44-13.16-14.44-13.16h-43.42v26.31h43.42Zm0,52.53c8,0,14.44-5.89,14.44-13.06s-6.44-13.16-14.44-13.16h-43.42v26.22h43.42Z"/>
    <path class="cls-1" d="m1098.58,311.12c-31.92,0-57.87-23.55-57.87-52.53v-52.62c0-28.98,25.94-52.53,57.87-52.53h28.89c31.92,0,57.77,23.55,57.77,52.53v52.62c0,28.98-25.85,52.53-57.77,52.53h-28.89Zm28.89-39.47c8,0,14.44-5.89,14.44-13.06v-52.62c0-7.27-6.44-13.06-14.44-13.16h-28.89c-8,.09-14.44,5.89-14.54,13.16v52.62c.09,7.18,6.53,13.06,14.54,13.06h28.89Z"/>
    <path class="cls-1" d="m1199.69,311.12v-157.68h57.87l57.77,105.15v-105.15h43.42v157.68h-57.87l-57.86-105.15v105.15h-43.33Z"/>
    <path class="cls-1" d="m1387.55,311.12v-39.47h72.31c8,0,14.44-5.89,14.44-13.06v-26.31h-9.66c0,14.54-8.65,26.31-19.23,26.31h-14.44c-31.92,0-57.87-23.55-57.87-52.62v-52.53h43.33v52.53c.09,7.27,6.53,13.16,14.54,13.16h14.44c16.01,0,28.89-5.89,28.89-13.16v-52.53h43.33v105.15c0,28.98-25.85,52.53-57.77,52.53h-72.31Z"/>
    <path class="cls-1" d="m1532.08,311.12v-52.53c0-14.54,12.88-26.31,28.89-26.31v-8.74c-15.92,0-28.89-7.91-28.89-17.57v-52.53h43.33v52.53c0,7.27,6.53,13.16,14.54,13.16h43.33c8,0,14.44-5.89,14.44-13.16v-52.53h43.42v52.53c0,9.66-12.97,17.57-28.98,17.57v8.74c16.01,0,28.98,11.78,28.98,26.31v52.53h-43.42v-39.47c0-7.18-6.44-13.06-14.44-13.06h-43.33c-8,0-14.54,5.89-14.54,13.06v39.47h-43.33Z"/>
  </g>
  <g>
    <path d="m294.38,129.61c-3.71,1.37-7.29,2.7-10.88,4.03-37.64,14-75.27,28-112.91,41.98-.87.32-1.43.79-1.88,1.64-3.34,6.34-8.31,10.98-14.85,13.9-.75.34-1.16.69-1.27,1.6-1.04,8.12-2.17,16.23-3.22,24.35-.09.69.07,1.52.4,2.14,4.6,8.84-1.62,19.16-11.57,19.21-.74,0-1.58.24-2.21.64-10.44,6.52-20.87,13.06-31.26,19.65-1.83,1.16-3.88,1.16-5.85,1.48-10.44,1.7-20.9,3.32-31.35,4.97-.39.06-.78.1-1.28-.04,1.35-1.03,2.68-2.09,4.06-3.08,13.38-9.6,26.76-19.2,40.16-28.78,4.71-3.37,9.46-6.7,14.16-10.1.53-.38.88-1.06,1.22-1.65.28-.48.33-1.1.64-1.54,1.16-1.62,1.25-3.37,1.09-5.31-.68-7.96-1.22-15.94-1.79-23.91-.06-.9-.37-1.5-1.19-2.01-4.09-2.59-7.35-6.01-9.77-10.21-.49-.85-1.05-1.1-1.99-1.12-9.27-.16-18.54-.37-27.81-.57-.23,0-.59-.07-.68.05-1.07,1.48-2.94,2.14-3.74,3.94-10.36,23.4-20.75,46.79-31.14,70.18-.14.32-.31.64-.62,1.27-.27-2.71-.53-5.1-.73-7.49-.61-7.25-1.2-14.49-1.79-21.74-.03-.38.04-.8.15-1.17,4.89-16.03,9.77-32.07,14.73-48.08.42-1.37.14-2.59.03-3.88-.93-10.11,9.21-17.33,18.43-13.05,1.15.53,2.16.56,3.31.36,9.45-1.6,18.9-3.19,28.35-4.75.75-.12,1.14-.45,1.46-1.17,4.85-11.1,13.29-17.54,25.29-19.13,4.44-.59,8.87-.08,13.12,1.41.79.28,1.41.21,2.15-.14,20.53-9.81,41.08-19.61,61.62-29.4,18.85-8.99,37.7-17.97,56.54-26.98.49-.23.95-.72,1.2-1.21,6.25-11.95,15.93-19.23,29.34-21.07,20.72-2.84,39.71,11.46,42.82,32.07,1.01,6.73.27,13.3-2.15,19.67-.2.52-.19,1.26.03,1.76,8.86,20.31,17.75,40.61,26.68,60.89.25.57.85,1.15,1.43,1.41,12.07,5.36,18.84,14.52,19.96,27.72.43,5.03-.53,9.87-2.53,14.49-10.88,25.22-21.78,50.43-32.64,75.66-.24.55-.27,1.34-.08,1.9,3.36,9.69,4.81,19.7,3.91,29.86-2.49,28.33-16.4,49.35-41.4,62.86-10.77,5.82-22.46,8.47-34.7,8.39-3.98-.03-7.96-.59-11.94-.86-.4-.03-.99.13-1.19.42-1.3,1.82-2.51,3.7-3.9,5.79,1.81.31,3.47.65,5.13.87,16.21,2.13,31.88.08,46.61-7.07,25.39-12.33,41.01-32.47,46.67-60.14.98-4.78,1.07-9.75,1.46-14.65.07-.91.32-1.38,1.12-1.83,21.03-11.92,35.49-29.3,43.21-52.23,3.66-10.88,5.11-22.11,4.44-33.54-1.31-22.56-9.72-42.14-25.15-58.67-5.57-5.97-11.89-11.03-18.81-15.35-.5-.31-.97-.84-1.21-1.38-6.56-14.91-13.1-29.83-19.6-44.76-.21-.49-.28-1.18-.13-1.68,6.16-19.72-1.34-40.56-18.67-51.8-.2-.13-.4-.26-.74-.48,1.27,0,2.38-.09,3.48.02,4.65.44,9.3.96,13.95,1.41.76.08,1.07.44,1.27,1.15.84,3,1.77,5.97,2.59,8.97.24.87.68,1.2,1.53,1.35,13.9,2.52,27.26,6.76,40.04,12.78,1.63.77,2.7.78,4.07-.44,2.06-1.83,4.35-3.39,6.51-5.1.54-.43.97-.46,1.59-.13,15.81,8.34,30.1,18.74,42.83,31.3.69.68.75,1.21.43,2.07-1.1,2.91-2.09,5.86-3.16,8.79-.22.62-.23,1.03.27,1.58,9.99,10.68,18.46,22.47,25.37,35.36.32.59.69.74,1.33.72,3.2-.11,6.39-.15,9.59-.28.81-.03,1.19.26,1.53.97,6.93,14.27,11.89,29.18,14.84,44.77.4,2.12.7,4.25,1.12,6.37.14.7-.05,1.08-.63,1.47-2.72,1.82-5.4,3.71-8.13,5.54-.57.38-.74.75-.67,1.46,1.09,9.87,1.45,19.77.68,29.68-.32,4.1-.78,8.19-1.22,12.28-.08.71.16,1.08.73,1.46,2.62,1.76,5.2,3.58,7.83,5.33.67.45.84.9.7,1.68-3.24,17.93-9.02,34.99-17.42,51.16-.49.94-1,1.34-2.1,1.27-3.11-.18-6.23-.21-9.35-.32-.67-.03-1.07.18-1.43.79-6.68,11.53-14.59,22.16-23.81,31.79-.6.63-.69,1.16-.38,1.99,1.12,2.95,2.12,5.94,3.2,8.9.22.6.18.99-.31,1.46-13.48,13-28.56,23.74-45.34,32.08-.77.38-1.25.33-1.92-.19-2.5-1.99-5.06-3.91-7.58-5.88-.52-.4-.93-.55-1.6-.25-11.75,5.25-23.95,9.06-36.59,11.51-.4.08-.89.63-1.02,1.06-.95,3.01-1.86,6.03-2.68,9.07-.24.88-.67,1.25-1.53,1.32-6.44.58-12.87,1.43-19.33,1.73-22.64,1.06-44.69-2.25-66.11-9.65-.86-.3-1.27-.12-1.73.61-1.26,1.99-2.59,3.94-3.93,5.88-.18.26-.67.56-.88.49-2.49-.92-4.96-1.92-7.6-2.96,9.07-13.24,18.03-26.32,27.14-39.63-10.94-1.41-20.36-5.78-28.22-13.26-7.88-7.49-12.81-16.64-14.73-27.6-16.3,11.59-32.47,23.09-48.7,34.63-12.98-14.35-23.82-30.01-32.07-47.55,3.69-1.32,7.29-2.61,10.9-3.9,15.07-5.38,30.14-10.77,45.23-16.11.89-.32,1.19-.9,1.47-1.68,8.1-23.29,23.7-39.31,46.72-48.08,5.43-2.07,11.08-3.31,16.86-4,.56-.07,1.18-.46,1.6-.88,10.74-10.7,21.45-21.42,32.17-32.14,4.38-4.38,8.76-8.78,13.17-13.14.54-.53.65-.94.34-1.64-8.94-20.36-17.87-40.73-26.8-61.09-.11-.25-.23-.5-.42-.89Zm189.02,71.41c-.41.03-.86-.04-1.23.09-8.82,3.04-17.65,6.1-26.45,9.2-.54.19-1.13.75-1.35,1.28-2.7,6.44-5.35,12.9-7.97,19.38-.34.84-.77,1.11-1.67,1.11-5.24-.04-10.47-.02-15.71-.02-.47,0-.94,0-1.47,0v1.83c.46.02.85.06,1.24.06,5.76,0,11.51-.02,17.27.02.89,0,1.31-.26,1.65-1.11,2.64-6.55,5.36-13.07,8.02-19.61.31-.76.72-1.21,1.53-1.48,6.46-2.2,12.9-4.45,19.34-6.69,2.36-.82,4.72-1.65,7.11-2.48-.13-.62-.23-1.12-.33-1.63.2.23.42.46.6.71,1.59,2.16,4.35,2.88,6.71,1.75,2.27-1.09,3.46-3.63,2.84-6.1-.64-2.56-2.8-4.15-5.49-4.02-2.58.12-4.65,1.98-4.94,4.65-.11,1,.19,2.04.31,3.06Zm-268.01,128.13c.2-.1.31-.13.41-.2,5.65-3.84,11.31-7.67,16.95-11.54.29-.2.52-.68.56-1.05.21-1.9.25-3.83.53-5.72,1.47-9.85,5.55-18.45,12.53-25.61.83-.85,1.74-1.61,2.61-2.42-17.51,22.47-12.56,50.33,2.4,65.5,7.95,8.06,17.61,12.81,28.83,14.05,14.23,1.57,26.89-2.53,38.16-11.3-1.13,1.39-2.31,2.72-3.6,3.92-7.75,7.24-16.98,11.22-27.48,12.28-.84.09-1.26.45-1.68,1.08-3.26,4.93-6.55,9.85-9.83,14.77-.21.32-.4.66-.61,1.02,22.11,3.31,52.54-6.17,68.72-34.85,15.73-27.87,10.04-63.24-13.36-84.74-23.79-21.86-58.98-24.78-85.71-6.89-27.79,18.61-34.42,49.85-29.43,71.68Zm70.28-90.24c23.71.97,42.85,11,57.91,29.26.35-.46.58-.72.78-1.01,3.83-5.66,7.66-11.33,11.49-17,6.73-9.98,13.46-19.96,20.2-29.94,1.92-2.84,3.8-5.67,5.2-8.85,1.97-4.5,3.03-9.11,2.51-13.98-1.75-16.22-19.1-26.37-34.2-20.06-3.8,1.59-6.82,4.19-9.69,7.09-10.89,11-21.88,21.91-32.84,32.84-.34.33-.78.56-1.28.9,1.34,1.33,2.39,2.41,3.5,3.43.25.23.72.28,1.1.29,2.4.02,4.8-.01,7.2,0,.65,0,1.06-.13,1.45-.74.72-1.12,2.19-1.23,3.14-.38.91.81.96,2.24.11,3.11-.89.92-2.33.93-3.15-.14-.44-.58-.9-.65-1.52-.64-2.6.01-5.2.03-7.8-.04-.53-.01-1.15-.29-1.54-.65-1.09-.98-2.09-2.07-2.97-2.96-1.79,1.78-3.47,3.46-5.22,5.2,1.68,2,3.44,4.13,5.24,6.21.22.26.68.42,1.04.43,3.51.17,7.03.31,10.54.4.38,0,.87-.27,1.15-.56.97-1.02,2.36-1.17,3.29-.26.86.84.85,2.29,0,3.13-.96.93-2.32.78-3.29-.26-.33-.35-.88-.66-1.35-.69-3.35-.19-6.71-.32-10.06-.42-1.1-.03-1.92-.33-2.64-1.27-1.56-2.05-3.28-3.99-4.86-5.89-4.52,4.52-8.95,8.95-13.44,13.44Zm21.36-115.12c16.22.25,31.05-12.85,31.24-31,.18-17.16-13.81-31.11-30.66-31.36-16.76-.25-31.6,13.08-31.78,30.75-.18,17.66,13.73,31.62,31.2,31.62Zm-76.89-19.23c-21.08,10.07-41.94,20.03-62.9,30.05,3.09,3.18,6.02,6.24,9.01,9.24.25.25.97.26,1.35.11,2.37-.96,4.7-2.01,7.05-3.02,9.35-4.05,18.71-8.08,28.05-12.16.86-.38,1.48-.27,2.16.33,1.12.97,2.35,1.81,3.44,2.8.76.69,1.39.73,2.34.32,15.78-6.91,31.58-13.77,47.37-20.65,1.49-.65,2.97-1.32,4.56-2.02-3.65-7.54-4.44-15.37-3.11-23.72-6.8,3.24-13.33,6.35-20.01,9.53.91,2.21,1.79,4.34,2.65,6.48.3.75.6,1.36,1.55,1.61,1.14.3,1.61,1.66,1.18,2.76-.46,1.16-1.67,1.72-2.84,1.29-1.11-.41-1.93-1.76-1.3-2.69.85-1.24.26-2.18-.13-3.22-.71-1.88-1.46-3.75-2.23-5.7-3,1.44-5.84,2.79-8.94,4.28.69.09,1.03.13,1.42.19.59,4.57,1.14,9.09,1.77,13.59.12.88-.18,1.2-.92,1.49-2.76,1.07-5.5,2.17-8.23,3.3-.48.2-.95.57-1.28.97-.83,1.02-2.17,1.37-3.18.74-.92-.57-1.29-1.85-.82-2.85.53-1.13,1.75-1.54,3.05-1.1.41.14.94.19,1.33.05,2.32-.87,4.6-1.83,6.91-2.72.64-.25.83-.58.72-1.27-.19-1.14-.26-2.3-.39-3.45-.31-2.84-.63-5.68-.95-8.67-2.42,1.15-4.69,2.21-6.93,3.33-.26.13-.45.61-.49.95-.14,1.47-.26,2.95-.31,4.42-.03.83-.36,1.27-1.14,1.58-2.38.94-4.71,1.98-7.07,2.95-.78.32-1.43.67-1.88,1.49-.57,1.04-1.98,1.21-2.95.54-.96-.66-1.21-1.99-.56-2.98.65-.98,1.95-1.26,2.96-.59.32.21.59.5.89.75,2.59-1.09,5.13-2.15,7.66-3.26.31-.14.7-.48.74-.78.19-1.33.27-2.68.42-4.3Zm-64.94,58.36c.38-12.85-10.2-23.57-23.61-23.91-12.74-.32-23.77,10.24-24.15,23.12-.39,13.21,10.01,24.32,23.2,24.65,13.75.34,24.63-10.64,24.55-23.86Zm196.27,5.62c-7.84-17.89-15.6-35.6-23.39-53.39-1.12,1.3-2.07,2.55-3.17,3.63-.78.77-.87,1.4-.45,2.4,3.32,8.09,6.57,16.21,9.88,24.3.3.74.29,1.32-.15,1.99-.76,1.18-1.38,2.43-2.15,3.6-.47.72-.47,1.36-.15,2.13.74,1.77,1.42,3.56,2.1,5.35.26.69.53,1.22,1.38,1.46,1.1.3,1.58,1.51,1.28,2.64-.29,1.07-1.39,1.74-2.51,1.53-1.11-.21-1.81-1.19-1.82-2.34,0-.77-.11-1.57-.34-2.3-.4-1.25-.79-2.55-1.44-3.67-1.61-2.78-1.44-5.29.73-7.67.21-.23.31-.57.51-.81.59-.7.55-1.39.21-2.21-3.05-7.47-6.06-14.95-9.08-22.43-.17-.42-.36-.83-.58-1.33-.39.32-.67.55-.94.78-4.53,3.85-9.69,6.45-15.46,7.84-1.28.31-1.29.45-.85,1.72.79,2.24,2.13,4.21,2.93,6.46,1.01,2.85,2.51,5.53,3.69,8.32.35.83.87,1.19,1.67,1.3,1.3.18,2.61.43,3.92.48.99.04,1.49.45,1.88,1.32,2.62,5.92,5.28,11.82,7.93,17.73,1.04,2.32,2.09,4.63,3.17,7.02,6.38-4.49,13.37-6.25,21.2-5.86Zm-201.6-30.4c4.77,3.63,8.24,7.97,10.42,13.34.14.34.77.66,1.19.69,1.56.08,3.13.13,4.68,0,1.41-.12,2.87-.28,4.18-.76,7.95-2.91,15.87-5.91,23.79-8.92.89-.34,1.63-.34,2.51.06.49.22,1.22.19,1.75,0,1.39-.5,2.72-1.16,4.09-1.72,7.89-3.2,15.79-6.39,23.68-9.57,8.08-3.26,16.16-6.53,24.24-9.78,4.75-1.91,9.5-3.8,14.25-5.7,1.17-.47,1.22-.64.52-1.72-.43-.67-.9-1.33-1.26-2.04-.41-.79-.83-.96-1.7-.58-5.11,2.28-10.25,4.49-15.38,6.73-12.24,5.33-24.47,10.65-36.7,16-.72.31-1.25.29-1.85-.23-1.18-1.01-2.46-1.92-3.63-2.95-.77-.69-1.44-.7-2.37-.29-11.43,4.98-22.88,9.91-34.3,14.9-1.19.52-2.03.62-2.85-.54-.55-.77-1.31-1.4-1.96-2.1-2.39-2.57-4.79-5.14-7.2-7.73-2.01.96-3.95,1.89-6.09,2.92Zm28.59,209.25c.14-.02.18,0,.21-.03,6.64-4.5,13.29-9,19.92-13.52.23-.16.38-.66.33-.97-.42-2.56-.86-5.11-1.39-7.65-.1-.48-.56-1.07-1-1.26-2.26-1-4.55-1.94-6.87-2.8-.65-.24-1.5-.33-2.15-.14-6.05,1.77-12.07,3.62-18.1,5.46-.52.16-1.03.37-1.67.61,2.92,7.21,6.49,13.95,10.73,20.3Zm-94.83-97.93c2.15,2.51,4.18,4.91,6.24,7.29.15.17.5.33.71.28,1.03-.27,2.16-.41,3.03-.96,8.02-5.02,16-10.12,23.99-15.2,1.71-1.08,3.41-2.17,5.3-3.37-4.78-2.43-7.18-6.29-7.73-11.58-10.57,7.89-20.99,15.66-31.54,23.53Zm-29.45-72.24c-4.63,15.19-9.22,30.21-13.84,45.36.51.12.92.23,1.34.3,1.57.26,3.16.44,4.71.79,1.1.24,1.68.09,2.17-1.07,4.83-11.34,9.73-22.66,14.61-33.98.97-2.25,1.92-4.51,2.94-6.88-4.8.53-8.61-1.14-11.94-4.51Zm142.87,133.82c-.55.17-.82.24-1.07.33-2.85,1.02-5.72,2.02-8.56,3.09-.76.28-1.28.26-1.9-.34-1.14-1.12-2.35-2.17-3.6-3.17-.33-.26-.95-.39-1.35-.27-1.99.59-3.94,1.32-5.92,1.92-.76.23-.99.64-1.02,1.37-.05,1.24-.24,2.47-.27,3.7-.02,1.04-.46,1.51-1.47,1.81-2.09.6-4.14,1.37-6.29,2.09.6,1.59,1.14,3.03,1.71,4.55.47-.11.86-.18,1.23-.3,6.26-1.89,12.53-3.78,18.78-5.71.95-.29,1.75-.24,2.64.15,2.05.9,4.13,1.71,6.2,2.55.3.12.63.19.87.26v-12.03Zm-61.35-96.38c1-7.33,1.96-14.41,2.94-21.6-.48.08-.75.1-1.02.17-3.66.86-7.35.92-11.06.41-1.56-.21-1.63-.19-1.63,1.38,0,5.43,0,10.86,0,16.29,0,.39.06.77.1,1.31,3.83-.85,7.3-.2,10.67,2.02Zm-61.15-45.93c0-5.82-4.61-10.44-10.41-10.44-5.72,0-10.37,4.61-10.43,10.34-.06,5.74,4.63,10.47,10.39,10.5,5.8.02,10.45-4.6,10.45-10.4Zm64.13,56.79c.02-5.78-4.59-10.44-10.39-10.5-5.68-.05-10.37,4.61-10.4,10.34-.03,5.84,4.47,10.47,10.18,10.49,5.98.02,10.58-4.46,10.61-10.33Zm330.15-47.18c1.08-.1,1.98-.06,2.81-.28,2.35-.62,3.87-2.73,3.85-5.17-.02-2.42-1.62-4.47-3.97-5.1-2.26-.6-4.69.37-5.92,2.37-1.26,2.05-.99,4.76.74,6.52.47.47.72.86.55,1.54-1.17,4.81-2.3,9.62-3.5,14.42-.13.5-.55,1.07-1,1.33-5.8,3.28-11.64,6.51-17.47,9.75-.45.25-.93.48-1.42.62-8.83,2.65-17.66,5.28-26.49,7.91q-1.66.49-1.03,2.25c.45-.11.91-.21,1.36-.34,7.3-2.18,14.6-4.35,21.9-6.55,2.14-.64,4.4-1.07,6.34-2.1,6.25-3.3,12.38-6.82,18.54-10.29.42-.24.8-.77.93-1.24.52-1.88.94-3.79,1.39-5.69.8-3.33,1.59-6.67,2.38-9.95Zm-92.09-78.16c.28-.1.35-.15.43-.15,3.16-.01,6.32.02,9.48-.06.6-.01,1.32-.31,1.76-.72,2.06-1.95,4.07-3.96,6.03-6.01.68-.71,1.24-.95,2.26-.64,2.92.89,6-1.12,6.57-4.15.56-2.96-1.62-5.96-4.53-6.24-3.38-.32-6.07,1.91-5.98,5.13.04,1.26.54,2.5.89,3.99-1.96,1.97-4.15,4.18-6.39,6.36-.27.26-.78.38-1.17.39-2.32.04-4.64.02-6.96.02-1.38,0-2.77,0-4.28,0,0,.63,0,1.1,0,1.57,0,7.64.02,15.28-.03,22.92,0,.65-.29,1.41-.7,1.92-2.96,3.62-5.99,7.19-8.99,10.77-1.32,1.58-2.64,3.17-4.03,4.84.66.35,1.17.63,1.7.91.27-.3.48-.53.69-.77,4.19-4.99,8.39-9.98,12.54-15,.41-.5.69-1.27.7-1.91.05-7.24.03-14.48.03-21.72v-1.43Zm46.55,246.25c-.44-3.96-.83-7.76-1.31-11.55-.06-.44-.48-1.01-.89-1.2-6.77-3.23-13.56-6.42-20.37-9.59-.42-.2-1-.23-1.47-.15-4.63.8-9.31,1.42-13.86,2.55-2.69.66-4.15,0-5.48-2.3-1.36-2.33-3.11-4.42-4.74-6.69-.5.39-.9.69-1.35,1.04,2.39,3.35,4.7,6.61,7.06,9.82.2.27.82.42,1.2.35,5.69-.99,11.37-2.04,17.05-3.05.4-.07.89-.02,1.26.15,6.44,3.01,12.87,6.03,19.28,9.09.33.16.69.6.73.95.37,3.09.62,6.19,1.03,9.27.14,1.06-.2,1.41-1.14,1.78-2.61,1.03-3.87,4.03-2.92,6.65.97,2.67,3.78,4.12,6.48,3.35,2.77-.78,4.38-3.52,3.74-6.34-.53-2.33-2.15-3.55-4.32-4.14Zm15.47-195.54c.29.35.52.66.79.95,1.48,1.57,3.3,2.07,5.36,1.55,1.98-.51,3.27-1.82,3.76-3.81.76-3.07-1.17-6.08-4.17-6.59-3.17-.54-5.9,1.58-6.36,4.86-.08.57-.37,1.2-.77,1.6-1.82,1.85-3.73,3.61-5.56,5.46-.34.35-.61.94-.62,1.43-.2,8.59-.37,17.17-.49,25.76-.01.92-.29,1.43-1.06,1.91-5.88,3.63-11.73,7.31-17.59,10.97q-1.56.98-.55,2.63c6.84-4.28,13.68-8.54,20.5-12.86.34-.21.55-.86.56-1.31.1-3.39.14-6.79.2-10.18.1-5.39.2-10.78.32-16.18,0-.37.1-.85.35-1.08,1.73-1.71,3.51-3.38,5.32-5.11Zm-56.93,3.44c1.57-1.64,3.03-3.17,4.49-4.7,9.8-10.3,19.62-20.6,29.39-30.94.43-.46.7-1.24.72-1.88.08-2.76.03-5.52.04-8.27,0-.41.05-.83.08-1.24,3.32.31,5.72-1.12,6.44-3.74.71-2.57-.47-5.23-2.82-6.34-2.35-1.12-5.33-.41-6.66,1.82-.58.97-.92,2.23-.93,3.37-.03,1.96,1.16,3.39,2.52,4.26-.22.58-.5.98-.5,1.38-.04,2.64-.04,5.28,0,7.91.01.81-.2,1.41-.78,2.02-9.5,9.94-18.97,19.9-28.45,29.85-1.64,1.73-3.28,3.46-4.96,5.24.52.46.93.82,1.44,1.27Zm-306.92,6.56c.73,1.73,1.5,3.31,2.05,4.96.32.94.74,1.14,1.66,1.02,2.1-.27,4.21-.43,6.31-.61,4.85-.42,9.7-.8,14.55-1.26.33-.03.82-.6.86-.96.27-2.45.44-4.91.65-7.53-8.69,1.46-17.44,2.93-26.09,4.39Zm342.16,81.78c.24.06.35.1.47.11,7.62.32,15.25.64,22.87.98.7.03,1.05-.22,1.37-.84,3.05-5.98,6.12-11.94,9.23-17.88.26-.49.83-.98,1.36-1.15,3.07-1,6.18-1.88,9.27-2.85.69-.22,1.11-.17,1.6.47,1.61,2.11,4.46,2.63,6.79,1.35,2.19-1.2,3.21-3.84,2.45-6.29-.74-2.37-3.15-3.98-5.53-3.7-2.79.33-4.71,2.29-4.82,5.06-.03.81-.36,1.09-1.05,1.3-3.29.97-6.57,1.99-9.87,2.94-.84.24-1.33.69-1.72,1.46-2.93,5.77-5.91,11.51-8.84,17.28-.38.75-.86.91-1.61.87-6.9-.31-13.81-.6-20.71-.89-.34-.01-.68.04-1.04.06-.07.62-.14,1.13-.21,1.72Zm-251.85,77.67c2.17-.73,4.22-1.38,6.23-2.12.3-.11.59-.61.64-.96.19-1.42.3-2.86.38-4.3.04-.68.25-1.07.95-1.29,2.48-.78,4.92-1.66,7.4-2.4.45-.14,1.17.04,1.55.35,1.28,1.02,2.44,2.19,3.71,3.23.3.24.89.38,1.24.26,3.06-1.05,6.09-2.16,9.12-3.28.28-.1.66-.4.7-.65.31-2.36.55-4.72.83-7.24-11.6,4.14-23.08,8.24-34.64,12.37.65,2.09,1.25,4.02,1.88,6.04Zm241.89-41.59c4.34,2.28,8.56,4.46,12.74,6.71.87.47,1.52.5,2.39-.03,3.31-2.01,6.67-3.95,10.04-5.84.49-.27,1.23-.38,1.76-.23,6.27,1.73,12.51,3.54,18.78,5.28,1.03.29,1.62.71,1.95,1.84.79,2.7,3.79,4.13,6.56,3.32,2.7-.79,4.31-3.67,3.6-6.45-.69-2.71-3.4-4.42-6.15-3.9-2.13.4-3.4,1.77-4.23,3.68-.26-.07-.46-.12-.65-.17-6.64-1.88-13.29-3.74-19.92-5.65-.86-.25-1.51-.14-2.25.3-3.3,1.96-6.63,3.85-9.93,5.81-.59.35-1.05.36-1.64.03-1.78-.98-3.59-1.91-5.4-2.86-2.25-1.18-4.5-2.34-6.84-3.56-.3.62-.54,1.11-.84,1.73Zm-25.36-164.88v1.44c0,4.8.03,9.59-.03,14.39,0,.63-.32,1.4-.76,1.85-3.72,3.8-7.49,7.55-11.26,11.29-.45.45-1.01.79-1.62,1.26.85.54,1.37.88,1.93,1.23,4.49-4.49,8.9-8.89,13.28-13.33.28-.28.37-.86.37-1.3.03-4.48.02-8.95.02-13.43,0-.46,0-.93,0-1.5,1.42,0,2.65.03,3.89-.01.77-.03,1.18.15,1.48.98.87,2.42,3.39,3.8,5.83,3.36,2.64-.48,4.45-2.64,4.44-5.31,0-2.51-1.77-4.71-4.16-5.17-2.66-.52-5.18.76-6.1,3.25-.32.87-.76,1.04-1.56,1.03-1.87-.04-3.73-.01-5.73-.01Zm18.26,231.52c-.38.33-.72.61-1.03.91-1.81,1.78-2.13,4.59-.76,6.7,1.38,2.14,4.06,3.01,6.42,2.1,2.33-.89,3.73-3.31,3.35-5.74-.41-2.58-2.39-4.37-4.95-4.59-.5-.04-1.08-.28-1.45-.62-2.05-1.84-4.08-3.71-6.05-5.64-.76-.74-1.5-1-2.55-.88-3.57.42-7.15.72-10.72,1.16-1.2.15-2.05-.14-2.74-1.15-.57-.82-1.27-1.54-1.91-2.3-2.02-2.37-4.03-4.73-6.1-7.16-.51.45-.94.84-1.45,1.29,3.2,3.76,6.33,7.45,9.48,11.1.18.21.63.31.94.28,4.13-.4,8.26-.85,12.39-1.24.43-.04,1,.07,1.3.34,1.96,1.76,3.86,3.59,5.81,5.43Zm2.68-58.19c.29.19.51.36.74.48,5.88,2.98,11.76,5.95,17.63,8.96.67.34,1.16.25,1.75-.13,3.49-2.25,6.99-4.5,10.53-6.67.49-.3,1.3-.4,1.85-.24,2.63.79,5.22,1.74,7.85,2.56.84.26,1.23.72,1.38,1.55.38,2.2.86,4.38,1.19,6.59.14.91.52,1.3,1.39,1.48,2.73.56,5.45,1.21,8.18,1.75.96.19,1.48.58,1.82,1.54.76,2.12,3.06,3.54,5.17,3.4,2.64-.17,4.93-2.25,5.16-4.69.28-2.99-1.31-5.34-4.1-6.04-2.6-.66-5.28.71-6.28,3.33-.31.82-.69,1.03-1.49.84-2.4-.57-4.81-1.13-7.23-1.62-.72-.15-.96-.49-1.08-1.18-.39-2.28-.9-4.53-1.28-6.81-.13-.78-.48-1.15-1.21-1.39-3.23-1.04-6.45-2.1-9.65-3.22-.78-.27-1.34-.15-1.99.28-3.39,2.19-6.82,4.33-10.2,6.52-.68.44-1.22.51-1.97.12-5.04-2.6-10.11-5.15-15.17-7.72-.7-.35-1.41-.68-2.16-1.04-.3.51-.54.91-.81,1.37Zm-36.16-191.35c1.07-.32,2.04-.47,2.88-.89,2.22-1.11,3.24-3.47,2.71-5.96-.47-2.22-2.52-3.93-4.89-4.09-2.29-.15-4.55,1.34-5.32,3.52-.82,2.33-.04,4.88,2.03,6.23.67.44.87.9.86,1.65-.04,2.92.01,5.84-.03,8.75-.01.65-.16,1.35-.44,1.94-2.36,5.02-4.76,10.02-7.14,15.03-1.23,2.58-2.46,5.17-3.72,7.83.57.27,1.01.49,1.5.72.23-.43.41-.74.56-1.06,2.99-6.27,5.84-12.61,9.01-18.78,1.53-2.99,2.28-5.96,2.04-9.28-.14-1.9-.03-3.82-.03-5.61Zm-8.91,277.42c-1.82-2.67-3.6-5.22-5.3-7.83-.22-.33-.16-.99.02-1.4,1.64-3.9,3.34-7.78,5.02-11.66.33-.76.63-1.53.98-2.36-.61-.27-1.11-.49-1.62-.71-.14.2-.26.32-.32.46-2.13,4.91-4.27,9.81-6.34,14.74-.16.37-.02,1.02.22,1.38,1.69,2.57,3.41,5.12,5.19,7.64.52.73.6,1.27.17,2.12-1.27,2.48-.32,5.49,2.04,6.89,2.31,1.38,5.37.79,7-1.35,1.66-2.18,1.39-5.35-.66-7.18-1.89-1.69-4.03-1.72-6.37-.73Zm50.12-184.44c.43-.27.77-.48,1.1-.7,2.93-1.95,5.87-3.88,8.76-5.87.32-.22.52-.79.56-1.21.22-2.79.37-5.58.56-8.37.11-1.65.25-3.3.38-5.01.52.11.87.19,1.22.24,4.05.57,7.23-2.82,6.17-6.6-.61-2.16-2.06-3.52-4.26-3.89-2.14-.36-3.97.36-5.23,2.17-1.28,1.84-1.28,3.78-.29,5.78.28.57.52,1.26.49,1.88-.24,4.03-.64,8.04-.81,12.07-.05,1.22-.51,1.85-1.46,2.46-2.68,1.72-5.31,3.52-8.01,5.32.3.62.56,1.14.84,1.72Zm-19.67,117.23c3.06,2.88,6.01,5.68,9.01,8.43.26.24.81.28,1.21.24,1.67-.17,3.33-.38,4.99-.61.95-.13,1.75.04,2.59.56,9.59,5.98,19.2,11.92,28.81,17.87.36.22.73.42,1.14.65.35-.58.64-1.04.97-1.58-.51-.33-.94-.61-1.37-.88-9.27-5.74-18.56-11.44-27.78-17.26-1.73-1.09-3.37-1.69-5.35-1.12-2.98.86-5.29.04-7.32-2.37-1.63-1.94-3.67-3.52-5.59-5.33-.45.48-.83.88-1.32,1.41Zm30.33-1.52c.48,2.74,2.61,4.65,5.28,4.65,2.61,0,4.84-1.9,5.3-4.51.43-2.46-1.13-5.08-3.5-5.9-2.92-1.01-5.16.2-7.2,3.92-6.47-3.26-12.94-6.52-19.43-9.79-.41.59-.72,1.04-1.07,1.55.21.15.36.27.53.36,6.31,3.19,12.62,6.38,18.94,9.54.29.15.67.11,1.15.18Zm-2.07-54.49c.32.06.58.14.86.16,9.69.51,19.38,1.02,29.07,1.47.58.03,1.33-.28,1.75-.69,2.84-2.75,5.64-5.55,8.4-8.38.7-.72,1.25-.9,2.26-.57,1.98.64,3.89.31,5.44-1.2,1.54-1.5,1.95-3.38,1.41-5.4-.82-3.04-4.07-4.66-7.03-3.59-3,1.08-4.47,4.5-3.04,7.36.49.97.28,1.45-.4,2.11-2.18,2.11-4.44,4.17-6.41,6.47-1.51,1.76-3.17,2.1-5.35,1.95-8.48-.56-16.98-.97-25.47-1.42-1.51-.08-1.51-.04-1.48,1.74Zm-2.12,9.43c6.53.93,12.88,1.84,19.24,2.75,8.85,1.26,17.7,2.51,26.55,3.78,1.6.23,1.74.13,1.69-1.72-15.64-2.22-31.3-4.44-47.02-6.67-.17.68-.3,1.21-.46,1.87Zm-.22-54.4c.32-.1.66-.19.97-.33,9.43-4.14,18.88-8.22,28.25-12.49,2.25-1.03,4.05-1.21,6.19.18,2.05,1.33,4.8.69,6.44-1.11,1.66-1.83,1.91-4.47.61-6.54-1.31-2.1-3.85-3.03-6.26-2.28-2.21.68-3.95,2.95-3.76,5.27.09,1.09-.32,1.43-1.18,1.8-10.2,4.46-20.39,8.94-30.59,13.43-1.39.61-1.39.62-.69,2.08Zm-99.73-54.32c-.82.04-.32.77-.06,1.37,2.47,5.59,4.95,11.17,7.43,16.75,1.2,2.7,2.42,5.39,3.67,8.07.16.35.55.82.85.84.86.05,1.84-1.73,1.47-2.55-3.4-7.58-6.84-15.13-10.16-22.75-.6-1.36-1.49-1.7-3.21-1.74Zm-225.77,106.63c-2.09-2.53-3.98-4.82-5.89-7.15-4.53,3.4-8.96,6.71-13.39,10.03.04.07.08.15.12.22,6.31-1.02,12.61-2.05,19.16-3.11Zm273.73,99.51c.24.32.43.58.63.82,2.91,3.4,5.85,6.78,8.72,10.21.57.68,1.15.95,2.03.94,7.71-.13,15.43-.22,23.14-.32,1.46-.02,1.71-.52.89-1.92-.14,0-.3,0-.46,0-7.47.11-14.95.21-22.42.35-.99.02-1.72-.18-2.35-1.04-.84-1.16-1.85-2.2-2.78-3.3-1.97-2.3-3.95-4.6-5.99-6.97-.51.45-.95.83-1.42,1.24Zm-12.48-238.64c.52-4.29,1.02-8.41,1.52-12.52.76-6.22,1.52-12.44,2.26-18.66.1-.82.38-1.21,1.27-1.37,2.98-.53,4.87-3.58,4.13-6.49-.79-3.13-3.8-4.89-6.82-3.95-2.26.7-3.55,2.33-3.82,4.6-.27,2.2.67,3.99,2.56,5.18.59.37.96.66.86,1.47-1.11,8.79-2.18,17.59-3.26,26.38-.2,1.65-.38,3.31-.57,5.04.66.11,1.2.2,1.87.31Zm20.26,227.3c-2.49,3.02-2.74,5.64-.84,7.96,1.62,1.98,4.58,2.52,6.83,1.24,2.26-1.28,3.28-4,2.44-6.5-.9-2.68-3.38-3.96-6.73-3.5-.22-.38-.4-.76-.63-1.11-2.14-3.28-4.26-6.57-6.45-9.82-.47-.7-.47-1.22-.08-1.94,1.16-2.1,2.16-4.28,3.38-6.34.69-1.17.58-2.04-.39-2.99-.47.27-.94.55-1.12.65-.25.88-.32,1.52-.6,2.07-1.13,2.25-2.28,4.48-3.5,6.68-.42.76-.4,1.31.09,2.04,2.56,3.81,5.05,7.67,7.6,11.55Zm33.32-165.18c1.03-.75,1.89-1.48,2.84-2.04.96-.56,1.2-1.36,1.27-2.38.17-2.47.43-4.93.64-7.39.17-1.95.32-3.9.5-6.07-3.99,2.82-7.78,5.5-11.62,8.22.44.6.76,1.04,1.13,1.56,2.7-1.9,5.32-3.74,8.08-5.68.04.34.09.48.07.62-.24,2.9-.47,5.8-.77,8.7-.04.36-.41.75-.73,1.01-.76.63-1.57,1.2-2.4,1.81.34.56.62,1.04.99,1.64ZM51.1,239.12c.1.02.19.03.29.05,1.97-4.58,3.95-9.17,5.98-13.88-2.46-.47-4.73-.91-7.12-1.36.29,5.23.57,10.22.85,15.2Zm385.16,36.64c-.86-2.11-1.78-4.07-2.44-6.11-.51-1.58-1.3-2.37-3.02-2.58-2.79-.35-5.55-.99-8.4-1.51-.2.65-.38,1.2-.54,1.73.11.08.14.12.18.13,2.11.41,4.21,1.04,6.34,1.17,2.53.15,3.82,1.32,4.44,3.7.37,1.43,1.1,2.77,1.7,4.21.64-.27,1.11-.46,1.75-.73Zm-45.76,37.34c2.5,2.73,4.89,5.34,7.33,8,.5-.45.93-.84,1.44-1.3-2.48-2.71-4.88-5.33-7.3-7.98-.54.47-.96.83-1.46,1.27Zm-211.56-158.73c-.01-.05-.02-.11-.04-.16h-7.67c.19.76.38,1.37.47,1.99.11.77.51.95,1.17.68,2.03-.83,4.04-1.67,6.07-2.51Z"/>
    <path d="m290.73,138.52c1,2.29,1.95,4.44,2.94,6.71-.86.31-1.63.58-2.41.87-12.36,4.53-23.34,11.28-32.8,20.46-14.89,14.45-23.98,31.94-27.26,52.41-1.59,9.94-1.43,19.91.25,29.84.11.66-.04,1.01-.53,1.4-11.84,9.54-20.5,21.4-25.97,35.59-.17.45-.63.95-1.07,1.1-15.41,5.13-30.83,10.21-46.26,15.3-.11.04-.23.03-.49.06-.6-1.48-1.21-2.98-1.8-4.5-4.93-12.71-8.33-25.82-10.23-39.31-.58-4.15-.86-8.34-1.32-12.51-.09-.85.12-1.23,1-1.51,4.55-1.45,8.13-4.23,10.69-8.25,3.42-5.37,4.03-11.14,2.03-17.13-.51-1.53-.69-2.95-.47-4.53.84-5.81,1.58-11.64,2.4-17.45.06-.39.39-.88.73-1.07,5.89-3.36,10.59-7.93,14.12-13.72.25-.42.81-.74,1.3-.92,22.73-8.48,45.47-16.95,68.22-25.41,15.15-5.64,30.3-11.26,45.45-16.89.44-.16.89-.32,1.48-.54Z"/>
    <path d="m275.52,60.22c-3.22,3.38-6.04,7.04-8.26,11.14-.17.32-.55.57-.89.74-18.15,8.66-36.3,17.31-54.46,25.97-4.47,2.13-8.93,4.26-13.39,6.4-.25.12-.5.22-.82.36,2.7-4.36,24.21-20.69,35.97-27.39,13.2-7.52,27.11-13.32,41.86-17.21Z"/>
    <path class="cls-1" d="m215.39,329.15c-4.99-21.83,1.64-53.08,29.43-71.68,26.73-17.89,61.92-14.97,85.71,6.89,23.4,21.51,29.09,56.87,13.36,84.74-16.18,28.67-46.61,38.16-68.72,34.85.21-.36.4-.7.61-1.02,3.28-4.92,6.57-9.84,9.83-14.77.42-.64.84-1,1.68-1.08,10.51-1.07,19.74-5.04,27.48-12.28,1.29-1.2,2.46-2.53,3.6-3.92-11.27,8.77-23.93,12.87-38.16,11.3-11.22-1.24-20.88-5.99-28.83-14.05-14.96-15.16-19.91-43.03-2.4-65.5-.87.8-1.78,1.57-2.61,2.42-6.98,7.16-11.06,15.76-12.53,25.61-.28,1.89-.32,3.82-.53,5.72-.04.37-.26.85-.56,1.05-5.63,3.87-11.29,7.7-16.95,11.54-.1.07-.21.1-.41.2Zm68.88,14.36c15.62-.26,28-13.92,27.28-29.82-.67-14.99-14.04-27.33-29.16-26.71-15.76.64-27.73,13.47-27.36,28.86.39,15.95,13.6,28.31,29.24,27.67Z"/>
    <path class="cls-1" d="m285.66,238.91c4.49-4.49,8.91-8.91,13.44-13.44,1.58,1.9,3.29,3.84,4.86,5.89.72.94,1.53,1.24,2.64,1.27,3.36.1,6.71.23,10.06.42.47.03,1.02.33,1.35.69.97,1.04,2.33,1.19,3.29.26.86-.84.86-2.29,0-3.13-.93-.9-2.32-.76-3.29.26-.28.29-.77.57-1.15.56-3.51-.09-7.03-.24-10.54-.4-.36-.02-.82-.18-1.04-.43-1.8-2.08-3.56-4.21-5.24-6.21,1.75-1.74,3.43-3.42,5.22-5.2.88.89,1.88,1.98,2.97,2.96.4.36,1.02.63,1.54.65,2.6.07,5.2.05,7.8.04.62,0,1.07.06,1.52.64.82,1.07,2.26,1.07,3.15.14.85-.87.79-2.3-.11-3.11-.95-.85-2.42-.74-3.14.38-.39.61-.81.75-1.45.74-2.4-.02-4.8.01-7.2,0-.37,0-.85-.06-1.1-.29-1.11-1.02-2.16-2.11-3.5-3.43.49-.34.94-.57,1.28-.9,10.96-10.93,21.95-21.84,32.84-32.84,2.88-2.9,5.89-5.5,9.69-7.09,15.1-6.31,32.45,3.84,34.2,20.06.53,4.88-.53,9.48-2.51,13.98-1.4,3.18-3.28,6.01-5.2,8.85-6.73,9.98-13.46,19.96-20.2,29.94-3.83,5.67-7.66,11.33-11.49,17-.2.29-.43.55-.78,1.01-15.06-18.26-34.2-28.29-57.91-29.26Zm73.41-20.8c10-.04,17.97-7.95,17.96-17.84,0-9.84-8.08-18.05-17.71-18.02-10.11.03-18.27,8.13-18.22,18.06.05,9.99,7.97,17.83,17.97,17.79Z"/>
    <path class="cls-1" d="m307.03,123.79c-17.46,0-31.37-13.96-31.2-31.62.18-17.66,15.01-31,31.78-30.75,16.85.25,30.84,14.21,30.66,31.36-.19,18.15-15.02,31.25-31.24,31Zm14.44-30.85c.03-8.19-6.27-14.66-14.33-14.73-7.83-.07-14.48,6.45-14.51,14.23-.03,8.13,6.39,14.75,14.34,14.78,8.02.03,14.47-6.32,14.5-14.28Z"/>
    <path class="cls-1" d="m230.13,104.56c-.15,1.61-.23,2.96-.42,4.3-.04.29-.43.64-.74.78-2.52,1.1-5.07,2.16-7.66,3.26-.29-.25-.57-.54-.89-.75-1.01-.67-2.31-.39-2.96.59-.65.98-.4,2.31.56,2.98.97.67,2.38.5,2.95-.54.45-.82,1.1-1.17,1.88-1.49,2.36-.97,4.7-2.01,7.07-2.95.78-.31,1.11-.75,1.14-1.58.05-1.48.16-2.95.31-4.42.03-.34.22-.82.49-.95,2.24-1.12,4.51-2.18,6.93-3.33.33,2.99.64,5.83.95,8.67.13,1.15.2,2.31.39,3.45.11.69-.08,1.02-.72,1.27-2.31.89-4.59,1.85-6.91,2.72-.39.15-.92.09-1.33-.05-1.3-.44-2.52-.03-3.05,1.1-.47,1.01-.11,2.28.82,2.85,1.02.63,2.35.28,3.18-.74.33-.41.8-.77,1.28-.97,2.73-1.14,5.47-2.24,8.23-3.3.74-.29,1.05-.61.92-1.49-.63-4.51-1.18-9.02-1.77-13.59-.39-.05-.73-.1-1.42-.19,3.11-1.49,5.94-2.85,8.94-4.28.77,1.95,1.52,3.82,2.23,5.7.39,1.04.98,1.98.13,3.22-.64.93.19,2.28,1.3,2.69,1.17.43,2.38-.13,2.84-1.29.43-1.09-.04-2.46-1.18-2.76-.95-.25-1.24-.86-1.55-1.61-.86-2.14-1.74-4.27-2.65-6.48,6.67-3.18,13.21-6.3,20.01-9.53-1.33,8.35-.54,16.18,3.11,23.72-1.59.71-3.07,1.38-4.56,2.02-15.79,6.88-31.59,13.74-47.37,20.65-.95.41-1.58.37-2.34-.32-1.1-.99-2.32-1.83-3.44-2.8-.69-.59-1.3-.7-2.16-.33-9.34,4.07-18.7,8.11-28.05,12.16-2.35,1.02-4.68,2.06-7.05,3.02-.39.16-1.1.14-1.35-.11-2.99-3-5.92-6.05-9.01-9.24,20.96-10.01,41.82-19.98,62.9-30.05Z"/>
    <path class="cls-1" d="m165.2,162.92c.08,13.23-10.8,24.21-24.55,23.86-13.2-.33-23.59-11.44-23.2-24.65.38-12.88,11.41-23.44,24.15-23.12,13.41.34,23.99,11.06,23.61,23.91Zm-23.84,11.28c6.97.27,11.37-5.85,11.34-11.26-.03-6.22-5.05-11.31-11.25-11.34-6.17-.03-11.31,5.01-11.32,11.11-.01,6.52,4.84,11.48,11.23,11.49Z"/>
    <path class="cls-1" d="m361.47,168.54c-7.82-.39-14.82,1.37-21.2,5.86-1.08-2.4-2.13-4.71-3.17-7.02-2.65-5.91-5.31-11.81-7.93-17.73-.39-.87-.89-1.29-1.88-1.32-1.31-.05-2.61-.3-3.92-.48-.8-.11-1.31-.47-1.67-1.3-1.19-2.79-2.68-5.47-3.69-8.32-.8-2.26-2.13-4.23-2.93-6.46-.45-1.27-.43-1.41.85-1.72,5.78-1.39,10.94-3.99,15.46-7.84.27-.23.55-.46.94-.78.22.49.41.91.58,1.33,3.02,7.48,6.03,14.96,9.08,22.43.34.83.38,1.52-.21,2.21-.2.24-.3.58-.51.81-2.17,2.38-2.35,4.89-.73,7.67.65,1.13,1.04,2.42,1.44,3.67.23.73.33,1.53.34,2.3.01,1.15.72,2.13,1.82,2.34,1.12.21,2.23-.47,2.51-1.53.3-1.13-.18-2.33-1.28-2.64-.85-.24-1.12-.77-1.38-1.46-.68-1.79-1.36-3.58-2.1-5.35-.32-.77-.32-1.41.15-2.13.76-1.17,1.39-2.43,2.15-3.6.43-.67.45-1.25.15-1.99-3.31-8.1-6.56-16.21-9.88-24.3-.41-1-.32-1.64.45-2.4,1.1-1.09,2.04-2.33,3.17-3.63,7.8,17.79,15.55,35.5,23.39,53.39Z"/>
    <path class="cls-1" d="m159.87,138.13c2.14-1.03,4.08-1.95,6.09-2.92,2.41,2.59,4.8,5.16,7.2,7.73.65.7,1.41,1.33,1.96,2.1.83,1.16,1.66,1.06,2.85.54,11.42-4.99,22.88-9.92,34.3-14.9.93-.41,1.6-.4,2.37.29,1.16,1.04,2.44,1.94,3.63,2.95.6.52,1.13.54,1.85.23,12.23-5.35,24.47-10.67,36.7-16,5.13-2.23,10.27-4.45,15.38-6.73.87-.39,1.3-.21,1.7.58.36.71.83,1.37,1.26,2.04.69,1.08.64,1.25-.52,1.72-4.75,1.9-9.5,3.79-14.25,5.7-8.08,3.25-16.16,6.52-24.24,9.78-7.89,3.19-15.79,6.38-23.68,9.57-1.37.56-2.7,1.22-4.09,1.72-.53.19-1.26.22-1.75,0-.88-.4-1.63-.39-2.51-.06-7.92,3-15.84,6-23.79,8.92-1.31.48-2.77.64-4.18.76-1.55.13-3.12.08-4.68,0-.42-.02-1.05-.34-1.19-.69-2.18-5.36-5.65-9.71-10.42-13.34Z"/>
    <path class="cls-1" d="m188.46,347.38c-4.24-6.35-7.81-13.08-10.73-20.3.64-.24,1.15-.45,1.67-.61,6.03-1.83,12.05-3.68,18.1-5.46.65-.19,1.5-.1,2.15.14,2.32.86,4.61,1.79,6.87,2.8.44.2.9.78,1,1.26.53,2.54.97,5.09,1.39,7.65.05.31-.1.81-.33.97-6.62,4.53-13.27,9.02-19.92,13.52-.03.02-.07.01-.21.03Z"/>
    <path class="cls-1" d="m93.63,249.45c10.55-7.87,20.97-15.65,31.54-23.53.55,5.29,2.94,9.15,7.73,11.58-1.89,1.2-3.59,2.29-5.3,3.37-7.99,5.08-15.96,10.17-23.99,15.2-.87.55-2,.69-3.03.96-.2.05-.56-.1-.71-.28-2.06-2.38-4.1-4.78-6.24-7.29Z"/>
    <path class="cls-1" d="m64.18,177.21c3.32,3.38,7.13,5.05,11.94,4.51-1.02,2.38-1.97,4.63-2.94,6.88-4.88,11.32-9.78,22.64-14.61,33.98-.49,1.16-1.08,1.31-2.17,1.07-1.55-.35-3.14-.53-4.71-.79-.42-.07-.83-.19-1.34-.3,4.62-15.14,9.21-30.17,13.84-45.36Z"/>
    <path class="cls-1" d="m207.05,311.02v12.03c-.24-.07-.57-.14-.87-.26-2.07-.84-4.16-1.66-6.2-2.55-.89-.39-1.7-.45-2.64-.15-6.25,1.93-12.52,3.82-18.78,5.71-.37.11-.76.18-1.23.3-.57-1.52-1.11-2.96-1.71-4.55,2.15-.73,4.2-1.49,6.29-2.09,1.01-.29,1.44-.77,1.47-1.81.03-1.24.21-2.47.27-3.7.03-.73.26-1.14,1.02-1.37,1.99-.6,3.93-1.33,5.92-1.92.4-.12,1.02.01,1.35.27,1.25,1,2.46,2.05,3.6,3.17.62.61,1.14.63,1.9.34,2.84-1.06,5.7-2.06,8.56-3.09.26-.09.52-.16,1.07-.33Z"/>
    <path class="cls-1" d="m145.7,214.64c-3.37-2.22-6.84-2.87-10.67-2.02-.04-.54-.1-.93-.1-1.31,0-5.43,0-10.86,0-16.29,0-1.57.07-1.6,1.63-1.38,3.71.5,7.4.45,11.06-.41.27-.06.54-.09,1.02-.17-.98,7.18-1.94,14.27-2.94,21.6Z"/>
    <path class="cls-1" d="m84.54,168.72c0,5.8-4.64,10.42-10.45,10.4-5.77-.02-10.46-4.76-10.39-10.5.06-5.73,4.71-10.34,10.43-10.34,5.8,0,10.41,4.62,10.41,10.44Zm-10.16-6.1c-3.38-.03-6.13,2.67-6.16,6.03-.02,3.37,2.69,6.11,6.06,6.13,3.33.02,6.13-2.78,6.13-6.1,0-3.29-2.74-6.03-6.03-6.06Z"/>
    <path class="cls-1" d="m148.67,225.51c-.03,5.87-4.63,10.36-10.61,10.33-5.71-.02-10.2-4.66-10.18-10.49.03-5.73,4.71-10.4,10.4-10.34,5.8.06,10.41,4.72,10.39,10.5Zm-10.46,6.04c3.4.02,6.09-2.63,6.12-6.04.03-3.37-2.66-6.11-6.03-6.17-3.3-.05-6.11,2.71-6.16,6.07-.05,3.32,2.71,6.11,6.07,6.14Z"/>
    <path class="cls-1" d="m478.82,178.33c-.79,3.28-1.58,6.62-2.38,9.95-.45,1.9-.87,3.81-1.39,5.69-.13.47-.51,1.01-.93,1.24-6.15,3.47-12.29,6.99-18.54,10.29-1.94,1.03-4.21,1.45-6.34,2.1-7.29,2.2-14.6,4.37-21.9,6.55-.45.13-.91.23-1.36.34q-.63-1.77,1.03-2.25c8.83-2.63,17.66-5.26,26.49-7.91.49-.15.97-.37,1.42-.62,5.83-3.23,11.66-6.47,17.47-9.75.45-.25.88-.82,1-1.33,1.2-4.8,2.32-9.62,3.5-14.42.17-.68-.09-1.07-.55-1.54-1.73-1.76-2.01-4.46-.74-6.52,1.23-2,3.66-2.97,5.92-2.37,2.34.62,3.94,2.68,3.97,5.1.02,2.44-1.49,4.55-3.85,5.17-.83.22-1.73.18-2.81.28Zm1.33-2.5c1.57,0,2.91-1.29,2.94-2.85.03-1.54-1.3-2.9-2.86-2.93-1.62-.04-3.02,1.33-3,2.92.02,1.55,1.36,2.86,2.92,2.87Z"/>
    <path class="cls-1" d="m386.73,100.17v1.43c0,7.24.02,14.48-.03,21.72,0,.65-.28,1.41-.7,1.91-4.15,5.03-8.35,10.01-12.54,15-.2.24-.42.48-.69.77-.53-.28-1.04-.56-1.7-.91,1.39-1.67,2.7-3.26,4.03-4.84,3-3.59,6.03-7.15,8.99-10.77.41-.5.69-1.27.7-1.92.05-7.64.03-15.28.03-22.92,0-.47,0-.94,0-1.57,1.51,0,2.89,0,4.28,0,2.32,0,4.64.02,6.96-.02.4,0,.91-.13,1.17-.39,2.23-2.17,4.42-4.39,6.39-6.36-.35-1.48-.85-2.73-.89-3.99-.09-3.23,2.6-5.45,5.98-5.13,2.91.28,5.09,3.28,4.53,6.24-.58,3.03-3.65,5.05-6.57,4.15-1.02-.31-1.58-.07-2.26.64-1.96,2.05-3.97,4.06-6.03,6.01-.43.41-1.16.7-1.76.72-3.16.08-6.32.05-9.48.06-.07,0-.15.05-.43.15Zm18.36-12.65c.03,1.58,1.38,2.88,2.96,2.85,1.55-.03,2.89-1.43,2.86-2.97-.03-1.57-1.39-2.87-2.97-2.84-1.59.03-2.87,1.36-2.84,2.96Z"/>
    <path class="cls-1" d="m433.28,346.42c2.17.6,3.78,1.81,4.32,4.14.64,2.82-.97,5.55-3.74,6.34-2.7.77-5.51-.69-6.48-3.35-.95-2.62.3-5.63,2.92-6.65.94-.37,1.28-.72,1.14-1.78-.41-3.08-.66-6.18-1.03-9.27-.04-.35-.4-.79-.73-.95-6.41-3.06-12.84-6.08-19.28-9.09-.37-.17-.86-.22-1.26-.15-5.69,1.01-11.36,2.05-17.05,3.05-.38.07-1-.08-1.2-.35-2.36-3.22-4.67-6.47-7.06-9.82.45-.35.84-.65,1.35-1.04,1.63,2.27,3.38,4.37,4.74,6.69,1.34,2.29,2.79,2.96,5.48,2.3,4.55-1.13,9.23-1.75,13.86-2.55.47-.08,1.04-.05,1.47.15,6.8,3.17,13.59,6.36,20.37,9.59.41.19.84.76.89,1.2.48,3.79.87,7.6,1.31,11.55Zm-.92,8.22c1.65.02,3-1.3,2.98-2.91-.02-1.53-1.38-2.87-2.93-2.87-1.54,0-2.9,1.33-2.93,2.88-.03,1.54,1.3,2.88,2.88,2.9Z"/>
    <path class="cls-1" d="m448.75,150.87c-1.82,1.73-3.6,3.39-5.32,5.11-.24.24-.34.71-.35,1.08-.12,5.39-.22,10.78-.32,16.18-.06,3.39-.1,6.79-.2,10.18-.01.45-.23,1.1-.56,1.31-6.81,4.32-13.66,8.58-20.5,12.86q-1.02-1.65.55-2.63c5.86-3.66,11.71-7.34,17.59-10.97.78-.48,1.05-.99,1.06-1.91.12-8.59.29-17.17.49-25.76.01-.49.28-1.08.62-1.43,1.82-1.85,3.74-3.61,5.56-5.46.4-.4.69-1.04.77-1.6.46-3.28,3.2-5.41,6.36-4.86,3,.51,4.93,3.52,4.17,6.59-.49,1.98-1.79,3.3-3.76,3.81-2.05.53-3.88.02-5.36-1.55-.27-.29-.51-.6-.79-.95Zm4.81.24c1.59-.02,2.92-1.37,2.89-2.93-.03-1.55-1.41-2.88-2.98-2.86-1.57.02-2.91,1.39-2.88,2.94.03,1.55,1.39,2.86,2.97,2.84Z"/>
    <path class="cls-1" d="m391.82,154.32c-.51-.45-.92-.81-1.44-1.27,1.68-1.77,3.32-3.51,4.96-5.24,9.48-9.96,18.95-19.92,28.45-29.85.58-.61.79-1.21.78-2.02-.04-2.64-.03-5.28,0-7.91,0-.4.28-.8.5-1.38-1.36-.87-2.55-2.3-2.52-4.26.02-1.14.35-2.4.93-3.37,1.33-2.23,4.31-2.94,6.66-1.82,2.35,1.12,3.53,3.78,2.82,6.34-.72,2.62-3.12,4.05-6.44,3.74-.03.41-.08.83-.08,1.24,0,2.76.04,5.52-.04,8.27-.02.64-.29,1.42-.72,1.88-9.77,10.34-19.58,20.63-29.39,30.94-1.46,1.53-2.92,3.06-4.49,4.7Zm36.08-55.23c-1.5-.04-2.9,1.3-2.98,2.85-.07,1.48,1.29,2.93,2.82,3.01,1.54.08,3.03-1.35,3.04-2.91.01-1.51-1.35-2.91-2.88-2.95Z"/>
    <path class="cls-1" d="m84.89,160.87c8.66-1.46,17.4-2.93,26.09-4.39-.21,2.62-.38,5.08-.65,7.53-.04.36-.54.93-.86.96-4.85.46-9.7.85-14.55,1.26-2.11.18-4.22.35-6.31.61-.92.12-1.34-.08-1.66-1.02-.56-1.65-1.32-3.23-2.05-4.96Z"/>
    <path class="cls-1" d="m427.05,242.65c.07-.59.13-1.1.21-1.72.36-.02.7-.07,1.04-.06,6.9.29,13.81.58,20.71.89.76.03,1.23-.12,1.61-.87,2.92-5.77,5.91-11.51,8.84-17.28.39-.77.87-1.22,1.72-1.46,3.3-.94,6.58-1.97,9.87-2.94.69-.2,1.02-.48,1.05-1.3.11-2.78,2.04-4.74,4.82-5.06,2.38-.28,4.78,1.33,5.53,3.7.77,2.44-.26,5.09-2.45,6.29-2.33,1.28-5.18.76-6.79-1.35-.49-.64-.9-.69-1.6-.47-3.08.97-6.19,1.85-9.27,2.85-.53.17-1.1.65-1.36,1.15-3.12,5.94-6.19,11.91-9.23,17.88-.32.62-.67.87-1.37.84-7.62-.34-15.25-.65-22.87-.98-.12,0-.23-.05-.47-.11Zm53.24-24.45c.01-1.55-1.29-2.9-2.85-2.96-1.52-.05-2.9,1.29-2.93,2.85-.03,1.63,1.31,3.03,2.88,3.02,1.55-.01,2.89-1.35,2.9-2.91Z"/>
    <path class="cls-1" d="m175.2,320.32c-.63-2.02-1.23-3.95-1.88-6.04,11.56-4.13,23.04-8.23,34.64-12.37-.28,2.52-.52,4.88-.83,7.24-.03.25-.41.55-.7.65-3.03,1.12-6.07,2.23-9.12,3.28-.35.12-.94-.02-1.24-.26-1.27-1.04-2.43-2.21-3.71-3.23-.38-.3-1.1-.48-1.55-.35-2.48.74-4.93,1.63-7.4,2.4-.7.22-.92.61-.95,1.29-.08,1.44-.2,2.87-.38,4.3-.05.35-.34.85-.64.96-2.01.74-4.06,1.39-6.23,2.12Z"/>
    <path class="cls-1" d="m417.09,278.72c.3-.61.54-1.11.84-1.73,2.33,1.21,4.59,2.38,6.84,3.56,1.8.94,3.62,1.87,5.4,2.86.6.33,1.05.32,1.64-.03,3.3-1.95,6.63-3.85,9.93-5.81.74-.44,1.39-.55,2.25-.3,6.63,1.92,13.28,3.78,19.92,5.65.19.05.38.1.65.17.82-1.9,2.1-3.28,4.23-3.68,2.75-.52,5.46,1.19,6.15,3.9.7,2.78-.91,5.66-3.6,6.45-2.76.81-5.77-.61-6.56-3.32-.33-1.13-.92-1.56-1.95-1.84-6.26-1.74-12.51-3.55-18.78-5.28-.53-.15-1.28-.04-1.76.23-3.38,1.9-6.73,3.83-10.04,5.84-.87.53-1.52.5-2.39.03-4.18-2.25-8.39-4.43-12.74-6.71Zm55.52,5.92c0-1.58-1.35-2.94-2.89-2.91-1.57.02-2.9,1.38-2.89,2.95,0,1.56,1.37,2.92,2.92,2.92,1.54,0,2.86-1.37,2.86-2.95Z"/>
    <path class="cls-1" d="m391.73,113.84c2,0,3.86-.03,5.73.01.81.02,1.24-.15,1.56-1.03.92-2.49,3.44-3.77,6.1-3.25,2.39.46,4.16,2.66,4.16,5.17,0,2.67-1.8,4.83-4.44,5.31-2.44.44-4.97-.94-5.83-3.36-.3-.83-.71-1-1.48-.98-1.23.05-2.47.01-3.89.01,0,.57,0,1.04,0,1.5,0,4.48.01,8.95-.02,13.43,0,.44-.09,1.02-.37,1.3-4.38,4.44-8.79,8.84-13.28,13.33-.55-.35-1.08-.69-1.93-1.23.62-.48,1.17-.82,1.62-1.26,3.77-3.75,7.54-7.49,11.26-11.29.44-.45.75-1.22.76-1.85.06-4.8.03-9.59.03-14.39v-1.44Zm15.12.94c0-1.61-1.29-2.89-2.9-2.88-1.62.01-2.89,1.29-2.89,2.9,0,1.57,1.36,2.93,2.91,2.92,1.55,0,2.87-1.36,2.87-2.94Z"/>
    <path class="cls-1" d="m483.36,200.97c.1.5.21,1.01.34,1.63-2.38.83-4.74,1.66-7.11,2.48-6.44,2.24-12.88,4.49-19.34,6.69-.8.27-1.22.71-1.53,1.48-2.66,6.54-5.37,13.06-8.02,19.61-.34.85-.76,1.12-1.65,1.11-5.76-.04-11.51-.02-17.27-.02-.39,0-.78-.04-1.24-.06v-1.83c.53,0,1,0,1.47,0,5.24,0,10.47-.02,15.71.02.9,0,1.33-.26,1.67-1.11,2.62-6.48,5.27-12.94,7.97-19.38.22-.53.81-1.09,1.35-1.28,8.8-3.11,17.63-6.16,26.45-9.2.38-.13.82-.07,1.23-.09l-.04-.04Z"/>
    <path class="cls-1" d="m410,345.36c-1.96-1.84-3.86-3.66-5.81-5.43-.3-.27-.87-.38-1.3-.34-4.13.39-8.26.84-12.39,1.24-.31.03-.76-.07-.94-.28-3.15-3.65-6.28-7.34-9.48-11.1.51-.45.94-.84,1.45-1.29,2.07,2.43,4.09,4.79,6.1,7.16.65.76,1.35,1.48,1.91,2.3.69,1,1.54,1.29,2.74,1.15,3.57-.43,7.15-.73,10.72-1.16,1.05-.12,1.79.14,2.55.88,1.96,1.93,4,3.8,6.05,5.64.37.34.95.58,1.45.62,2.56.21,4.54,2.01,4.95,4.59.38,2.43-1.02,4.85-3.35,5.74-2.37.91-5.04.04-6.42-2.1-1.37-2.11-1.05-4.92.76-6.7.31-.3.65-.58,1.03-.91Zm2.73,7.61c1.56-.01,2.93-1.36,2.92-2.88,0-1.55-1.34-2.9-2.89-2.91-1.62-.02-3,1.36-2.97,2.95.04,1.57,1.36,2.85,2.94,2.84Z"/>
    <path class="cls-1" d="m412.68,287.18c.27-.46.51-.86.81-1.37.75.36,1.46.69,2.16,1.04,5.06,2.56,10.12,5.12,15.17,7.72.75.39,1.29.32,1.97-.12,3.39-2.2,6.82-4.33,10.2-6.52.66-.43,1.22-.55,1.99-.28,3.2,1.12,6.42,2.18,9.65,3.22.73.24,1.08.61,1.21,1.39.38,2.28.89,4.54,1.28,6.81.12.69.36,1.04,1.08,1.18,2.42.5,4.83,1.06,7.23,1.62.8.19,1.18-.02,1.49-.84,1-2.62,3.68-3.98,6.28-3.33,2.79.71,4.39,3.05,4.1,6.04-.23,2.44-2.51,4.52-5.16,4.69-2.11.14-4.41-1.29-5.17-3.4-.35-.96-.87-1.35-1.82-1.54-2.74-.54-5.45-1.19-8.18-1.75-.87-.18-1.25-.57-1.39-1.48-.33-2.21-.81-4.39-1.19-6.59-.14-.84-.54-1.29-1.38-1.55-2.63-.82-5.21-1.77-7.85-2.56-.55-.17-1.36-.06-1.85.24-3.54,2.17-7.04,4.42-10.53,6.67-.6.38-1.08.48-1.75.13-5.87-3.01-11.75-5.97-17.63-8.96-.24-.12-.46-.29-.74-.48Zm59.31,20.85c2.7,0,5.01-2.3,5.07-5.06.05-2.72-2.23-4.97-5.07-4.99-2.86-.01-5.14,2.25-5.11,5.07.03,2.75,2.31,4.98,5.11,4.98Z"/>
    <path class="cls-1" d="m376.51,95.82c0,1.8-.11,3.71.03,5.61.24,3.32-.51,6.29-2.04,9.28-3.17,6.18-6.02,12.51-9.01,18.78-.15.32-.33.63-.56,1.06-.49-.23-.93-.45-1.5-.72,1.27-2.67,2.49-5.25,3.72-7.83,2.39-5.01,4.79-10.01,7.14-15.03.28-.59.43-1.29.44-1.94.05-2.92,0-5.83.03-8.75,0-.75-.2-1.21-.86-1.65-2.07-1.35-2.85-3.89-2.03-6.23.77-2.18,3.03-3.68,5.32-3.52,2.37.16,4.42,1.87,4.89,4.09.53,2.49-.49,4.85-2.71,5.96-.83.42-1.8.57-2.88.89Zm3.28-5.54c.03-1.59-1.25-2.92-2.84-2.96-1.53-.04-2.94,1.31-2.98,2.85-.04,1.55,1.28,2.91,2.87,2.94,1.61.04,2.92-1.22,2.94-2.83Z"/>
    <path class="cls-1" d="m367.6,373.25c2.34-.98,4.48-.95,6.37.73,2.05,1.83,2.32,5,.66,7.18-1.63,2.14-4.69,2.73-7,1.35-2.36-1.41-3.3-4.41-2.04-6.89.43-.85.35-1.39-.17-2.12-1.78-2.51-3.5-5.06-5.19-7.64-.24-.36-.37-1.01-.22-1.38,2.08-4.93,4.22-9.83,6.34-14.74.06-.14.18-.25.32-.46.52.23,1.02.45,1.62.71-.35.84-.65,1.6-.98,2.36-1.68,3.89-3.38,7.76-5.02,11.66-.17.41-.23,1.07-.02,1.4,1.7,2.61,3.48,5.16,5.3,7.83Zm2.73,7.55c1.65.02,2.91-1.19,2.92-2.83.02-1.62-1.24-2.92-2.83-2.96-1.56-.03-2.93,1.29-2.95,2.86-.02,1.59,1.26,2.9,2.86,2.92Z"/>
    <path class="cls-1" d="m417.72,188.81c-.28-.58-.54-1.1-.84-1.72,2.7-1.8,5.33-3.6,8.01-5.32.95-.61,1.4-1.23,1.46-2.46.17-4.03.57-8.05.81-12.07.04-.62-.2-1.31-.49-1.88-.98-2-.99-3.94.29-5.78,1.26-1.81,3.09-2.52,5.23-2.17,2.21.37,3.65,1.73,4.26,3.89,1.06,3.78-2.12,7.17-6.17,6.6-.35-.05-.69-.14-1.22-.24-.13,1.71-.27,3.36-.38,5.01-.19,2.79-.34,5.58-.56,8.37-.03.43-.24.99-.56,1.21-2.9,1.99-5.83,3.92-8.76,5.87-.33.22-.67.43-1.1.7Zm16.49-26.16c0-1.57-1.35-2.9-2.91-2.9-1.57,0-2.87,1.33-2.87,2.92,0,1.62,1.28,2.9,2.89,2.89,1.59-.01,2.9-1.33,2.89-2.91Z"/>
    <path class="cls-1" d="m398.05,306.04c.5-.53.87-.93,1.32-1.41,1.92,1.8,3.96,3.39,5.59,5.33,2.03,2.41,4.34,3.23,7.32,2.37,1.98-.57,3.62.02,5.35,1.12,9.22,5.82,18.51,11.52,27.78,17.26.43.27.86.55,1.37.88-.33.54-.62,1.01-.97,1.58-.41-.23-.78-.42-1.14-.65-9.61-5.95-19.23-11.89-28.81-17.87-.84-.53-1.65-.7-2.59-.56-1.66.23-3.32.45-4.99.61-.4.04-.95,0-1.21-.24-3-2.75-5.95-5.55-9.01-8.43Z"/>
    <path class="cls-1" d="m428.38,304.52c-.48-.07-.86-.04-1.15-.18-6.32-3.17-12.63-6.36-18.94-9.54-.17-.09-.32-.21-.53-.36.35-.5.66-.96,1.07-1.55,6.49,3.27,12.96,6.53,19.43,9.79,2.04-3.72,4.28-4.93,7.2-3.92,2.38.82,3.93,3.44,3.5,5.9-.46,2.61-2.69,4.51-5.3,4.51-2.67,0-4.8-1.91-5.28-4.65Zm5.27,2.17c1.58.02,2.94-1.3,2.95-2.86.01-1.55-1.34-2.93-2.89-2.95-1.53-.03-2.9,1.33-2.92,2.9-.02,1.6,1.25,2.9,2.87,2.91Z"/>
    <path class="cls-1" d="m426.31,250.03c-.04-1.78-.03-1.82,1.48-1.74,8.49.45,16.98.86,25.47,1.42,2.17.14,3.84-.2,5.35-1.95,1.97-2.3,4.23-4.35,6.41-6.47.68-.66.89-1.14.4-2.11-1.43-2.87.04-6.28,3.04-7.36,2.95-1.07,6.21.55,7.03,3.59.54,2.02.14,3.9-1.41,5.4-1.55,1.51-3.46,1.84-5.44,1.2-1.01-.33-1.56-.15-2.26.57-2.76,2.84-5.56,5.63-8.4,8.38-.42.41-1.17.72-1.75.69-9.69-.45-19.38-.97-29.07-1.47-.27-.01-.54-.1-.86-.16Zm43.98-8.02c2.64.01,5.13-2.45,5.11-5.05-.02-2.67-2.4-5.11-5.04-5.16-2.68-.05-5.19,2.44-5.16,5.13.02,2.64,2.45,5.07,5.09,5.09Z"/>
    <path class="cls-1" d="m424.18,259.46c.16-.66.3-1.19.46-1.87,15.72,2.23,31.38,4.45,47.02,6.67.04,1.85-.09,1.95-1.69,1.72-8.85-1.27-17.7-2.52-26.55-3.78-6.36-.91-12.71-1.81-19.24-2.75Z"/>
    <path class="cls-1" d="m423.97,205.06c-.7-1.46-.7-1.47.69-2.08,10.19-4.48,20.38-8.97,30.59-13.43.86-.37,1.27-.71,1.18-1.8-.19-2.32,1.55-4.59,3.76-5.27,2.41-.74,4.95.18,6.26,2.28,1.29,2.07,1.04,4.72-.61,6.54-1.63,1.8-4.39,2.44-6.44,1.11-2.14-1.39-3.94-1.2-6.19-.18-9.37,4.27-18.82,8.35-28.25,12.49-.32.14-.66.22-.97.33Zm36.21-14.58l-.04-.03c-.03.38-.14.79-.06,1.15.07.34.34.9.54.91.98.05,2.04.14,2.95-.15,2.52-.81,3.82-3.5,3.11-6.08-.69-2.49-3.23-4.11-5.71-3.64-2.6.5-4.44,2.88-4.14,5.47.05.45.36,1.03.73,1.24.81.48,1.74.76,2.62,1.13Z"/>
    <path class="cls-1" d="m324.24,150.74c1.71.04,2.61.38,3.21,1.74,3.32,7.61,6.76,15.17,10.16,22.75.37.82-.61,2.6-1.47,2.55-.3-.02-.69-.49-.85-.84-1.25-2.68-2.47-5.37-3.67-8.07-2.49-5.58-4.96-11.17-7.43-16.75-.27-.6-.76-1.33.06-1.37Z"/>
    <path class="cls-1" d="m98.47,257.37c-6.55,1.06-12.86,2.09-19.16,3.11-.04-.07-.08-.15-.12-.22,4.43-3.32,8.86-6.64,13.39-10.03,1.91,2.32,3.8,4.61,5.89,7.15Z"/>
    <path class="cls-1" d="m372.2,356.89c.47-.41.91-.8,1.42-1.24,2.04,2.37,4.02,4.67,5.99,6.97.94,1.09,1.94,2.14,2.78,3.3.62.86,1.35,1.06,2.35,1.04,7.47-.14,14.95-.24,22.42-.35.16,0,.32,0,.46,0,.81,1.4.57,1.9-.89,1.92-7.71.1-15.43.19-23.14.32-.88.02-1.46-.25-2.03-.94-2.88-3.43-5.81-6.81-8.72-10.21-.21-.24-.39-.5-.63-.82Z"/>
    <path class="cls-1" d="m359.72,118.25c-.68-.11-1.21-.2-1.87-.31.2-1.73.37-3.39.57-5.04,1.08-8.79,2.15-17.59,3.26-26.38.1-.81-.27-1.1-.86-1.47-1.89-1.19-2.83-2.98-2.56-5.18.28-2.27,1.56-3.9,3.82-4.6,3.02-.93,6.03.82,6.82,3.95.74,2.9-1.16,5.96-4.13,6.49-.9.16-1.18.54-1.27,1.37-.74,6.22-1.5,12.44-2.26,18.66-.5,4.12-1,8.23-1.52,12.52Zm8.94-37.77c.01-2.4-1.49-4.38-3.73-4.93-2.28-.56-4.69.47-5.71,2.45-1.14,2.2-.68,4.75,1.17,6.3.41.34.74.83,1.51.26.38-.28,1.33.2,2.01.36.39.09.8.41,1.13.33,2.18-.54,3.6-2.46,3.61-4.77Z"/>
    <path class="cls-1" d="m379.97,345.55c-2.55-3.89-5.05-7.74-7.6-11.55-.49-.73-.51-1.28-.09-2.04,1.22-2.2,2.37-4.44,3.5-6.68.27-.54.35-1.18.6-2.07.18-.11.66-.38,1.12-.65.97.94,1.08,1.82.39,2.99-1.21,2.06-2.22,4.24-3.38,6.34-.39.72-.4,1.23.08,1.94,2.19,3.25,4.31,6.54,6.45,9.82.23.35.42.73.63,1.11,3.36-.46,5.83.82,6.73,3.5.84,2.5-.18,5.22-2.44,6.5-2.25,1.27-5.21.74-6.83-1.24-1.9-2.32-1.65-4.94.84-7.96Zm3.37-.53c-2.97-.01-5.06,2.07-5.06,5.03,0,2.81,2.21,5.01,5.01,5.02,2.81,0,5.03-2.2,5.04-5.01,0-2.81-2.19-5.03-4.99-5.04Z"/>
    <path class="cls-1" d="m483.4,201.01c-.11-1.02-.41-2.06-.31-3.06.29-2.67,2.36-4.53,4.94-4.65,2.68-.12,4.85,1.47,5.49,4.02.61,2.47-.57,5-2.84,6.1-2.37,1.14-5.13.42-6.71-1.75-.18-.25-.4-.47-.6-.71,0,0,.04.04.04.04Zm5,.49c1.57-.03,2.9-1.39,2.86-2.95-.04-1.59-1.36-2.86-2.96-2.83-1.61.03-2.87,1.33-2.84,2.94.03,1.59,1.35,2.87,2.95,2.84Z"/>
    <path class="cls-1" d="m413.29,180.37c-.36-.61-.65-1.08-.99-1.64.83-.62,1.64-1.18,2.4-1.81.31-.26.69-.65.73-1.01.3-2.9.53-5.8.77-8.7.01-.14-.03-.29-.07-.62-2.75,1.93-5.38,3.78-8.08,5.68-.38-.52-.7-.96-1.13-1.56,3.84-2.72,7.63-5.39,11.62-8.22-.18,2.17-.33,4.12-.5,6.07-.21,2.46-.47,4.92-.64,7.39-.07,1.02-.31,1.82-1.27,2.38-.95.56-1.81,1.29-2.84,2.04Z"/>
    <path class="cls-1" d="m51.1,239.12c-.28-4.98-.56-9.97-.85-15.2,2.39.46,4.66.89,7.12,1.36-2.03,4.72-4,9.3-5.98,13.88-.1-.02-.19-.03-.29-.05Z"/>
    <path class="cls-1" d="m436.26,275.76c-.64.27-1.12.47-1.75.73-.59-1.44-1.33-2.78-1.7-4.21-.61-2.37-1.9-3.54-4.44-3.7-2.13-.13-4.23-.76-6.34-1.17-.04,0-.06-.05-.18-.13.16-.52.34-1.08.54-1.73,2.85.53,5.61,1.17,8.4,1.51,1.72.21,2.51,1,3.02,2.58.66,2.04,1.58,3.99,2.44,6.11Z"/>
    <path class="cls-1" d="m390.5,313.1c.51-.44.92-.8,1.46-1.27,2.42,2.65,4.82,5.27,7.3,7.98-.5.45-.93.84-1.44,1.3-2.44-2.67-4.83-5.28-7.33-8Z"/>
    <path class="cls-1" d="m178.95,154.37c-2.02.84-4.04,1.68-6.07,2.51-.66.27-1.06.08-1.17-.68-.09-.62-.29-1.23-.47-1.99h7.67c.01.05.02.11.04.16Z"/>
    <path d="m284.27,343.51c-15.64.64-28.85-11.72-29.24-27.67-.37-15.39,11.59-28.22,27.36-28.86,15.12-.61,28.49,11.72,29.16,26.71.72,15.9-11.67,29.56-27.28,29.82Zm-21.74-27.47c.13,10.54,9.23,20.63,21.8,19.99,11.19-.57,20.55-9.5,19.93-23.13-.54-12.04-12.34-19.07-22.33-18.44-9.81.62-20.91,8.99-19.4,21.58Z"/>
    <path d="m359.07,218.11c-10,.04-17.91-7.81-17.97-17.79-.05-9.93,8.11-18.03,18.22-18.06,9.63-.03,17.7,8.18,17.71,18.02,0,9.89-7.96,17.8-17.96,17.84Zm12.53-18.42c.32-7.03-6.42-11.92-12.45-11.9-6.67.02-12.41,5.28-12.55,11.39-.19,8.39,5.96,13.49,12.49,13.53,7.05.04,12.49-5.63,12.51-13.01Z"/>
    <path d="m321.46,92.95c-.03,7.96-6.48,14.31-14.5,14.28-7.95-.03-14.37-6.65-14.34-14.78.03-7.78,6.67-14.3,14.51-14.23,8.06.07,14.36,6.55,14.33,14.73Zm-14.46,8.96c5.18.01,9.37-4.11,9.38-9.22,0-5.06-4.16-9.26-9.21-9.28-5.12-.03-9.4,4.06-9.45,9.04-.05,5.2,4.12,9.45,9.28,9.47Z"/>
    <path d="m141.35,174.2c-6.4-.01-11.25-4.97-11.23-11.49.01-6.1,5.15-11.14,11.32-11.11,6.2.03,11.22,5.12,11.25,11.34.03,5.41-4.37,11.53-11.34,11.26Zm0-18.4c-3.95,0-7.18,3.17-7.16,7.02.02,4.06,3.2,7.26,7.21,7.25,3.96,0,7.16-3.22,7.15-7.18-.01-3.96-3.19-7.1-7.2-7.09Z"/>
    <path d="m74.38,162.62c3.29.03,6.02,2.77,6.03,6.06,0,3.32-2.8,6.12-6.13,6.1-3.37-.02-6.09-2.76-6.06-6.13.02-3.36,2.78-6.06,6.16-6.03Zm-4.04,6.09c0,2.18,1.78,3.98,3.95,3.98,2.21,0,4.04-1.85,4.01-4.06-.03-2.17-1.84-3.92-4.03-3.9-2.2.02-3.93,1.78-3.92,3.99Z"/>
    <path d="m138.21,231.55c-3.36-.02-6.12-2.81-6.07-6.14.05-3.36,2.86-6.12,6.16-6.07,3.38.05,6.06,2.8,6.03,6.17-.03,3.41-2.72,6.06-6.12,6.04Zm.04-2.13c2.26,0,4.07-1.79,4.04-4.01-.03-2.1-1.91-3.97-4.02-3.98-2.17-.01-4.04,1.89-4.01,4.08.03,2.2,1.76,3.9,3.99,3.9Z"/>
    <path d="m480.15,175.83c-1.57,0-2.9-1.32-2.92-2.87-.02-1.59,1.38-2.95,3-2.92,1.57.03,2.9,1.39,2.86,2.93-.03,1.56-1.37,2.86-2.94,2.85Z"/>
    <path d="m405.1,87.51c-.03-1.6,1.25-2.93,2.84-2.96,1.58-.03,2.94,1.27,2.97,2.84.03,1.54-1.31,2.94-2.86,2.97-1.58.03-2.93-1.27-2.96-2.85Z"/>
    <path d="m432.36,354.63c-1.58-.02-2.91-1.36-2.88-2.9.03-1.55,1.39-2.89,2.93-2.88,1.55,0,2.91,1.34,2.93,2.87.02,1.61-1.33,2.93-2.98,2.91Z"/>
    <path d="m453.56,151.11c-1.58.02-2.95-1.29-2.97-2.84-.03-1.55,1.31-2.92,2.88-2.94,1.57-.02,2.95,1.3,2.98,2.86.03,1.56-1.3,2.91-2.89,2.93Z"/>
    <path d="m427.89,99.09c1.53.04,2.89,1.44,2.88,2.95-.01,1.56-1.51,2.99-3.04,2.91-1.53-.08-2.89-1.53-2.82-3.01.08-1.55,1.48-2.89,2.98-2.85Z"/>
    <path d="m480.29,218.2c-.01,1.55-1.35,2.89-2.9,2.91-1.57.02-2.91-1.38-2.88-3.02.03-1.56,1.41-2.9,2.93-2.85,1.56.05,2.86,1.4,2.85,2.96Z"/>
    <path d="m472.61,284.64c0,1.58-1.32,2.95-2.86,2.95-1.55,0-2.91-1.36-2.92-2.92,0-1.57,1.32-2.93,2.89-2.95,1.54-.02,2.89,1.34,2.89,2.91Z"/>
    <path d="m406.85,114.78c0,1.58-1.32,2.93-2.87,2.94-1.55,0-2.9-1.35-2.91-2.92,0-1.6,1.27-2.88,2.89-2.9,1.61-.01,2.9,1.26,2.9,2.88Z"/>
    <path d="m412.72,352.98c-1.58.01-2.91-1.27-2.94-2.84-.04-1.59,1.35-2.96,2.97-2.95,1.55.02,2.89,1.36,2.89,2.91,0,1.52-1.36,2.87-2.92,2.88Z"/>
    <path d="m471.99,308.03c-2.8,0-5.08-2.23-5.11-4.98-.03-2.82,2.26-5.08,5.11-5.07,2.83.01,5.12,2.27,5.07,4.99-.06,2.76-2.36,5.06-5.07,5.06Zm-.04-8.16c-1.81,0-3.21,1.38-3.19,3.16.02,1.61,1.55,3.1,3.2,3.12,1.69.01,3.13-1.41,3.15-3.11.03-1.8-1.33-3.16-3.17-3.17Z"/>
    <path d="m379.79,90.28c-.03,1.61-1.33,2.87-2.94,2.83-1.59-.04-2.91-1.39-2.87-2.94.04-1.54,1.44-2.89,2.98-2.85,1.59.04,2.86,1.37,2.84,2.96Z"/>
    <path d="m370.33,380.79c-1.6-.02-2.88-1.33-2.86-2.92.02-1.57,1.39-2.89,2.95-2.86,1.6.03,2.85,1.34,2.83,2.96-.02,1.63-1.27,2.85-2.92,2.83Z"/>
    <path d="m434.21,162.65c0,1.59-1.3,2.9-2.89,2.91-1.61.01-2.88-1.27-2.89-2.89,0-1.6,1.29-2.92,2.87-2.92,1.57,0,2.91,1.33,2.91,2.9Z"/>
    <path d="m433.64,306.69c-1.62-.02-2.89-1.31-2.87-2.91.02-1.57,1.39-2.93,2.92-2.9,1.55.03,2.9,1.4,2.89,2.95-.01,1.56-1.37,2.88-2.95,2.86Z"/>
    <path class="cls-1" d="m470.29,242.02c-2.63-.01-5.07-2.44-5.09-5.09-.02-2.69,2.49-5.18,5.16-5.13,2.64.05,5.01,2.49,5.04,5.16.02,2.6-2.46,5.07-5.11,5.05Zm3.19-5.1c0-1.76-1.45-3.19-3.23-3.2-1.62,0-3.15,1.53-3.15,3.18,0,1.69,1.58,3.25,3.26,3.21,1.69-.04,3.12-1.5,3.12-3.19Z"/>
    <path class="cls-1" d="m460.18,190.48c-.88-.36-1.81-.65-2.62-1.13-.37-.22-.68-.8-.73-1.24-.3-2.59,1.54-4.98,4.14-5.47,2.48-.47,5.02,1.15,5.71,3.64.71,2.58-.59,5.27-3.11,6.08-.91.29-1.97.2-2.95.15-.2,0-.46-.57-.54-.91-.08-.36.04-.76.06-1.15.59.09,1.17.26,1.76.26,2.03,0,3.22-1.42,3.03-3.57-.15-1.67-1.94-2.97-3.63-2.64-1.89.38-3.09,2.15-2.5,3.92.25.75.9,1.37,1.37,2.05Z"/>
    <path class="cls-1" d="m368.66,80.48c-.01,2.31-1.43,4.23-3.61,4.77-.33.08-.75-.24-1.13-.33-.68-.16-1.64-.64-2.01-.36-.77.57-1.1.08-1.51-.26-1.85-1.56-2.31-4.1-1.17-6.3,1.02-1.97,3.43-3.01,5.71-2.45,2.25.55,3.75,2.53,3.73,4.93Zm-1.88,0c.02-1.69-1.52-3.27-3.18-3.24-1.62.02-3.11,1.55-3.11,3.19,0,1.76,1.33,3.16,3.06,3.22,1.74.06,3.21-1.38,3.23-3.16Z"/>
    <path class="cls-1" d="m383.34,345.02c2.8.01,5,2.23,4.99,5.04,0,2.8-2.22,5.01-5.04,5.01-2.8,0-5.01-2.21-5.01-5.02,0-2.97,2.08-5.04,5.06-5.03Zm-3.17,4.99c-.02,1.8,1.37,3.2,3.16,3.19,1.72-.02,3.12-1.41,3.13-3.14.01-1.73-1.35-3.13-3.07-3.15-1.89-.02-3.2,1.24-3.21,3.1Z"/>
    <path d="m488.4,201.51c-1.6.03-2.92-1.25-2.95-2.84-.03-1.61,1.24-2.91,2.84-2.94,1.6-.03,2.92,1.24,2.96,2.83.04,1.56-1.29,2.92-2.86,2.95Z"/>
    <path class="cls-1" d="m262.53,316.04c-1.51-12.58,9.59-20.96,19.4-21.58,9.99-.63,21.78,6.4,22.33,18.44.61,13.62-8.75,22.56-19.93,23.13-12.56.64-21.66-9.46-21.8-19.99Z"/>
    <path class="cls-1" d="m371.6,199.69c-.02,7.38-5.46,13.06-12.51,13.01-6.53-.04-12.68-5.13-12.49-13.53.14-6.11,5.88-11.37,12.55-11.39,6.03-.02,12.77,4.87,12.45,11.9Z"/>
    <path class="cls-1" d="m307,101.91c-5.16-.01-9.33-4.27-9.28-9.47.05-4.98,4.33-9.07,9.45-9.04,5.05.03,9.21,4.22,9.21,9.28,0,5.11-4.19,9.23-9.38,9.22Z"/>
    <path class="cls-1" d="m141.36,155.8c4.01,0,7.19,3.13,7.2,7.09.01,3.96-3.19,7.17-7.15,7.18-4.02,0-7.19-3.19-7.21-7.25-.02-3.85,3.21-7.02,7.16-7.02Z"/>
    <path class="cls-1" d="m70.34,168.71c0-2.21,1.73-3.97,3.92-3.99,2.19-.02,4,1.74,4.03,3.9.03,2.21-1.8,4.07-4.01,4.06-2.16,0-3.94-1.8-3.95-3.98Z"/>
    <path class="cls-1" d="m138.25,229.41c-2.23,0-3.96-1.7-3.99-3.9-.03-2.19,1.84-4.09,4.01-4.08,2.1.01,3.98,1.87,4.02,3.98.03,2.21-1.78,4.01-4.04,4.01Z"/>
    <path class="cls-1" d="m471.95,299.87c1.84,0,3.19,1.37,3.17,3.17-.03,1.7-1.47,3.12-3.15,3.11-1.65-.01-3.17-1.5-3.2-3.12-.03-1.78,1.38-3.17,3.19-3.16Zm-.04,5.88c1.57.02,2.87-1.19,2.9-2.71.03-1.48-1.28-2.84-2.78-2.89-1.49-.05-2.83,1.24-2.87,2.77-.04,1.57,1.17,2.81,2.75,2.84Z"/>
    <path class="cls-1" d="m473.48,236.91c0,1.69-1.43,3.16-3.12,3.19-1.68.04-3.26-1.52-3.26-3.21,0-1.65,1.52-3.19,3.15-3.18,1.79,0,3.23,1.44,3.23,3.2Zm-.35.11c.06-1.47-1.24-2.87-2.73-2.94-1.5-.06-2.86,1.21-2.92,2.73-.06,1.51,1.19,2.87,2.71,2.92,1.51.06,2.88-1.21,2.94-2.71Z"/>
    <path class="cls-1" d="m460.18,190.48c-.47-.68-1.12-1.3-1.37-2.05-.59-1.77.61-3.55,2.5-3.92,1.69-.34,3.49.97,3.63,2.64.19,2.15-1,3.57-3.03,3.57-.59,0-1.18-.17-1.76-.26,0,0,.04.03.04.03Zm1.63-5.63c-1.57,0-2.75,1.22-2.73,2.83.01,1.56,1.3,2.85,2.81,2.82,1.48-.03,2.83-1.42,2.8-2.89-.03-1.54-1.31-2.77-2.87-2.76Z"/>
    <path class="cls-1" d="m366.78,80.48c-.02,1.78-1.49,3.22-3.23,3.16-1.73-.06-3.06-1.46-3.06-3.22,0-1.64,1.49-3.17,3.11-3.19,1.65-.03,3.2,1.55,3.18,3.24Zm-3.2,2.77c1.52.03,2.85-1.24,2.89-2.75.04-1.48-1.28-2.86-2.77-2.9-1.52-.03-2.84,1.24-2.86,2.77-.02,1.56,1.2,2.85,2.74,2.88Z"/>
    <path class="cls-1" d="m380.17,350.01c.02-1.86,1.32-3.12,3.21-3.1,1.72.02,3.09,1.42,3.07,3.15-.01,1.72-1.41,3.12-3.13,3.14-1.78.02-3.17-1.39-3.16-3.19Zm3.06,2.78c1.65.01,2.81-1.12,2.82-2.75,0-1.56-1.27-2.87-2.78-2.85-1.49.02-2.83,1.39-2.82,2.87.01,1.48,1.27,2.71,2.78,2.72Z"/>
    <path d="m471.91,305.75c-1.58-.02-2.78-1.27-2.75-2.84.04-1.53,1.37-2.82,2.87-2.77,1.51.05,2.81,1.41,2.78,2.89-.03,1.52-1.33,2.73-2.9,2.71Z"/>
    <path d="m473.13,237.02c-.06,1.5-1.43,2.77-2.94,2.71-1.52-.06-2.77-1.41-2.71-2.92.06-1.52,1.42-2.79,2.92-2.73,1.49.06,2.79,1.46,2.73,2.94Z"/>
    <path d="m461.81,184.85c1.56,0,2.83,1.22,2.87,2.76.03,1.46-1.31,2.85-2.8,2.89-1.5.03-2.79-1.26-2.81-2.82-.01-1.61,1.16-2.83,2.73-2.83Z"/>
    <path d="m363.59,83.26c-1.54-.03-2.76-1.31-2.74-2.88.02-1.53,1.34-2.81,2.86-2.77,1.49.03,2.82,1.42,2.77,2.9-.04,1.51-1.38,2.78-2.89,2.75Z"/>
    <path d="m383.23,352.79c-1.51-.01-2.76-1.24-2.78-2.72-.01-1.48,1.33-2.85,2.82-2.87,1.51-.02,2.79,1.29,2.78,2.85,0,1.63-1.17,2.76-2.82,2.75Z"/>
  </g>
</svg>